<?xml version="1.0" standalone="no"?>
<!DOCTYPE svg PUBLIC "-//W3C//DTD SVG 1.1//EN" "http://www.w3.org/Graphics/SVG/1.1/DTD/svg11.dtd" >
<svg xmlns="http://www.w3.org/2000/svg">
<metadata></metadata>
<defs>
<font id="focoblack" horiz-adv-x="390" >
<font-face units-per-em="1000" ascent="800" descent="-200" />
<missing-glyph horiz-adv-x="200" />
<glyph unicode="ff" horiz-adv-x="693" d="M690 535q-16 9 -41 18.5t-55 9.5q-26 0 -44 -13.5t-18 -42.5v-24h148v-149h-148v-334h-199v334h-94v-334h-199v479q0 24 1 37.5t2 20.5q13 81 68 130.5t155 49.5q35 0 73.5 -9.5t75.5 -33.5q28 18 63 30.5t81 12.5q20 0 42.5 -2.5t43.5 -7.5q36 -9 62 -27t26 -52 q0 -15 -12 -40.5t-31 -52.5zM335 483q0 17 1 37t4 35q-12 4 -20.5 6t-25.5 2q-21 0 -38 -14.5t-17 -43.5v-22h96z" />
<glyph unicode="fi" horiz-adv-x="572" d="M440 535q-16 9 -48.5 18.5t-69.5 9.5q-40 0 -61.5 -16.5t-21.5 -45.5v-18h292v-479q-39 -13 -73 -13q-46 0 -71.5 11t-38 29t-15 41.5t-2.5 49.5v212h-92v-334h-199v478q0 20 1 35.5t2 22.5q12 81 73 131t180 50q20 0 47.5 -2.5t48.5 -7.5q36 -9 62 -26.5t26 -48.5 q0 -18 -10.5 -44t-29.5 -53z" />
<glyph unicode="fl" horiz-adv-x="585" d="M344 560q-8 2 -21.5 2.5t-21.5 0.5q-26 0 -44 -13.5t-18 -42.5v-24h70v-149h-70v-334h-199v482q0 16 1 33.5t2 24.5q13 81 78.5 129t177.5 48q63 0 122 -9.5t123 -30.5v-673q-39 -13 -73 -13q-46 0 -71.5 11t-38 29t-15 41.5t-2.5 49.5v438z" />
<glyph unicode="ffi" horiz-adv-x="870" d="M738 535q-16 9 -48.5 18.5t-69.5 9.5q-40 0 -61.5 -16.5t-21.5 -45.5v-18h292v-479q-39 -13 -73 -13q-46 0 -71.5 11t-38 29t-15 41.5t-2.5 49.5v212h-92v-334h-199v334h-99v-334h-199v482q0 21 1 36t2 22q13 81 68 129t155 48q38 0 79.5 -11t77.5 -37q31 21 72.5 34.5 t98.5 13.5q20 0 47.5 -2.5t48.5 -7.5q36 -9 62 -26.5t26 -48.5q0 -18 -10.5 -44t-29.5 -53zM239 483h101q0 20 1 35.5t5 32.5q-14 7 -27.5 9.5t-24.5 2.5q-55 0 -55 -60v-20z" />
<glyph unicode="ffl" horiz-adv-x="889" d="M648 560q-8 2 -21.5 2.5t-21.5 0.5q-26 0 -44 -13.5t-18 -42.5v-24h70v-149h-70v-334h-199v334h-105v-334h-199v473q0 21 1 36t2 22q11 90 70 138t150 48q51 0 89.5 -13.5t70.5 -34.5q40 27 81.5 37.5t98.5 10.5q91 0 151 -14.5t94 -25.5v-673q-39 -13 -73 -13 q-46 0 -71.5 11t-38 29t-15 41.5t-2.5 49.5v438zM239 483h105q0 14 0.5 31t4.5 35q-14 7 -28 10.5t-27 3.5q-25 0 -40 -14.5t-15 -52.5v-13z" />
<glyph unicode=" "  horiz-adv-x="200" />
<glyph unicode="&#x09;" horiz-adv-x="200" />
<glyph unicode="&#xa0;" horiz-adv-x="200" />
<glyph unicode="!" horiz-adv-x="321" d="M256 77q0 -42 -25.5 -67t-70.5 -25t-70.5 25t-25.5 67t25.5 66.5t70.5 24.5q43 0 69.5 -24.5t26.5 -66.5zM55 664q30 5 46.5 6t29.5 1q24 0 46.5 -4.5t39.5 -16t27.5 -32t10.5 -52.5v-346q0 -1 -15.5 -7t-47.5 -6q-46 0 -73 12.5t-41.5 32.5t-18.5 45t-4 51v316z" />
<glyph unicode="&#x22;" horiz-adv-x="401" d="M240 677q20 5 32.5 6t25.5 1q37 0 53.5 -21.5t16.5 -56.5l-10 -200h-118v271zM40 677q20 5 32.5 6t25.5 1q37 0 53.5 -21.5t16.5 -56.5l-10 -200h-118v271z" />
<glyph unicode="#" horiz-adv-x="654" d="M474 173l-20 -149h-131l21 149h-83l-21 -149h-131l22 149h-115l14 97h114l14 98h-114l14 98h113l21 142h130l-21 -142h84l21 142h130l-22 -142h125l-14 -98h-123l-15 -98h124l-13 -97h-124zM372 368h-84l-15 -98h84z" />
<glyph unicode="$" horiz-adv-x="590" d="M102 198q35 -26 75 -44t85 -18q33 0 49 10.5t16 36.5q0 16 -7.5 26.5t-20.5 18t-30.5 14t-37.5 13.5q-30 10 -61.5 24t-57 37.5t-41.5 59t-16 88.5q0 40 11.5 72t31.5 56t48 40.5t60 25.5v101h61v-95l43 2v93h61v-95q38 -7 64.5 -18.5t40.5 -20.5q19 -13 29 -27t10 -34 t-11 -41.5t-36 -56.5q-17 13 -36.5 22.5t-39 16.5t-38 10.5t-31.5 3.5q-66 0 -66 -39q0 -21 19.5 -33.5t54.5 -24.5q32 -11 66 -24t62 -35t46 -56t18 -86q0 -93 -41.5 -147t-110.5 -75v-93h-61v85l-43 -2v-83h-61v84q-42 5 -72.5 15.5t-49.5 23.5q-35 23 -35 61 q0 24 16.5 53t36.5 55z" />
<glyph unicode="%" horiz-adv-x="821" d="M361 510q0 -85 -47 -132t-125 -47q-81 0 -126.5 47t-45.5 132q0 42 13 75t36 55.5t54.5 34t68.5 11.5q79 0 125.5 -45.5t46.5 -130.5zM226 511q0 35 -7 54.5t-30 19.5q-22 0 -29 -19.5t-7 -55.5q0 -37 7 -58.5t29 -21.5q23 0 30 21.5t7 59.5zM796 161q0 -85 -47 -132 t-125 -47q-81 0 -126.5 47t-45.5 132q0 42 13 75t36 55.5t54.5 34t68.5 11.5q79 0 125.5 -45.5t46.5 -130.5zM661 162q0 35 -7 54.5t-30 19.5q-22 0 -29 -19.5t-7 -55.5q0 -37 7 -58.5t29 -21.5q23 0 30 21.5t7 59.5zM301 0h-149l324 600q10 19 19.5 34.5t22.5 27t31.5 17.5 t46.5 6q19 0 36 -2.5t31 -9.5z" />
<glyph unicode="&#x26;" horiz-adv-x="808" d="M752 22q-38 -19 -69 -27t-63 -8q-45 0 -72 17t-44 37q-36 -24 -88.5 -41.5t-119.5 -17.5t-114.5 17t-78 46t-44.5 68t-14 83q0 49 15 86t39 64t53 45t56 29q-13 20 -22.5 42t-9.5 57q0 37 16.5 67t45.5 51t69 32.5t88 11.5q54 0 88 -8.5t60 -22.5q29 -16 35.5 -33 t6.5 -32q0 -14 -14.5 -42.5t-32.5 -54.5q-42 26 -65 34t-38 8q-21 0 -32.5 -9.5t-11.5 -23.5q0 -12 6 -25t15 -25l116 -155q13 28 19.5 62t9.5 76h221v-117h-81q-7 -45 -23 -82.5t-39 -66.5zM313 129q27 0 48.5 7.5t39.5 20.5l-111 141q-19 -9 -37.5 -32t-18.5 -58 q0 -34 21 -56.5t58 -22.5z" />
<glyph unicode="'" horiz-adv-x="201" d="M40 677q20 5 32.5 6t25.5 1q37 0 53.5 -21.5t16.5 -56.5l-10 -200h-118v271z" />
<glyph unicode="(" horiz-adv-x="372" d="M40 308q0 51 7.5 101t22 95.5t35.5 85t48 68.5q25 26 57 42.5t71 16.5q20 0 42.5 -5t38.5 -12q-19 -32 -38.5 -68.5t-36 -83.5t-27 -106.5t-10.5 -135.5q0 -91 19 -166t42 -129q13 -32 28.5 -60t32.5 -54q-26 -13 -46.5 -17t-48.5 -4q-42 0 -68 13.5t-42 29.5 q-18 17 -40 50t-41.5 82t-32.5 113t-13 144z" />
<glyph unicode=")" horiz-adv-x="372" d="M332 308q0 -80 -13 -144t-32.5 -113t-41.5 -82t-40 -50q-16 -16 -42 -29.5t-68 -13.5q-28 0 -48.5 4t-46.5 17q33 49 61 114q23 54 42 129t19 166q0 76 -10.5 135.5t-27 106.5t-36 83.5t-38.5 68.5q16 7 38.5 12t42.5 5q39 0 71 -16.5t57 -42.5q27 -29 48 -68.5t35.5 -85 t22 -95.5t7.5 -101z" />
<glyph unicode="*" horiz-adv-x="402" d="M92 613q3 -2 9.5 -7t11.5 -10l31 -28q18 -15 18 -30q0 -4 -5 -16q-9 -16 -28 -16q-9 0 -19 3l-45 14q-6 2 -12 4.5t-8 4.5q-8 5 -14 12.5t-6 18.5q0 14 10 30q8 14 17.5 20t18.5 6q10 0 21 -6zM110 483q9 4 23 4q10 0 19 -10t9 -23q0 -16 -17 -30l-34 -32 q-11 -10 -18 -14.5t-20 -4.5q-9 0 -19 6t-19 22t-9 28q0 19 14 27.5t31 13.5zM154 343q0 4 1 12.5t3 14.5l9 41q3 14 10 24t23 10q17 0 24.5 -10t10.5 -24l11 -46q1 -7 1.5 -13.5t0.5 -8.5q0 -15 -9.5 -27t-38.5 -12q-26 0 -36 11.5t-10 27.5zM310 379q-3 2 -9.5 7t-11.5 10 l-31 28q-18 15 -18 30q0 4 5 16q9 16 28 16q8 0 19 -3l45 -14q6 -2 12 -4.5t8 -4.5q8 -5 14 -12.5t6 -18.5q0 -14 -10 -30q-8 -14 -17.5 -20t-18.5 -6q-11 0 -21 6zM357 532q-3 -2 -11 -5t-14 -5l-40 -13q-9 -4 -21 -4q-18 0 -25 16q-5 12 -5 17q0 16 17 30l34 32 q5 5 10.5 8t7.5 5q9 6 20 6q9 0 19 -6t19 -22q9 -17 9 -28q0 -20 -20 -31zM248 649q0 -4 -1 -12.5t-3 -13.5l-9 -42q-3 -14 -10 -24t-23 -10q-17 0 -24.5 10.5t-10.5 24.5l-10 45q-2 7 -2.5 13t-0.5 9q0 15 9.5 27t38.5 12q26 0 36 -11.5t10 -27.5z" />
<glyph unicode="+" horiz-adv-x="600" d="M384 252v-178h-169v178h-162v160h162v181h169v-181h163v-160h-163z" />
<glyph unicode="," horiz-adv-x="285" d="M230 57q0 -42 -12 -80t-40 -69q-19 -22 -42 -36t-45 -14t-38 12.5t-23 32.5q11 4 23 11t22.5 16t17 21t6.5 27q0 16 -8.5 27t-18 21.5t-18 24.5t-8.5 37q0 13 5 27.5t16 26.5t28 20t40 8q25 0 43 -10t29.5 -25.5t17 -36t5.5 -41.5z" />
<glyph unicode="-" horiz-adv-x="441" d="M146 212q-52 0 -75 26.5t-23 64.5q0 32 3 64h235q48 0 77 -18.5t29 -67.5q0 -16 -0.5 -34.5t-1.5 -34.5h-244z" />
<glyph unicode="." horiz-adv-x="300" d="M245 79q0 -42 -25 -68t-70 -26t-70 26t-25 68t26.5 67t68.5 25t68.5 -25t26.5 -67z" />
<glyph unicode="/" horiz-adv-x="428" d="M181 0h-181l213 580q7 20 16 37.5t23.5 30.5t35.5 20.5t53 7.5q19 0 40 -2.5t44 -9.5z" />
<glyph unicode="0" horiz-adv-x="590" d="M562 328q0 -165 -64.5 -254t-201.5 -89q-139 0 -204 85.5t-65 257.5q0 79 16 142.5t49 108t84.5 68.5t122.5 24q70 0 120 -23t82 -67.5t46.5 -108t14.5 -144.5zM359 328q0 53 -3.5 89.5t-11 59t-19.5 32t-28 9.5q-18 0 -30 -9.5t-19.5 -32t-10.5 -59t-3 -89.5 q0 -105 14 -147.5t49 -42.5q16 0 28 9.5t19.5 32t11 59t3.5 89.5z" />
<glyph unicode="1" horiz-adv-x="590" d="M248 0v433l-116 -56q-19 29 -35.5 59.5t-16.5 56.5t10.5 39.5t40.5 29.5l149 78q21 11 41 18t47 7q28 0 47 -6.5t30 -13.5v-645h-197z" />
<glyph unicode="2" horiz-adv-x="590" d="M50 0v133q20 15 43.5 35.5t49 43.5t51 48.5t49.5 50.5q34 36 53 67.5t19 67.5q0 39 -23.5 54t-50.5 15q-40 0 -77.5 -19t-67.5 -44q-27 31 -45 58.5t-18 47.5q0 16 8.5 28t23.5 23q14 10 34 21t46.5 20t59.5 15t74 6q48 0 91 -10.5t75.5 -34.5t51.5 -62.5t19 -93.5 q0 -36 -10 -69.5t-27.5 -64.5t-40.5 -60t-49 -55q-18 -18 -36 -35.5t-37 -33.5h115q52 0 79.5 -22t27.5 -70q0 -14 -0.5 -28t-1.5 -32h-486z" />
<glyph unicode="3" horiz-adv-x="590" d="M513 199q0 -48 -16 -87t-48 -67.5t-81 -44t-116 -15.5q-73 0 -115.5 13t-69.5 28q-21 11 -33 28.5t-12 34.5q0 20 10 45t40 71q29 -26 71 -47t93 -21q34 0 54.5 17.5t20.5 51.5q0 22 -7.5 35t-18.5 20t-24.5 9.5t-26.5 2.5h-71v138h70q24 0 43.5 15t19.5 43t-18 40 t-47 12q-38 0 -73 -15t-80 -47q-27 31 -42.5 55t-15.5 46q0 19 10.5 32t24.5 23q29 20 81.5 38t128.5 18q61 0 105.5 -13t73 -36t42 -54t13.5 -67q0 -60 -26.5 -95.5t-63.5 -55.5q45 -18 74.5 -54t29.5 -97z" />
<glyph unicode="4" horiz-adv-x="590" d="M32 143v122l213 322q12 18 24.5 32t30 24.5t40 16t54.5 5.5q29 0 55.5 -7.5t37.5 -16.5v-372h29q32 0 44.5 -10t12.5 -36q0 -14 -1 -31t-6 -49h-79v-143h-194v143h-261zM293 275v176h-6l-118 -176h124z" />
<glyph unicode="5" horiz-adv-x="590" d="M110 663h400q2 -20 3 -34t1 -31t-5 -33.5t-17 -30t-32.5 -22t-51.5 -8.5h-152l-10 -76q20 4 39 6t37 2q97 0 154 -51t57 -154q0 -49 -15 -93.5t-46.5 -78.5t-81 -54t-118.5 -20q-44 0 -77.5 5.5t-58 13t-40.5 15.5t-25 14q-15 9 -26.5 23.5t-11.5 31.5q0 18 13 49.5 t41 73.5q14 -11 33 -23.5t40.5 -23t45.5 -17t48 -6.5q34 0 55.5 19.5t21.5 62.5q0 23 -8 37.5t-19.5 22.5t-25.5 10.5t-26 2.5q-32 0 -56 -6.5t-51 -20.5l-74 30z" />
<glyph unicode="6" horiz-adv-x="590" d="M552 241q0 -65 -19 -113t-53 -80t-79.5 -47.5t-97.5 -15.5q-65 0 -114.5 21t-82.5 59.5t-50 93.5t-17 124q0 103 30 176t78 119t108 67.5t120 21.5q34 0 56 -5t35 -15t17.5 -25t4.5 -34q0 -15 -2.5 -35.5t-4.5 -35.5q-20 4 -33 5t-30 1q-23 0 -46.5 -4.5t-44.5 -15.5 t-39 -29.5t-30 -46.5q22 14 50.5 19.5t51.5 5.5q48 0 84 -17t60 -46.5t36 -67.5t12 -80zM349 231q0 49 -16 71t-45 22q-7 0 -20.5 -1t-21.5 -3q-2 -15 -3 -30.5t-1 -32.5q0 -21 2.5 -42.5t9 -38t18 -27t30.5 -10.5q20 0 33.5 22t13.5 70z" />
<glyph unicode="7" horiz-adv-x="590" d="M288 0h-211l260 493h-279q-4 19 -6.5 39t-2.5 45q0 39 28 62.5t85 23.5h335q43 0 55.5 -13.5t12.5 -48.5v-62z" />
<glyph unicode="8" horiz-adv-x="590" d="M554 194q0 -56 -18.5 -95.5t-52.5 -64.5t-82 -37t-106 -12q-128 0 -194 48t-66 148q0 33 9 60t24 47.5t34 35t39 22.5q-40 20 -62.5 54.5t-22.5 85.5q0 45 17.5 79.5t49 58t75.5 35.5t97 12t97 -11.5t75.5 -34t48.5 -57.5t17 -81q0 -54 -23.5 -87t-61.5 -52 q45 -17 75.5 -57t30.5 -97zM355 198q0 70 -60 70q-29 0 -45.5 -18t-16.5 -52q0 -37 17.5 -54t44.5 -17q26 0 43 17.5t17 53.5zM342 473q0 42 -14.5 57t-32.5 15t-32.5 -15.5t-14.5 -52.5q0 -35 13 -52.5t34 -17.5q20 0 33.5 15.5t13.5 50.5z" />
<glyph unicode="9" horiz-adv-x="590" d="M41 415q0 65 19 113t53 80t79 47.5t98 15.5q65 0 114.5 -21t82.5 -60t49.5 -95t16.5 -126q0 -103 -29.5 -176t-77 -119t-107.5 -67.5t-121 -21.5q-35 0 -56.5 5t-34.5 15t-17.5 24.5t-4.5 34.5q0 15 2.5 35.5t4.5 35.5q20 -4 33 -5t30 -1q23 0 46.5 4.5t44.5 15.5 t39 29.5t30 46.5q-22 -14 -50.5 -19.5t-51.5 -5.5q-48 0 -84 18t-60 47.5t-36 68.5t-12 81zM244 421q0 -49 16 -71.5t45 -22.5q21 0 41 5q2 15 3 30.5t1 32.5q0 24 -2.5 46t-9.5 39t-18 27t-29 10q-20 0 -33.5 -24t-13.5 -72z" />
<glyph unicode=":" horiz-adv-x="300" d="M245 79q0 -42 -25 -68t-70 -26t-70 26t-25 68t26.5 67t68.5 25t68.5 -25t26.5 -67zM245 387q0 -42 -25 -68t-70 -26t-70 26t-25 68t26.5 67t68.5 25t68.5 -25t26.5 -67z" />
<glyph unicode=";" horiz-adv-x="295" d="M230 57q0 -42 -12 -80t-40 -69q-19 -22 -42 -36t-45 -14t-38 12.5t-23 32.5q11 4 23 11t22.5 16t17 21t6.5 27q0 16 -8.5 27t-18 21.5t-18 24.5t-8.5 37q0 13 5 27.5t16 26.5t28 20t40 8q25 0 43 -10t29.5 -25.5t17 -36t5.5 -41.5zM241 387q0 -42 -25 -68t-70 -26t-70 26 t-25 68t26.5 67t68.5 25t68.5 -25t26.5 -67z" />
<glyph unicode="&#x3c;" horiz-adv-x="600" d="M547 58l-494 184v159l494 176v-163l-262 -90l262 -96v-170z" />
<glyph unicode="=" horiz-adv-x="600" d="M53 366v160h494v-160h-494zM53 127v160h494v-160h-494z" />
<glyph unicode="&#x3e;" horiz-adv-x="600" d="M53 228l262 96l-262 90v163l494 -176v-159l-494 -184v170z" />
<glyph unicode="?" horiz-adv-x="487" d="M228 681q46 0 87 -11t71.5 -32t48 -53t17.5 -74q0 -33 -8 -58t-21.5 -44.5t-30.5 -35t-34 -29.5q-27 -22 -46.5 -43t-19.5 -56q0 -22 4 -42q-9 -2 -20 -3t-22 -1q-22 0 -45 4.5t-41.5 15t-30.5 28.5t-12 44q0 40 21 66t50 52q20 19 35 37.5t15 41.5q0 26 -16 35t-41 9 q-23 0 -54 -12.5t-63 -35.5q-27 31 -39.5 53.5t-12.5 37.5q0 16 6 29.5t26 28.5t62.5 31.5t113.5 16.5zM314 77q0 -42 -25.5 -67t-70.5 -25t-70.5 25t-25.5 67t25.5 66.5t70.5 24.5q43 0 69.5 -24.5t26.5 -66.5z" />
<glyph unicode="@" horiz-adv-x="799" d="M516 78q-13 -3 -31.5 -4.5t-32.5 -1.5q-45 0 -73.5 20t-28.5 63v46q-22 0 -45.5 -4t-43 -15t-32 -30.5t-12.5 -50.5q0 -15 6.5 -33.5t23 -35t46 -28t74.5 -11.5q132 0 191 71t59 207q0 64 -20 112.5t-56.5 80.5t-89 48.5t-117.5 16.5q-43 0 -82 -8.5t-73.5 -21.5 t-63 -29.5t-49.5 -32.5q-21 20 -33.5 38.5t-12.5 35.5t7.5 28t17.5 19q7 5 28 18.5t57.5 28t89 25.5t122.5 11q103 0 179 -29t126 -79t75 -117.5t25 -143.5q0 -87 -27 -160t-77.5 -125.5t-123.5 -81.5t-166 -29q-75 0 -130 16.5t-91.5 46t-54.5 70.5t-18 90q0 43 15 75 t39.5 54t55.5 35.5t63 21.5t62 10.5t53 2.5q0 35 -18.5 49t-47.5 14q-62 0 -133 -40q-36 36 -36 62q0 14 9 26.5t30 23.5q26 13 65 23.5t97 10.5q91 0 142 -40.5t51 -125.5v-94q0 -33 2 -69.5t8 -59.5z" />
<glyph unicode="A" horiz-adv-x="670" d="M470 0l-55 158h-166l-51 -158h-198l215 655q19 8 51 14.5t70 6.5q16 0 36 -2t39 -11t35.5 -27t27.5 -49l196 -587h-200zM353 412q-5 21 -11.5 50.5t-7.5 49.5h-3q-2 -21 -8 -51t-11 -48l-35 -127h109z" />
<glyph unicode="B" horiz-adv-x="601" d="M576 202q0 -60 -21.5 -99t-60.5 -62t-93 -32t-118 -9h-228v663q63 7 114.5 10t87.5 3q82 0 138 -13t90 -36t48.5 -56.5t14.5 -73.5q0 -51 -24 -87t-66 -53q22 -7 43.5 -19t38 -31t26.5 -45t10 -60zM288 139q39 0 61.5 18t22.5 56q0 32 -17 50.5t-62 18.5h-37v-143h32z M344 483q0 26 -15 42.5t-48 16.5q-6 0 -11.5 -0.5t-13.5 -1.5v-131h26q33 0 47.5 23t14.5 51z" />
<glyph unicode="C" horiz-adv-x="596" d="M545 36q-6 -6 -19.5 -15t-35 -18t-53 -15t-73.5 -6q-84 0 -146.5 25.5t-103.5 72t-61 110.5t-20 141q0 76 19.5 140.5t59.5 111.5t102 74t146 27q39 0 70 -6t55 -15t41 -19t27 -19q11 -10 23 -25.5t12 -34.5q0 -20 -18.5 -46.5t-47.5 -54.5q-35 32 -65.5 48t-71.5 16 t-69 -17t-45 -44t-25 -61t-8 -68q0 -38 7.5 -74t24.5 -64t45.5 -45t69.5 -17q40 0 69 13.5t61 42.5q8 -9 18 -21.5t19 -26t15 -28t6 -27.5q0 -30 -28 -55z" />
<glyph unicode="D" horiz-adv-x="656" d="M621 350q0 -71 -18.5 -134.5t-58 -111.5t-101 -76t-147.5 -28h-241v662q78 10 128.5 12t82.5 2q105 0 173.5 -26t109 -70.5t56.5 -104t16 -125.5zM417 348q0 36 -6 68t-21 56.5t-41.5 38.5t-66.5 14h-12t-13 -1v-373h24q44 0 71 18.5t41.5 47.5t19 64t4.5 67z" />
<glyph unicode="E" horiz-adv-x="553" d="M417 152q34 0 56 -8.5t34 -22.5t16.5 -31t4.5 -34t-0.5 -28t-1.5 -28h-471v671h456q2 -20 3 -31.5t1 -28.5t-5 -33.5t-17 -30t-33 -22t-53 -8.5h-150v-101h193v-153h-193v-111h160z" />
<glyph unicode="F" horiz-adv-x="533" d="M256 416h197v-153h-197v-263h-201v671h460q2 -20 3 -32t1 -29t-5 -33.5t-17.5 -29.5t-33.5 -21.5t-53 -8.5h-154v-101z" />
<glyph unicode="G" horiz-adv-x="663" d="M392 133q20 0 37 3v226h88q37 0 57 -8.5t30 -21.5t12 -30t2 -33v-223q-10 -9 -29.5 -20t-49.5 -20.5t-72 -16.5t-96 -7q-86 0 -149.5 26t-105.5 72.5t-62.5 110.5t-20.5 140q0 74 21 138.5t64 112t107 75t150 27.5q38 0 70 -5.5t57.5 -14t44 -18.5t29.5 -18 q14 -11 23.5 -25t9.5 -34q0 -22 -18 -49t-47 -55q-34 30 -69 46.5t-83 16.5q-44 0 -73.5 -17t-47.5 -44t-25.5 -61.5t-7.5 -70.5q0 -39 7.5 -75.5t25.5 -64.5t47.5 -45t73.5 -17z" />
<glyph unicode="H" horiz-adv-x="675" d="M256 417h163v252q26 5 46.5 6t30.5 1q19 0 41 -3.5t40.5 -14t30.5 -30.5t12 -52v-576h-201v261h-163v-261h-201v669q26 5 46.5 6t30.5 1q20 0 42 -3.5t40 -14t30 -30.5t12 -52v-159z" />
<glyph unicode="I" horiz-adv-x="311" d="M256 0h-201v669q26 5 46.5 6t30.5 1q20 0 42 -3.5t40 -14t30 -30.5t12 -52v-576z" />
<glyph unicode="J" horiz-adv-x="312" d="M55 669q26 5 46.5 6t30.5 1q20 0 42 -3.5t40.5 -14t30.5 -30.5t12 -52v-510q0 -14 -1 -40t-3 -46q-3 -39 -20 -76.5t-46 -66.5t-69.5 -46.5t-89.5 -17.5q-44 0 -64 17.5t-28 57.5q-3 14 -4 29.5t-1 32.5q60 3 92 28t32 85v646z" />
<glyph unicode="K" horiz-adv-x="662" d="M256 0h-201v669q26 5 46.5 6t30.5 1q20 0 42 -3.5t40 -14t30 -30.5t12 -52v-576zM311 193q-14 22 -24 40t-17 35.5t-10 35.5t-3 40q0 38 16 73t42 73l75 109q12 17 24 31t26.5 24.5t32.5 16t41 5.5q22 0 44.5 -8t40.5 -17q23 -11 41 -24l-184 -277l203 -332 q-38 -19 -72.5 -25t-70.5 -6q-45 0 -73 20t-45 48z" />
<glyph unicode="L" horiz-adv-x="531" d="M55 669q26 5 47 6t31 1q20 0 42 -3.5t40 -14t30 -30.5t12 -52v-416h146q34 0 55.5 -8.5t33 -22.5t15.5 -31t4 -33q0 -14 -1 -29.5t-2 -35.5h-453v669z" />
<glyph unicode="M" horiz-adv-x="816" d="M189 676q48 0 70.5 -15t34.5 -47l113 -310h4l110 302q15 42 41 56t68 14q31 0 59 -3.5t42 -8.5l47 -664h-191l-20 336h-4l-90 -213h-134l-84 206h-4l-21 -329h-192l48 664q13 4 42.5 8t60.5 4z" />
<glyph unicode="N" horiz-adv-x="676" d="M425 312v357q23 5 42.5 6t29.5 1q20 0 42 -3.5t40 -14t30 -30t12 -51.5v-577h-162l-209 332v-332h-195v669q14 2 38 4.5t50 2.5q48 0 72.5 -15.5t40.5 -44.5z" />
<glyph unicode="O" horiz-adv-x="708" d="M673 336q0 -74 -18.5 -138.5t-57.5 -112.5t-100.5 -75.5t-146.5 -27.5t-145 27.5t-98.5 75t-56 112t-17.5 138.5q0 71 19.5 134.5t59.5 111t101 75.5t145 28q82 0 142 -26.5t98 -73t56.5 -110t18.5 -138.5zM468 335q0 38 -6 73t-19.5 61.5t-34.5 42t-51 15.5 q-32 0 -54.5 -15.5t-36.5 -42t-20.5 -61.5t-6.5 -73q0 -39 6.5 -74.5t20 -62.5t35.5 -43t53 -16t53 16t35.5 43t19.5 62.5t6 74.5z" />
<glyph unicode="P" horiz-adv-x="582" d="M557 461q0 -66 -21.5 -113t-59 -77.5t-88 -44.5t-107.5 -14h-24v-212h-202v665q53 5 108 8t93 3q156 0 228.5 -54.5t72.5 -160.5zM353 453q0 86 -74 86h-11.5t-11.5 -1v-189h17q42 0 61 28t19 76z" />
<glyph unicode="Q" horiz-adv-x="708" d="M335 -95q11 18 32.5 33.5t49.5 15.5q33 0 54.5 -14.5t46.5 -33t59.5 -34.5t93.5 -19q-3 -17 -8 -35.5t-16.5 -34.5t-31.5 -26t-52 -10q-38 0 -74.5 15t-67.5 38.5t-53.5 51t-32.5 53.5zM673 336q0 -74 -18.5 -138.5t-57.5 -112.5t-100.5 -75.5t-146.5 -27.5t-145 27.5 t-98.5 75t-56 112t-17.5 138.5q0 71 19.5 134.5t59.5 111t101 75.5t145 28q82 0 142 -26.5t98 -73t56.5 -110t18.5 -138.5zM468 335q0 38 -6 73t-19.5 61.5t-34.5 42t-51 15.5q-32 0 -54.5 -15.5t-36.5 -42t-20.5 -61.5t-6.5 -73q0 -39 6.5 -74.5t20 -62.5t35.5 -43t53 -16 t53 16t35.5 43t19.5 62.5t6 74.5z" />
<glyph unicode="R" horiz-adv-x="614" d="M562 466q0 -40 -9.5 -72t-24 -57t-33 -42.5t-36.5 -27.5l147 -252q-23 -11 -50.5 -19.5t-64.5 -8.5q-50 0 -81.5 14t-55.5 53l-84 164h-13v-218h-202v665q53 6 108 8.5t93 2.5q156 0 231 -51t75 -159zM350 446q0 45 -18 69t-51 24q-5 0 -12 -0.5t-13 -1.5v-190h25 q38 0 53.5 28.5t15.5 70.5z" />
<glyph unicode="S" horiz-adv-x="538" d="M70 195q38 -26 79.5 -44t89.5 -18q68 0 68 55q0 15 -8 26.5t-21.5 20.5t-32 16t-39.5 14q-32 10 -64.5 24t-59.5 37.5t-44 59t-17 88.5q0 54 21.5 93.5t57 65.5t82 38.5t96.5 12.5q69 0 117.5 -15.5t68.5 -28.5t30.5 -27t10.5 -34t-11.5 -42.5t-37.5 -57.5 q-18 13 -39 22.5t-41.5 16.5t-39.5 10.5t-33 3.5q-33 0 -51 -11t-18 -31q0 -21 20.5 -33.5t56.5 -24.5q33 -11 69 -25t65.5 -37t48.5 -58.5t19 -90.5q0 -60 -19.5 -105t-55 -75t-84 -44.5t-106.5 -14.5q-72 0 -121 13.5t-76 30.5q-18 11 -27 27t-9 34q0 24 17 53t38 55z" />
<glyph unicode="T" horiz-adv-x="607" d="M204 508h-192q-2 20 -3 34.5t-1 31.5q0 16 6 33.5t19.5 31.5t35 23t53.5 9h472q2 -20 3 -36.5t1 -33.5t-5 -33.5t-17.5 -29.5t-33.5 -21.5t-53 -8.5h-83v-508h-202v508z" />
<glyph unicode="U" horiz-adv-x="654" d="M251 270q0 -45 8 -74q7 -21 23 -37t48 -16q24 0 41.5 11.5t25.5 40.5q3 13 4.5 32.5t1.5 42.5v399q26 5 46.5 6t30.5 1q19 0 41 -3.5t40.5 -14t30.5 -30.5t12 -52v-300q0 -20 -1 -42t-3 -45q-4 -42 -21.5 -79t-50.5 -65t-82.5 -44t-117.5 -16q-67 0 -115.5 13t-81.5 39.5 t-51.5 65t-25.5 89.5q-2 19 -3 43t-1 41v393q26 5 46.5 6t30.5 1q20 0 42 -3.5t40 -14t30 -30.5t12 -52v-306z" />
<glyph unicode="V" horiz-adv-x="656" d="M437 -5h-223l-214 666q7 3 21.5 5.5t31.5 5t33.5 3.5t28.5 1q103 0 122 -85l88 -381h7l92 375q10 42 39.5 66.5t80.5 24.5q26 0 53 -4t59 -12z" />
<glyph unicode="W" horiz-adv-x="927" d="M713 -5h-153l-86 262h-4l-90 -262h-148l-232 660q10 4 24.5 8t29.5 7t29.5 4.5t25.5 1.5q52 0 79 -20t38 -58l97 -328h4l63 195l-52 197q30 6 55.5 10t46.5 4q52 0 77.5 -21t34.5 -60l76 -325h5l72 324q9 40 36.5 61t78.5 21q36 0 61.5 -5.5t45.5 -12.5z" />
<glyph unicode="X" horiz-adv-x="625" d="M309 164l-84 -164h-225l188 330l-162 311q15 7 33 13.5t36 11t35 7.5t30 3q42 0 70.5 -18.5t44.5 -61.5l42 -112l47 113q14 35 44 57t78 22q29 0 62 -8.5t64 -25.5l-173 -308l181 -324q-27 -11 -59.5 -17t-57.5 -6q-57 0 -88 20.5t-50 54.5z" />
<glyph unicode="Y" horiz-adv-x="629" d="M414 231v-231h-202v226l-212 417q26 14 61.5 23.5t62.5 9.5q48 0 73.5 -18t39.5 -53l78 -187l77 189q13 31 38.5 50t74.5 19q26 0 59 -7t65 -18z" />
<glyph unicode="Z" horiz-adv-x="598" d="M28 0v132l285 385h-286q-1 17 -1.5 30.5t-0.5 30.5q0 16 5 33t18 30t34.5 21.5t53.5 8.5h348q37 0 51 -13t14 -42v-79l-286 -385h198q34 0 56 -8.5t34.5 -22t17 -30.5t4.5 -33q0 -17 -0.5 -29t-1.5 -29h-543z" />
<glyph unicode="[" horiz-adv-x="374" d="M55 -136v853h284v-140h-109v-574h109v-139h-284z" />
<glyph unicode="\" horiz-adv-x="428" d="M3 664q23 7 44 9.5t40 2.5q32 0 53.5 -7.5t35.5 -20.5t22.5 -30.5t16.5 -37.5l213 -580h-181z" />
<glyph unicode="]" horiz-adv-x="374" d="M35 -136v139h109v574h-109v140h284v-853h-284z" />
<glyph unicode="^" horiz-adv-x="578" d="M392 263l-103 251l-103 -251h-161l185 404h158l185 -404h-161z" />
<glyph unicode="_" horiz-adv-x="460" d="M0 -210v110h460v-110h-460z" />
<glyph unicode="`" horiz-adv-x="500" d="M120 682q19 17 44 34.5t49 17.5q26 0 42 -14t29 -31l86 -115q-14 -11 -33.5 -23t-38.5 -12q-17 0 -31 5t-28 19z" />
<glyph unicode="a" horiz-adv-x="524" d="M484 109q0 -25 4 -54.5t11 -51.5q-14 -4 -25 -6.5t-21.5 -4t-22 -2t-25.5 -0.5q-81 0 -94 46q-17 -17 -49.5 -31t-83.5 -14q-31 0 -59.5 8t-50.5 25.5t-35 46t-13 69.5q0 58 30.5 92.5t74 52.5t90 23t79.5 5v14q0 28 -18.5 35.5t-44.5 7.5q-35 0 -69 -9.5t-76 -29.5 q-19 23 -28.5 45t-9.5 33q0 15 10 28t41 29q27 14 73 22t94 8q117 0 167.5 -46t50.5 -146v-195zM297 224q-19 -2 -36 -6t-29.5 -11.5t-20 -19.5t-7.5 -31q0 -23 12.5 -35.5t34.5 -12.5q18 0 32 8t14 24v84z" />
<glyph unicode="b" horiz-adv-x="566" d="M240 473q11 7 37 15t63 8q36 0 72 -10.5t64.5 -37t46.5 -72.5t18 -116q0 -82 -16.5 -135t-43.5 -83.5t-62 -42.5t-72 -12q-32 0 -54.5 7t-37 16t-21.5 17t-8 11q0 -16 -6.5 -27t-25.5 -11h-154v702q24 5 43.5 6t32.5 1q24 0 46.5 -4.5t39.5 -16t27.5 -32t10.5 -52.5v-131 zM332 261q0 48 -13.5 75.5t-49.5 27.5q-12 0 -19 -1.5t-10 -2.5v-215q6 -4 15.5 -5.5t17.5 -1.5q17 0 28.5 9.5t18 26t9.5 39t3 48.5z" />
<glyph unicode="c" horiz-adv-x="465" d="M320 124q28 0 51.5 11t44.5 29q7 -9 14.5 -20t13.5 -23t10 -24t4 -22q0 -17 -7.5 -31t-30.5 -28q-22 -14 -57 -22.5t-80 -8.5q-41 0 -86.5 10.5t-83.5 39t-63 78.5t-25 130q0 75 25.5 123.5t64 77.5t83.5 40.5t84 11.5q35 0 69.5 -7t60.5 -22q24 -14 36 -29.5t12 -37.5 q0 -18 -12 -43t-29 -51q-28 23 -51.5 34.5t-55.5 11.5q-40 0 -62.5 -28t-22.5 -77q0 -25 4.5 -47.5t15.5 -39t28.5 -26.5t44.5 -10z" />
<glyph unicode="d" horiz-adv-x="561" d="M371 0q-15 0 -27 7t-12 30q-14 -18 -44.5 -32.5t-76.5 -14.5q-34 0 -67 11t-59.5 38.5t-43 75t-16.5 119.5t15.5 122t41.5 81t60 45t71 14q24 0 43 -5t32.5 -11.5t22 -13t11.5 -9.5v245q24 5 43 6t32 1q24 0 46.5 -4.5t39.5 -16t27.5 -32t10.5 -52.5v-604h-150zM229 237 q0 -24 3 -44.5t10.5 -36t19.5 -24.5t30 -9q12 0 19 1.5t10 2.5v215q-6 4 -15.5 5.5t-17.5 1.5q-34 0 -46.5 -30t-12.5 -82z" />
<glyph unicode="e" horiz-adv-x="515" d="M327 125q40 0 67 12t54 32q13 -20 26 -46t13 -46q0 -17 -9 -32t-32 -29q-22 -13 -59 -22t-94 -9q-41 0 -88 10t-87 39t-66.5 81.5t-26.5 137.5q0 63 21.5 109t56 76t79 44t89.5 14q61 0 104 -18t69.5 -48t38.5 -70t12 -84v-13.5t-0.5 -17.5t-1 -17t-1.5 -12h-267 q5 -38 28 -64.5t74 -26.5zM318 299q0 42 -11.5 57t-37.5 15q-47 0 -47 -72h96z" />
<glyph unicode="f" horiz-adv-x="400" d="M397 535q-16 9 -41 18.5t-55 9.5q-26 0 -44 -13.5t-18 -42.5v-24h148v-149h-148v-334h-199v493q0 10 0.5 20.5t1 20.5t1.5 17q13 81 68 123.5t155 42.5q20 0 42.5 -2.5t43.5 -7.5q36 -9 62 -27t26 -52q0 -15 -12 -40.5t-31 -52.5z" />
<glyph unicode="g" horiz-adv-x="560" d="M520 46q0 -29 -2 -57.5t-10 -54.5q-21 -71 -83.5 -116t-169.5 -45q-61 0 -100.5 8.5t-63.5 21.5q-26 14 -34 31t-8 33q0 17 13.5 45.5t31.5 54.5q23 -18 60.5 -35.5t79.5 -17.5q48 0 72.5 22.5t24.5 81.5v26q-7 -11 -20 -19.5t-28.5 -14.5t-33 -9t-34.5 -3 q-38 0 -72.5 12.5t-60.5 40.5t-41.5 73.5t-15.5 112.5q0 69 15.5 118.5t42 80.5t60.5 45.5t71 14.5q26 0 45.5 -6t33.5 -14t23.5 -18t15.5 -17q13 20 39 32.5t71 12.5q14 0 33.5 -1.5t44.5 -6.5v-432zM228 241q0 -48 13.5 -78t49.5 -30q10 0 18 1.5t11 2.5v205 q-6 4 -15.5 5.5t-17.5 1.5q-34 0 -46.5 -28t-12.5 -80z" />
<glyph unicode="h" horiz-adv-x="555" d="M314 294q0 22 -5 35t-27 13t-31.5 -9.5t-9.5 -20.5v-312h-201v702q24 5 43.5 6t32.5 1q24 0 46 -4.5t39.5 -15.5t28 -31.5t10.5 -51.5v-170q12 20 42.5 40t84.5 20q58 0 93 -30t47 -79q3 -11 4.5 -25t2 -29t1 -29t0.5 -24v-276q-30 -13 -74 -13q-46 0 -71.5 11t-38 29 t-15 41.5t-2.5 49.5v172z" />
<glyph unicode="i" horiz-adv-x="280" d="M240 4q-39 -13 -73 -13q-46 0 -71.5 11t-38 29t-15 41.5t-2.5 49.5v357q30 5 46.5 6t29.5 1q24 0 46.5 -4.5t39.5 -16t27.5 -32t10.5 -52.5v-377zM232 632q0 -43 -28 -68t-70 -25t-70 25t-28 68t28 68.5t70 25.5t70 -25.5t28 -68.5z" />
<glyph unicode="j" horiz-adv-x="280" d="M40 479q24 5 43.5 6t32.5 1q24 0 46.5 -4.5t39.5 -16t27.5 -32t10.5 -52.5v-354q0 -22 -2 -54.5t-9 -58.5q-11 -40 -34.5 -67t-51.5 -43.5t-56.5 -23.5t-50.5 -7q-43 0 -63 16.5t-27 48.5q-3 13 -4.5 27.5t-3.5 39.5q32 3 52 12t31 23t15 32.5t4 40.5v466zM232 632 q0 -43 -28 -68t-70 -25t-70 25t-28 68t28 68.5t70 25.5t70 -25.5t28 -68.5z" />
<glyph unicode="k" horiz-adv-x="597" d="M282 139q-17 23 -27 43q-10 19 -15 43v-225h-200v702q24 5 43.5 6t32.5 1q24 0 46.5 -4.5t39.5 -16t27.5 -32t10.5 -52.5v-322q11 46 44 86l54 69q19 24 42 41.5t63 17.5q23 0 45 -6.5t39 -14.5q10 -5 19 -10t17 -10l-137 -192l162 -247q-66 -27 -121 -27q-47 0 -74 17 t-47 44z" />
<glyph unicode="l" horiz-adv-x="280" d="M40 702q24 5 43.5 6t32.5 1q24 0 46.5 -4.5t39.5 -16t27.5 -32t10.5 -52.5v-600q-39 -13 -73 -13q-46 0 -71.5 11t-38 29t-15 41.5t-2.5 49.5v580z" />
<glyph unicode="m" horiz-adv-x="818" d="M40 478q17 4 35 6t43 2q89 0 112 -50q12 21 42 40.5t85 19.5q48 0 80.5 -19t49.5 -51q13 26 48 48t90 22q63 0 98 -30t47 -79q3 -11 4.5 -25t2 -29t1 -29t0.5 -24v-276q-30 -13 -74 -13q-46 0 -71.5 11t-38 29t-15 41.5t-2.5 49.5v172q0 22 -5 35t-27 13t-28.5 -9.5 t-6.5 -18.5v-314h-201v294q0 22 -5 35t-27 13q-20 0 -28 -9.5t-8 -20.5v-312h-201v478z" />
<glyph unicode="n" horiz-adv-x="555" d="M40 478q17 4 35 6t43 2q45 0 73.5 -13.5t38.5 -36.5q12 21 44.5 40.5t87.5 19.5q63 0 98 -30t47 -79q3 -11 4.5 -25t2 -29t1 -29t0.5 -24v-276q-30 -13 -74 -13q-46 0 -71.5 11t-38 29t-15 41.5t-2.5 49.5v172q0 22 -5 35t-27 13t-31.5 -9.5t-9.5 -20.5v-312h-201v478z " />
<glyph unicode="o" horiz-adv-x="560" d="M535 246q0 -51 -14 -98.5t-44.5 -83.5t-79 -57.5t-118.5 -21.5q-69 0 -117 21t-78.5 56.5t-44.5 82t-14 98.5t16 98.5t48.5 80.5t80.5 54t113 20q69 0 117 -20t78 -54t43.5 -79.5t13.5 -96.5zM336 243q0 45 -12 75t-43 30q-17 0 -28 -9t-18 -24t-9.5 -34t-2.5 -39 q0 -22 2.5 -42t9.5 -35.5t17.5 -24.5t27.5 -9t28 9.5t17 25t8.5 35.5t2.5 42z" />
<glyph unicode="p" horiz-adv-x="566" d="M230 438q17 23 47.5 40.5t81.5 17.5q31 0 63.5 -11.5t59 -39t43 -74t16.5 -115.5q0 -81 -17 -133t-45 -82.5t-62.5 -42t-69.5 -11.5q-26 0 -46 5.5t-34 13t-21 13.5t-8 9v-246h-198v696q17 4 35 6t43 2q91 0 112 -48zM332 257q0 45 -13.5 70.5t-49.5 25.5q-12 0 -19 -1.5 t-10 -2.5v-202q6 -4 15.5 -5.5t17.5 -1.5q34 0 46.5 32.5t12.5 84.5z" />
<glyph unicode="q" horiz-adv-x="560" d="M520 -218h-198v249q-15 -20 -43 -30.5t-62 -10.5q-39 0 -74 12t-61 40t-41.5 75t-15.5 116q0 75 16.5 125.5t43.5 81t61.5 43.5t71.5 13q24 0 44 -6.5t34.5 -15.5t24 -19t13.5 -17q13 20 39.5 34t68.5 14q15 0 34.5 -1.5t43.5 -6.5v-696zM228 234q0 -48 13.5 -78 t49.5 -30q12 0 19 1.5t10 2.5v209q-6 4 -15.5 5.5t-17.5 1.5q-34 0 -46.5 -30t-12.5 -82z" />
<glyph unicode="r" horiz-adv-x="428" d="M40 478q17 4 35 6t43 2q89 0 112 -50q5 9 15 19.5t24.5 19.5t32.5 15t38 6q15 0 29.5 -3t26.5 -9.5t19.5 -17.5t7.5 -27t-4 -35t-10.5 -39t-14.5 -39t-16 -34q-21 17 -40.5 25.5t-42.5 8.5q-26 0 -40 -13t-14 -34v-279h-201v478z" />
<glyph unicode="s" horiz-adv-x="451" d="M225 496q83 0 143 -25q27 -11 44.5 -26.5t17.5 -36.5q0 -18 -11.5 -43t-28.5 -48q-30 23 -63 37.5t-67 14.5q-43 0 -43 -25q0 -16 16 -24.5t40 -14.5t52 -13.5t52 -22.5t40 -41t16 -68q0 -81 -56 -128t-165 -47q-62 0 -96.5 9.5t-54.5 19.5q-26 13 -36 28.5t-10 32.5 q0 26 12.5 51t28.5 49q12 -11 27.5 -20.5t33.5 -17.5t37 -12.5t37 -4.5q26 0 37 8.5t11 21.5q0 15 -16.5 24t-40.5 16t-53 16t-53 24.5t-40.5 41t-16.5 66.5q0 40 17 70t45.5 49.5t65.5 29t78 9.5z" />
<glyph unicode="t" horiz-adv-x="396" d="M49 85q-8 23 -10 45.5t-2 43.5v457q24 5 43.5 6t32.5 1q24 0 46 -4.5t39.5 -16t28 -32t10.5 -51.5v-51h128v-148h-128v-149q0 -28 12 -39t33 -11q18 0 37 8.5t32 19.5q16 -29 26 -52.5t10 -43.5q0 -14 -5 -25t-19 -21q-22 -16 -59.5 -26.5t-85.5 -10.5q-72 0 -112.5 27.5 t-56.5 72.5z" />
<glyph unicode="u" horiz-adv-x="555" d="M515 0h-147q-26 0 -34.5 11t-8.5 40q-12 -21 -44.5 -40.5t-87.5 -19.5q-63 0 -98 30t-47 79q-3 11 -4.5 25t-2 29t-1 29t-0.5 24v272q25 5 44.5 6t32.5 1q24 0 46 -4.5t39.5 -15.5t28 -31.5t10.5 -51.5v-190q0 -22 6.5 -35t28.5 -13t30 9.5t8 20.5v304q25 5 44.5 6 t32.5 1q24 0 46.5 -4.5t39.5 -16t27.5 -32t10.5 -52.5v-381z" />
<glyph unicode="v" horiz-adv-x="530" d="M363 -6h-194l-164 472q25 8 54 14t56 6q29 0 49 -8t32.5 -21.5t19.5 -31.5t11 -39l38 -219h4l41 220q7 42 31.5 70.5t76.5 28.5q31 0 60 -6t47 -14z" />
<glyph unicode="w" horiz-adv-x="770" d="M599 -6h-145l-55 157h-9l-70 -157h-131l-184 472q27 9 57.5 14.5t50.5 5.5q51 0 75 -19t37 -58l63 -192h4l35 80l-44 173q29 9 50 12.5t45 3.5q42 0 61.5 -21t28.5 -63l40 -184h4l46 174q13 48 35.5 71t64.5 23q29 0 55 -6t52 -15z" />
<glyph unicode="x" horiz-adv-x="535" d="M272 363l22 50q14 32 42.5 52.5t70.5 20.5q27 0 56.5 -5t57.5 -15l-137 -227l141 -225q-32 -13 -60 -18.5t-59 -5.5q-43 0 -68 15t-40 44l-32 61l-60 -110h-196l157 236l-149 229q12 4 28.5 8t34 7t33.5 4.5t28 1.5q46 0 70 -21t37 -50z" />
<glyph unicode="y" horiz-adv-x="542" d="M410 -13q-3 -10 -7 -23t-9.5 -26.5t-11 -26.5t-11.5 -22q-35 -63 -86 -89.5t-123 -26.5q-51 0 -85 15.5t-34 59.5q0 17 8 40.5t27 56.5q17 -11 36 -15.5t33 -4.5q36 0 56 17.5t29 65.5h-79l-148 461q22 8 50.5 12.5t54.5 4.5q30 0 51 -8.5t35 -22.5t21.5 -32.5 t11.5 -37.5l44 -220h4l44 221q8 40 35 70t80 30t101 -19z" />
<glyph unicode="z" horiz-adv-x="493" d="M23 0v130l194 202h-188q-2 17 -2.5 29.5t-0.5 29.5q0 27 10.5 45t27.5 28.5t38.5 14.5t44.5 4h239q38 0 58.5 -15t20.5 -55v-45l-207 -215h92q26 0 48.5 -3.5t39 -14t25.5 -29t9 -48.5q0 -17 -0.5 -29t-2.5 -29h-446z" />
<glyph unicode="{" horiz-adv-x="411" d="M284 418q0 -92 -76 -126q76 -34 76 -123v-116q0 -27 16.5 -42t42.5 -15q8 0 16 1t17 4q5 -25 7.5 -45.5t2.5 -29.5q0 -21 -8 -34t-21.5 -20t-30.5 -9.5t-35 -2.5q-55 0 -93 16.5t-62 42.5t-34.5 58.5t-10.5 64.5v130q0 33 -15 46.5t-46 13.5v123q31 0 46 13.5t15 46.5 v120q0 32 10.5 64.5t34.5 58.5t62 42.5t93 16.5q18 0 35 -2.5t30.5 -9.5t21.5 -20t8 -34q0 -9 -2.5 -29.5t-7.5 -45.5q-9 3 -17 4t-16 1q-26 0 -42.5 -15t-16.5 -42v-106z" />
<glyph unicode="|" horiz-adv-x="257" d="M50 -188v982h157v-982h-157z" />
<glyph unicode="}" horiz-adv-x="411" d="M127 524q0 27 -16.5 42t-42.5 15q-8 0 -16 -1t-17 -4q-5 25 -7.5 45.5t-2.5 29.5q0 21 8 34t21.5 20t30.5 9.5t35 2.5q55 0 93 -16.5t62 -42.5t34.5 -58.5t10.5 -64.5v-120q0 -33 15 -46.5t46 -13.5v-123q-31 0 -46 -13.5t-15 -46.5v-130q0 -32 -10.5 -64.5t-34.5 -58.5 t-62 -42.5t-93 -16.5q-18 0 -35 2.5t-30.5 9.5t-21.5 20t-8 34q0 9 2.5 29.5t7.5 45.5q9 -3 17 -4t16 -1q26 0 42.5 15t16.5 42v116q0 89 76 123q-76 34 -76 126v106z" />
<glyph unicode="~" horiz-adv-x="518" d="M498 652q-4 -94 -40 -151t-102 -57q-33 0 -56.5 11t-42 24t-35 24t-36.5 11t-29 -17.5t-12 -52.5h-125q1 43 10.5 81.5t28 66.5t46 44.5t63.5 16.5q33 0 57 -11t42 -23.5t33 -23.5t31 -11q36 0 42 68h125z" />
<glyph unicode="&#xa1;" horiz-adv-x="316" d="M60 383q0 42 25.5 67t70.5 25t70.5 -25t25.5 -67t-25.5 -66.5t-70.5 -24.5q-43 0 -69.5 24.5t-26.5 66.5zM61 240q0 1 15.5 7t47.5 6q46 0 73 -12.5t41 -32.5t18.5 -45.5t4.5 -50.5v-316q-23 -5 -42.5 -6t-33.5 -1q-24 0 -46.5 4.5t-39.5 16t-27.5 32t-10.5 52.5v346z " />
<glyph unicode="&#xa2;" horiz-adv-x="590" d="M381 213q28 0 51.5 11t44.5 29q7 -9 14.5 -20t13.5 -23t10 -24t4 -22q0 -17 -7.5 -31t-30.5 -28q-30 -18 -71 -26v-97h-61v95l-43 3v-98h-61v106q-32 9 -60.5 27t-50.5 47.5t-35 71t-13 98.5q0 53 13.5 92.5t35.5 68t50.5 47t59.5 29.5v102h61v-92q11 2 21.5 2t21.5 1v89 h61v-93q16 -3 31.5 -8t31.5 -14q24 -14 36 -29.5t12 -37.5q0 -18 -12 -43t-29 -51q-28 23 -51.5 34.5t-55.5 11.5q-40 0 -62.5 -28t-22.5 -77q0 -25 4.5 -47.5t15.5 -39t28.5 -26.5t44.5 -10z" />
<glyph unicode="&#xa3;" horiz-adv-x="590" d="M109 0v259h-62v132h62v65q0 59 19 100t52 66.5t76 37t91 11.5q72 0 115 -15t63 -29q17 -12 24.5 -24.5t7.5 -30.5q0 -36 -49 -97q-36 23 -64.5 33t-57.5 10q-30 0 -53.5 -16t-23.5 -55v-56h177v-132h-177v-107h152q32 0 53.5 -7.5t34 -21t18 -32.5t5.5 -41 q0 -11 -0.5 -22.5t-1.5 -27.5h-461z" />
<glyph unicode="&#xa4;" horiz-adv-x="526" d="M500 77l-95 89q-29 -16 -61 -23t-65 -7q-31 0 -61.5 7t-58.5 22l-95 -89l-86 83l96 90q-31 55 -31 119q0 62 28 114l-87 80l90 81l78 -73q29 17 62 25t67 8q35 0 68.5 -8t63.5 -26l87 82l90 -81l-96 -88q14 -26 20 -54t6 -57q0 -68 -31 -120l97 -91zM401 369 q0 26 -8.5 49t-24.5 40t-38 26.5t-49 9.5t-49 -9.5t-37.5 -26.5t-24 -39.5t-8.5 -49.5q0 -26 8.5 -48.5t24.5 -39.5t37.5 -26.5t48.5 -9.5t49 9.5t38 26.5t24.5 39.5t8.5 48.5z" />
<glyph unicode="&#xa5;" horiz-adv-x="590" d="M72 331h76l-143 298q26 14 60.5 23.5t61.5 9.5q48 0 76 -21t39 -56l58 -176l57 176q10 32 38.5 54.5t77.5 22.5q26 0 57.5 -7t63.5 -18l-152 -306h87v-57h-130v-65h130v-57h-130v-152h-202v152h-125v57h125v65h-125v57z" />
<glyph unicode="&#xa6;" horiz-adv-x="257" d="M50 -188v403h157v-403h-157zM207 419h-157v375h157v-375z" />
<glyph unicode="&#xa7;" horiz-adv-x="521" d="M410 409q31 -9 43.5 -30t12.5 -46q0 -18 -5.5 -36t-13.5 -33l-235 67q-77 22 -119.5 62.5t-42.5 114.5q0 45 18.5 78t48.5 55t68 32.5t78 10.5q63 0 102.5 -10t64.5 -26q20 -13 26 -24t6 -26q0 -9 -4 -20.5t-10 -24.5t-13.5 -25.5t-14.5 -22.5q-32 23 -65.5 35t-62.5 12 q-10 0 -21 -2t-20.5 -7.5t-15.5 -14.5t-6 -23q0 -20 11 -34t47 -25zM106 171q-31 9 -43.5 30t-12.5 46q0 18 5.5 36t13.5 33l235 -67q77 -22 119.5 -62.5t42.5 -114.5q0 -45 -18.5 -78t-48.5 -55t-68 -32.5t-78 -10.5q-63 0 -102.5 10t-64.5 26q-20 13 -26 24t-6 26 q0 9 4 20.5t10 24.5t13.5 25.5t14.5 22.5q32 -23 65.5 -35t62.5 -12q10 0 21 2t20.5 7.5t15.5 14.5t6 23q0 20 -11 34t-47 25z" />
<glyph unicode="&#xa8;" horiz-adv-x="500" d="M451 629q0 -37 -24.5 -58.5t-59.5 -21.5t-59.5 21.5t-24.5 58.5q0 36 24.5 58t59.5 22t59.5 -22t24.5 -58zM217 629q0 -37 -24.5 -58.5t-59.5 -21.5t-59.5 21.5t-24.5 58.5q0 36 24.5 58t59.5 22t59.5 -22t24.5 -58z" />
<glyph unicode="&#xa9;" horiz-adv-x="814" d="M764 317q0 -75 -25.5 -142.5t-72 -118.5t-113 -81t-147.5 -30q-86 0 -152 29t-111.5 79t-69 118t-23.5 146q0 75 25.5 142.5t72 118.5t112.5 81t147 30t147 -30t112.5 -81t72 -118.5t25.5 -142.5zM701 317q0 60 -21 116.5t-59 99.5t-92 69t-121 26t-121 -26t-92.5 -69 t-59 -99.5t-20.5 -116.5t19.5 -116.5t56.5 -100t91.5 -69.5t125.5 -26q67 0 121 26t92 69.5t59 100t21 116.5zM551 122q-4 -4 -13 -10t-24 -12t-36 -10.5t-49 -4.5q-57 0 -100.5 17.5t-73 48.5t-44.5 74t-15 95q0 51 14.5 94t43.5 75t72 50t100 18q54 0 85 -14t45 -26 q8 -7 16 -17t8 -23q0 -14 -12.5 -35.5t-32.5 -40.5q-23 21 -44 32t-48 11t-45 -10t-29.5 -26.5t-16 -38.5t-4.5 -45t4.5 -45.5t15.5 -40t29 -28t46 -10.5q27 0 46.5 9t40.5 29q6 -6 12.5 -15.5t12.5 -21t10 -22.5t4 -20q0 -19 -18 -37z" />
<glyph unicode="&#xaa;" horiz-adv-x="456" d="M409 400q0 -20 3.5 -44t8.5 -41q-22 -6 -40 -8t-41 -2q-65 0 -75 36q-14 -14 -40.5 -25t-66.5 -11q-26 0 -50 6.5t-42.5 20.5t-29.5 37t-11 56q0 46 24.5 73.5t59.5 42t73.5 18.5t66.5 4v5q0 23 -14 30t-34 7q-28 0 -55.5 -7.5t-60.5 -24.5q-15 18 -23 38t-8 29 q0 12 8 22.5t33 22.5q22 11 58 17.5t71 6.5q99 0 142 -38.5t43 -119.5v-151zM252 490q-29 -3 -49 -13.5t-20 -39.5q0 -36 34 -36q14 0 24.5 6.5t10.5 18.5v64z" />
<glyph unicode="&#xab;" horiz-adv-x="599" d="M487 282l48 -65q12 -17 18 -33.5t6 -35.5q0 -23 -9.5 -45t-32.5 -50l-162 139q-45 39 -45 90q0 26 13 48.5t33 40.5l149 135q28 -31 39 -52.5t11 -44.5q0 -15 -5.5 -32t-19.5 -36zM207 282l48 -65q12 -17 18 -33.5t6 -35.5q0 -23 -9.5 -45t-32.5 -50l-162 139 q-45 39 -45 90q0 26 13 48.5t33 40.5l149 135q28 -31 39 -52.5t11 -44.5q0 -15 -5.5 -32t-19.5 -36z" />
<glyph unicode="&#xac;" horiz-adv-x="600" d="M388 94v158h-345v160h514v-318h-169z" />
<glyph unicode="&#xad;" horiz-adv-x="441" d="M143 217q-52 0 -75 24t-23 62q0 32 3 64h242q48 0 77 -18.5t29 -67.5q0 -16 -0.5 -32t-1.5 -32h-251z" />
<glyph unicode="&#xae;" horiz-adv-x="814" d="M607 131q-23 -12 -41 -16.5t-33 -4.5q-22 0 -41.5 8.5t-33.5 30.5l-72 114h-15v-143h-115v423q13 1 30 2.5t36 2.5t37 1.5t33 0.5q95 0 140 -39t45 -98q0 -48 -22.5 -78t-48.5 -48zM451 405q0 29 -16 42t-44 13h-10t-10 -1v-113h24q31 0 43.5 17t12.5 42zM764 317 q0 -75 -25.5 -143t-72.5 -119.5t-113.5 -81.5t-147.5 -30q-87 0 -153.5 30t-111 81.5t-67.5 119.5t-23 143t25.5 142.5t72 118.5t112.5 81t147 30t147 -30t112.5 -81t72 -118.5t25.5 -142.5zM700 317q0 60 -21 116.5t-59 99.5t-92 69t-121 26t-121 -26t-92.5 -69t-59 -99.5 t-20.5 -116.5t19 -116.5t56 -100t91 -69.5t125 -26q67 0 121.5 26t93 69.5t59.5 100t21 116.5z" />
<glyph unicode="&#xaf;" horiz-adv-x="500" d="M176 558q-52 0 -69.5 17t-17.5 49q0 16 0.5 27t2.5 27h230q45 0 66.5 -14.5t21.5 -58.5q0 -12 -0.5 -22.5t-1.5 -24.5h-232z" />
<glyph unicode="&#xb0;" horiz-adv-x="377" d="M337 552q0 -30 -11 -57t-30.5 -47t-47 -31.5t-60.5 -11.5q-34 0 -61.5 11.5t-47 31.5t-30 47t-10.5 57t11 57t30.5 47t47 31.5t60.5 11.5q34 0 61.5 -11t47 -30.5t30 -46.5t10.5 -59zM260 552q0 32 -20 53.5t-52 21.5q-30 0 -49.5 -21.5t-19.5 -53.5q0 -30 19.5 -52 t49.5 -22q32 0 52 22t20 52z" />
<glyph unicode="&#xb1;" horiz-adv-x="600" d="M53 0v160h162v161h-162v160h162v187h169v-187h163v-160h-163v-161h163v-160h-494z" />
<glyph unicode="&#xb2;" d="M46 289v97q18 12 46 35.5t54 47.5q25 23 41.5 44t16.5 41q0 23 -15 29.5t-32 6.5q-21 0 -43 -10t-41 -26q-17 20 -27 38.5t-10 31.5q0 19 19 32q18 13 50 24t83 11q30 0 57.5 -7t48 -22t32.5 -39t12 -58q0 -37 -19 -65.5t-45 -53.5q-14 -14 -29 -27t-29 -24h67 q32 0 50 -13.5t18 -50.5q0 -9 -0.5 -16.5t-1.5 -13.5l-2 -12h-301z" />
<glyph unicode="&#xb3;" d="M350 404q0 -60 -40 -94.5t-125 -34.5q-45 0 -72 7.5t-44 16.5q-29 15 -29 40q0 13 6.5 29.5t26.5 45.5q18 -17 43 -29.5t53 -12.5q22 0 35.5 8t13.5 28q0 13 -5 21.5t-13 13t-17.5 6t-17.5 1.5h-36v80h40q16 0 28 8.5t12 25.5t-11 24t-28 7q-25 0 -46.5 -8t-48.5 -25 q-36 39 -36 65q0 12 7 21t16 14q20 12 53.5 20.5t78.5 8.5q78 0 112.5 -30t34.5 -75q0 -38 -18.5 -58t-42.5 -33q29 -11 49.5 -32t20.5 -59z" />
<glyph unicode="&#xb4;" horiz-adv-x="500" d="M258 563q-14 -14 -28 -19t-31 -5q-19 0 -38.5 12t-33.5 23l86 115q13 17 29 31t42 14q24 0 49 -17.5t44 -34.5z" />
<glyph unicode="&#xb5;" horiz-adv-x="600" d="M384 46q-9 -18 -27.5 -36.5t-53.5 -18.5q-20 0 -38 5t-29 18v-232h-185v697q25 5 44.5 6t32.5 1q24 0 46 -4.5t39.5 -15.5t28 -31.5t10.5 -51.5v-171q0 -22 2.5 -35.5t7.5 -21t12.5 -10t16.5 -2.5q26 0 32.5 13t6.5 50v273q25 5 44.5 6t32.5 1q24 0 46 -4.5t39.5 -15.5 t28 -31.5t10.5 -51.5v-185q0 -29 2.5 -47.5t10.5 -29t22.5 -15.5t38.5 -6v-90q-22 -10 -56 -15t-66 -5q-44 0 -66 16.5t-33 39.5z" />
<glyph unicode="&#xb6;" horiz-adv-x="601" d="M233 -118v353q-45 0 -81 18t-60.5 48t-38 69.5t-13.5 83.5q0 105 55.5 161t151.5 56h198q45 0 70.5 -21t25.5 -76v-692h-118v692h-72v-692h-118z" />
<glyph unicode="&#xb7;" horiz-adv-x="310" d="M250 332q0 -42 -25 -68t-70 -26t-70 26t-25 68t26.5 67t68.5 25t68.5 -25t26.5 -67z" />
<glyph unicode="&#xb8;" horiz-adv-x="500" d="M349 -138q0 -22 -10.5 -41t-27.5 -33.5t-39.5 -22.5t-46.5 -8q-35 0 -55 11.5t-20 33.5q0 9 2 23t8 33q8 -6 20.5 -10.5t25.5 -4.5q26 0 26 19q0 12 -6 19t-13 14.5t-13 17t-6 26.5q0 21 12 38t22 27h92q-13 -12 -19.5 -21t-6.5 -20t8.5 -19.5t19 -18.5t19 -24.5 t8.5 -38.5z" />
<glyph unicode="&#xb9;" d="M165 289v240l-89 -44q-13 20 -24.5 43t-11.5 41t8.5 28.5t29.5 21.5l104 55q14 8 28.5 12.5t35.5 4.5q25 0 37 -7t20 -16v-379h-138z" />
<glyph unicode="&#xba;" horiz-adv-x="478" d="M443 507q0 -41 -11 -79.5t-35.5 -68t-63.5 -47t-95 -17.5q-55 0 -93.5 17t-63 46t-35.5 67t-11 80t13 79t38.5 65t64.5 44t90 16q55 0 93.5 -16t62.5 -43.5t35 -64.5t11 -78zM282 503q0 34 -9.5 58t-32.5 24q-13 0 -21.5 -7.5t-14 -19t-7.5 -26.5t-2 -30q0 -34 9.5 -58.5 t34.5 -24.5q26 0 34.5 25t8.5 59z" />
<glyph unicode="&#xbb;" horiz-adv-x="599" d="M349 341q-14 19 -19.5 36t-5.5 32q0 23 11 44.5t39 52.5l149 -135q20 -18 33 -40.5t13 -48.5q0 -51 -45 -90l-162 -139q-23 28 -32.5 50t-9.5 45q0 19 6 35.5t18 33.5l48 65zM69 341q-14 19 -19.5 36t-5.5 32q0 23 11 44.5t39 52.5l149 -135q20 -18 33 -40.5t13 -48.5 q0 -51 -45 -90l-162 -139q-23 28 -32.5 50t-9.5 45q0 19 6 35.5t18 33.5l48 65z" />
<glyph unicode="&#xbc;" horiz-adv-x="900" d="M341 0h-144l324 600q10 19 19.5 34.5t22.5 27t31.5 17.5t46.5 6q16 0 32 -2.5t30 -9.5zM150 289v240l-89 -44q-13 20 -24.5 43t-11.5 41t8.5 28.5t29.5 21.5l104 55q14 8 28.5 12.5t35.5 4.5q25 0 37 -7t20 -16v-379h-138zM513 74v81l138 208q12 18 30 29t52 11 q24 0 44 -6t29 -12v-225h19q20 0 28 -9.5t8 -25.5q0 -9 -1.5 -22.5t-3.5 -28.5h-50v-73h-134v73h-159zM672 160v109h-4l-70 -109h74z" />
<glyph unicode="&#xbd;" horiz-adv-x="900" d="M326 0h-144l324 600q10 19 19.5 34.5t22.5 27t31.5 17.5t46.5 6q16 0 32 -2.5t30 -9.5zM150 289v240l-89 -44q-13 20 -24.5 43t-11.5 41t8.5 28.5t29.5 21.5l104 55q14 8 28.5 12.5t35.5 4.5q25 0 37 -7t20 -16v-379h-138zM564 1v97q18 12 46 35.5t54 47.5q25 23 41.5 44 t16.5 41q0 23 -15 29.5t-32 6.5q-21 0 -43 -10t-41 -26q-17 20 -27 38.5t-10 31.5q0 19 19 32q18 13 50 24t83 11q30 0 57.5 -7t48 -22t32.5 -39t12 -58q0 -37 -19 -65.5t-45 -53.5q-14 -14 -29 -27t-29 -24h67q32 0 50 -13.5t18 -50.5q0 -9 -0.5 -16.5t-1.5 -13.5l-2 -12 h-301z" />
<glyph unicode="&#xbe;" horiz-adv-x="900" d="M350 0h-144l324 600q10 19 19.5 34.5t22.5 27t31.5 17.5t46.5 6q16 0 32 -2.5t30 -9.5zM361 404q0 -60 -40 -94.5t-125 -34.5q-45 0 -72 7.5t-44 16.5q-29 15 -29 40q0 13 6.5 29.5t26.5 45.5q18 -17 43 -29.5t53 -12.5q22 0 35.5 8t13.5 28q0 13 -5 21.5t-13 13t-17.5 6 t-17.5 1.5h-36v80h40q16 0 28 8.5t12 25.5t-11 24t-28 7q-25 0 -46.5 -8t-48.5 -25q-36 39 -36 65q0 12 7 21t16 14q20 12 53.5 20.5t78.5 8.5q78 0 112.5 -30t34.5 -75q0 -38 -18.5 -58t-42.5 -33q29 -11 49.5 -32t20.5 -59zM501 74v81l138 208q12 18 30 29t52 11 q24 0 44 -6t29 -12v-225h19q20 0 28 -9.5t8 -25.5q0 -9 -1.5 -22.5t-3.5 -28.5h-50v-73h-134v73h-159zM660 160v109h-4l-70 -109h74z" />
<glyph unicode="&#xbf;" horiz-adv-x="477" d="M259 -221q-47 0 -87.5 11t-71 32t-48 53t-17.5 74q0 33 8 58t21.5 44.5t30.5 35t34 29.5q27 22 46.5 43t19.5 56q0 22 -4 42q9 2 20 3t22 1q22 0 45 -4.5t41.5 -15t30.5 -28.5t12 -44q0 -40 -21 -66.5t-50 -51.5q-20 -19 -35 -37.5t-15 -41.5q0 -26 16 -35t41 -9 q23 0 54 12.5t63 35.5q27 -31 39.5 -53.5t12.5 -37.5q0 -16 -6 -29.5t-26 -28.5t-62.5 -31.5t-113.5 -16.5zM173 383q0 42 25.5 67t70.5 25t70.5 -25t25.5 -67t-25.5 -66.5t-70.5 -24.5q-43 0 -69.5 24.5t-26.5 66.5z" />
<glyph unicode="&#xc0;" horiz-adv-x="670" d="M470 0l-55 158h-166l-51 -158h-198l215 655q19 8 51 14.5t70 6.5q16 0 36 -2t39 -11t35.5 -27t27.5 -49l196 -587h-200zM353 412q-5 21 -11.5 50.5t-7.5 49.5h-3q-2 -21 -8 -51t-11 -48l-35 -127h109zM186 812q18 23 40.5 44t52.5 21q19 0 34.5 -8.5t29.5 -19.5l101 -84 q-15 -20 -34.5 -35t-45.5 -15q-22 0 -44 14z" />
<glyph unicode="&#xc1;" horiz-adv-x="670" d="M470 0l-55 158h-166l-51 -158h-198l215 655q19 8 51 14.5t70 6.5q16 0 36 -2t39 -11t35.5 -27t27.5 -49l196 -587h-200zM353 412q-5 21 -11.5 50.5t-7.5 49.5h-3q-2 -21 -8 -51t-11 -48l-35 -127h109zM357 729q-22 -14 -44 -14q-26 0 -45.5 15t-34.5 35l101 84 q14 11 29.5 19.5t34.5 8.5q30 0 52.5 -21t40.5 -44z" />
<glyph unicode="&#xc2;" horiz-adv-x="670" d="M470 0l-55 158h-166l-51 -158h-198l215 655q19 8 51 14.5t70 6.5q16 0 36 -2t39 -11t35.5 -27t27.5 -49l196 -587h-200zM353 412q-5 21 -11.5 50.5t-7.5 49.5h-3q-2 -21 -8 -51t-11 -48l-35 -127h109zM333 779l-52 -47q-12 -11 -25.5 -15t-26.5 -4q-18 0 -36.5 6 t-24.5 14l78 107q17 23 39.5 32t49.5 9q26 0 48 -8t38 -30l81 -110q-8 -8 -25 -14t-33 -6q-14 0 -29.5 4t-29.5 16z" />
<glyph unicode="&#xc3;" horiz-adv-x="670" d="M470 0l-55 158h-166l-51 -158h-198l215 655q19 8 51 14.5t70 6.5q16 0 36 -2t39 -11t35.5 -27t27.5 -49l196 -587h-200zM353 412q-5 21 -11.5 50.5t-7.5 49.5h-3q-2 -21 -8 -51t-11 -48l-35 -127h109zM422 734q-27 0 -47.5 5.5t-37.5 12.5t-31.5 12.5t-29.5 5.5 q-25 0 -42 -11.5t-34 -31.5l-33 34q-17 17 -17 35q0 22 23 43q40 37 96 37q23 0 41 -5.5t33.5 -12.5t30 -12.5t31.5 -5.5q23 0 35.5 10.5t30.5 33.5l30 -38q17 -23 17 -41q0 -19 -9 -32.5t-22.5 -22t-31 -12.5t-33.5 -4z" />
<glyph unicode="&#xc4;" horiz-adv-x="670" d="M470 0l-55 158h-166l-51 -158h-198l215 655q19 8 51 14.5t70 6.5q16 0 36 -2t39 -11t35.5 -27t27.5 -49l196 -587h-200zM353 412q-5 21 -11.5 50.5t-7.5 49.5h-3q-2 -21 -8 -51t-11 -48l-35 -127h109zM528 805q0 -37 -24.5 -58.5t-59.5 -21.5t-59.5 21.5t-24.5 58.5 q0 36 24.5 58t59.5 22t59.5 -22t24.5 -58zM304 805q0 -37 -24.5 -58.5t-59.5 -21.5t-59.5 21.5t-24.5 58.5q0 36 24.5 58t59.5 22t59.5 -22t24.5 -58z" />
<glyph unicode="&#xc5;" horiz-adv-x="670" d="M453 768q0 -32 -13 -58.5t-37 -43.5q21 -8 40 -26t31 -53l196 -587h-200l-55 158h-166l-51 -158h-198l215 655q18 8 46 14q-45 34 -45 98q0 25 8 47.5t23.5 39t37.5 26.5t50 10q27 0 49 -10t37 -26.5t23.5 -38.5t8.5 -47zM353 412q-5 21 -11.5 50.5t-7.5 49.5h-3 q-2 -21 -8 -51t-11 -48l-35 -127h109zM383 767q0 23 -12.5 40t-35.5 17t-36 -16.5t-13 -39.5t13 -40t36 -17t35.5 17t12.5 39z" />
<glyph unicode="&#xc6;" horiz-adv-x="951" d="M815 152q34 0 56 -8.5t34 -22.5t16.5 -31t4.5 -34t-0.5 -28t-1.5 -28h-471v158h-157l-78 -158h-218l300 580q25 49 58 70t90 21h461q2 -20 3 -31.5t1 -28.5t-5 -33.5t-17 -30t-33 -22t-53 -8.5h-150v-101h193v-153h-193v-111h160zM355 286h98v236h-3q-7 -29 -17.5 -59 t-18.5 -47z" />
<glyph unicode="&#xc7;" horiz-adv-x="596" d="M439 -138q0 -22 -10.5 -41t-27.5 -33.5t-39.5 -22.5t-46.5 -8q-35 0 -55 11.5t-20 33.5q0 9 2 23t8 33q8 -6 20.5 -10.5t25.5 -4.5q26 0 26 19q0 12 -6 19t-13 14.5t-13 17t-6 26.5q0 14 5 25.5t13 21.5q-69 9 -119.5 38t-83.5 74t-49.5 104.5t-16.5 128.5 q0 76 19.5 140.5t59.5 111.5t102 74t146 27q39 0 70 -6t55 -15t41 -19t27 -19q11 -10 23 -25.5t12 -34.5q0 -20 -18.5 -46.5t-47.5 -54.5q-35 32 -65.5 48t-71.5 16t-69 -17t-45 -44t-25 -61t-8 -68q0 -38 7.5 -74t24.5 -64t45.5 -45t69.5 -17q40 0 69 13.5t61 42.5 q8 -9 18 -21.5t19 -26t15 -28t6 -27.5q0 -30 -28 -55q-6 -6 -17.5 -14t-30.5 -16t-45.5 -14.5t-61.5 -8.5q-6 -9 -6 -20t8.5 -19.5t19 -18.5t19 -24.5t8.5 -38.5z" />
<glyph unicode="&#xc8;" horiz-adv-x="553" d="M417 152q34 0 56 -8.5t34 -22.5t16.5 -31t4.5 -34t-0.5 -28t-1.5 -28h-471v671h456q2 -20 3 -31.5t1 -28.5t-5 -33.5t-17 -30t-33 -22t-53 -8.5h-150v-101h193v-153h-193v-111h160zM131 812q18 23 40.5 44t52.5 21q19 0 34.5 -8.5t29.5 -19.5l101 -84q-15 -20 -34.5 -35 t-45.5 -15q-22 0 -44 14z" />
<glyph unicode="&#xc9;" horiz-adv-x="553" d="M417 152q34 0 56 -8.5t34 -22.5t16.5 -31t4.5 -34t-0.5 -28t-1.5 -28h-471v671h456q2 -20 3 -31.5t1 -28.5t-5 -33.5t-17 -30t-33 -22t-53 -8.5h-150v-101h193v-153h-193v-111h160zM301 729q-22 -14 -44 -14q-26 0 -45.5 15t-34.5 35l101 84q14 11 29.5 19.5t34.5 8.5 q30 0 52.5 -21t40.5 -44z" />
<glyph unicode="&#xca;" horiz-adv-x="553" d="M417 152q34 0 56 -8.5t34 -22.5t16.5 -31t4.5 -34t-0.5 -28t-1.5 -28h-471v671h456q2 -20 3 -31.5t1 -28.5t-5 -33.5t-17 -30t-33 -22t-53 -8.5h-150v-101h193v-153h-193v-111h160zM278 779l-52 -47q-12 -11 -25.5 -15t-26.5 -4q-18 0 -36.5 6t-24.5 14l78 107 q17 23 39.5 32t49.5 9q26 0 48 -8t38 -30l81 -110q-8 -8 -25 -14t-33 -6q-14 0 -29.5 4t-29.5 16z" />
<glyph unicode="&#xcb;" horiz-adv-x="553" d="M417 152q34 0 56 -8.5t34 -22.5t16.5 -31t4.5 -34t-0.5 -28t-1.5 -28h-471v671h456q2 -20 3 -31.5t1 -28.5t-5 -33.5t-17 -30t-33 -22t-53 -8.5h-150v-101h193v-153h-193v-111h160zM480 805q0 -37 -24.5 -58.5t-59.5 -21.5t-59.5 21.5t-24.5 58.5q0 36 24.5 58t59.5 22 t59.5 -22t24.5 -58zM256 805q0 -37 -24.5 -58.5t-59.5 -21.5t-59.5 21.5t-24.5 58.5q0 36 24.5 58t59.5 22t59.5 -22t24.5 -58z" />
<glyph unicode="&#xcc;" horiz-adv-x="311" d="M256 0h-201v669q26 5 46.5 6t30.5 1q20 0 42 -3.5t40 -14t30 -30.5t12 -52v-576zM8 812q18 23 40.5 44t52.5 21q19 0 34.5 -8.5t29.5 -19.5l101 -84q-15 -20 -34.5 -35t-45.5 -15q-22 0 -44 14z" />
<glyph unicode="&#xcd;" horiz-adv-x="311" d="M256 0h-201v669q26 5 46.5 6t30.5 1q20 0 42 -3.5t40 -14t30 -30.5t12 -52v-576zM178 729q-22 -14 -44 -14q-26 0 -45.5 15t-34.5 35l101 84q14 11 29.5 19.5t34.5 8.5q30 0 52.5 -21t40.5 -44z" />
<glyph unicode="&#xce;" horiz-adv-x="311" d="M256 0h-201v669q26 5 46.5 6t30.5 1q20 0 42 -3.5t40 -14t30 -30.5t12 -52v-576zM151 779l-52 -47q-12 -11 -25.5 -15t-26.5 -4q-18 0 -36.5 6t-24.5 14l78 107q17 23 39.5 32t49.5 9q26 0 48 -8t38 -30l81 -110q-8 -8 -25 -14t-33 -6q-14 0 -29.5 4t-29.5 16z" />
<glyph unicode="&#xcf;" horiz-adv-x="311" d="M256 0h-201v669q26 5 46.5 6t30.5 1q20 0 42 -3.5t40 -14t30 -30.5t12 -52v-576zM347 805q0 -37 -24.5 -58.5t-59.5 -21.5t-59.5 21.5t-24.5 58.5q0 36 24.5 58t59.5 22t59.5 -22t24.5 -58zM123 805q0 -37 -24.5 -58.5t-59.5 -21.5t-59.5 21.5t-24.5 58.5q0 36 24.5 58 t59.5 22t59.5 -22t24.5 -58z" />
<glyph unicode="&#xd0;" horiz-adv-x="684" d="M83 307h-63v80h63v275q78 10 128.5 12t82.5 2q105 0 173.5 -26t109 -70.5t56.5 -104t16 -125.5q0 -71 -18.5 -134.5t-58 -111.5t-101 -76t-147.5 -28h-241v307zM309 151q44 0 71 18.5t41.5 47.5t19 64t4.5 67q0 36 -6 68t-21 56.5t-41.5 38.5t-66.5 14h-12t-13 -1v-137 h85v-80h-85v-156h24z" />
<glyph unicode="&#xd1;" horiz-adv-x="676" d="M425 312v357q23 5 42.5 6t29.5 1q20 0 42 -3.5t40 -14t30 -30t12 -51.5v-577h-162l-209 332v-332h-195v669q14 2 38 4.5t50 2.5q48 0 72.5 -15.5t40.5 -44.5zM418 734q-27 0 -47.5 5.5t-37.5 12.5t-31.5 12.5t-29.5 5.5q-25 0 -42 -11.5t-34 -31.5l-33 34q-17 17 -17 35 q0 22 23 43q40 37 96 37q23 0 41 -5.5t33.5 -12.5t30 -12.5t31.5 -5.5q23 0 35.5 10.5t30.5 33.5l30 -38q17 -23 17 -41q0 -19 -9 -32.5t-22.5 -22t-31 -12.5t-33.5 -4z" />
<glyph unicode="&#xd2;" horiz-adv-x="708" d="M673 336q0 -74 -18.5 -138.5t-57.5 -112.5t-100.5 -75.5t-146.5 -27.5t-145 27.5t-98.5 75t-56 112t-17.5 138.5q0 71 19.5 134.5t59.5 111t101 75.5t145 28q82 0 142 -26.5t98 -73t56.5 -110t18.5 -138.5zM468 335q0 38 -6 73t-19.5 61.5t-34.5 42t-51 15.5 q-32 0 -54.5 -15.5t-36.5 -42t-20.5 -61.5t-6.5 -73q0 -39 6.5 -74.5t20 -62.5t35.5 -43t53 -16t53 16t35.5 43t19.5 62.5t6 74.5zM210 812q18 23 40.5 44t52.5 21q19 0 34.5 -8.5t29.5 -19.5l101 -84q-15 -20 -34.5 -35t-45.5 -15q-22 0 -44 14z" />
<glyph unicode="&#xd3;" horiz-adv-x="708" d="M673 336q0 -74 -18.5 -138.5t-57.5 -112.5t-100.5 -75.5t-146.5 -27.5t-145 27.5t-98.5 75t-56 112t-17.5 138.5q0 71 19.5 134.5t59.5 111t101 75.5t145 28q82 0 142 -26.5t98 -73t56.5 -110t18.5 -138.5zM468 335q0 38 -6 73t-19.5 61.5t-34.5 42t-51 15.5 q-32 0 -54.5 -15.5t-36.5 -42t-20.5 -61.5t-6.5 -73q0 -39 6.5 -74.5t20 -62.5t35.5 -43t53 -16t53 16t35.5 43t19.5 62.5t6 74.5zM386 729q-22 -14 -44 -14q-26 0 -45.5 15t-34.5 35l101 84q14 11 29.5 19.5t34.5 8.5q30 0 52.5 -21t40.5 -44z" />
<glyph unicode="&#xd4;" horiz-adv-x="708" d="M673 336q0 -74 -18.5 -138.5t-57.5 -112.5t-100.5 -75.5t-146.5 -27.5t-145 27.5t-98.5 75t-56 112t-17.5 138.5q0 71 19.5 134.5t59.5 111t101 75.5t145 28q82 0 142 -26.5t98 -73t56.5 -110t18.5 -138.5zM468 335q0 38 -6 73t-19.5 61.5t-34.5 42t-51 15.5 q-32 0 -54.5 -15.5t-36.5 -42t-20.5 -61.5t-6.5 -73q0 -39 6.5 -74.5t20 -62.5t35.5 -43t53 -16t53 16t35.5 43t19.5 62.5t6 74.5zM361 779l-52 -47q-12 -11 -25.5 -15t-26.5 -4q-18 0 -36.5 6t-24.5 14l78 107q17 23 39.5 32t49.5 9q26 0 48 -8t38 -30l81 -110 q-8 -8 -25 -14t-33 -6q-14 0 -29.5 4t-29.5 16z" />
<glyph unicode="&#xd5;" horiz-adv-x="708" d="M673 336q0 -74 -18.5 -138.5t-57.5 -112.5t-100.5 -75.5t-146.5 -27.5t-145 27.5t-98.5 75t-56 112t-17.5 138.5q0 71 19.5 134.5t59.5 111t101 75.5t145 28q82 0 142 -26.5t98 -73t56.5 -110t18.5 -138.5zM468 335q0 38 -6 73t-19.5 61.5t-34.5 42t-51 15.5 q-32 0 -54.5 -15.5t-36.5 -42t-20.5 -61.5t-6.5 -73q0 -39 6.5 -74.5t20 -62.5t35.5 -43t53 -16t53 16t35.5 43t19.5 62.5t6 74.5zM445 734q-27 0 -47.5 5.5t-37.5 12.5t-31.5 12.5t-29.5 5.5q-25 0 -42 -11.5t-34 -31.5l-33 34q-17 17 -17 35q0 22 23 43q40 37 96 37 q23 0 41 -5.5t33.5 -12.5t30 -12.5t31.5 -5.5q23 0 35.5 10.5t30.5 33.5l30 -38q17 -23 17 -41q0 -19 -9 -32.5t-22.5 -22t-31 -12.5t-33.5 -4z" />
<glyph unicode="&#xd6;" horiz-adv-x="708" d="M673 336q0 -74 -18.5 -138.5t-57.5 -112.5t-100.5 -75.5t-146.5 -27.5t-145 27.5t-98.5 75t-56 112t-17.5 138.5q0 71 19.5 134.5t59.5 111t101 75.5t145 28q82 0 142 -26.5t98 -73t56.5 -110t18.5 -138.5zM468 335q0 38 -6 73t-19.5 61.5t-34.5 42t-51 15.5 q-32 0 -54.5 -15.5t-36.5 -42t-20.5 -61.5t-6.5 -73q0 -39 6.5 -74.5t20 -62.5t35.5 -43t53 -16t53 16t35.5 43t19.5 62.5t6 74.5zM561 805q0 -37 -24.5 -58.5t-59.5 -21.5t-59.5 21.5t-24.5 58.5q0 36 24.5 58t59.5 22t59.5 -22t24.5 -58zM337 805q0 -37 -24.5 -58.5 t-59.5 -21.5t-59.5 21.5t-24.5 58.5q0 36 24.5 58t59.5 22t59.5 -22t24.5 -58z" />
<glyph unicode="&#xd7;" horiz-adv-x="600" d="M423 90l-125 126l-122 -122l-113 113l121 122l-128 128l120 120l128 -128l122 122l113 -113l-122 -123l126 -125z" />
<glyph unicode="&#xd8;" horiz-adv-x="708" d="M673 336q0 -74 -18.5 -138.5t-57.5 -112.5t-100.5 -75.5t-146.5 -27.5q-42 0 -77.5 7t-65.5 19l-64 -112l-57 30l65 114q-63 48 -90.5 124.5t-27.5 170.5q0 71 19.5 134.5t59.5 111t101 75.5t145 28q85 0 145 -28l58 101l56 -30l-59 -104q60 -46 87.5 -120t27.5 -167z M239 335q0 -31 4 -60t12 -53l161 283q-23 22 -59 22q-32 0 -54.5 -15.5t-36.5 -42t-20.5 -61.5t-6.5 -73zM468 335q0 29 -3 56t-11 50l-161 -281q24 -21 61 -21q31 0 53 16t35.5 43t19.5 62.5t6 74.5z" />
<glyph unicode="&#xd9;" horiz-adv-x="654" d="M251 270q0 -45 8 -74q7 -21 23 -37t48 -16q24 0 41.5 11.5t25.5 40.5q3 13 4.5 32.5t1.5 42.5v399q26 5 46.5 6t30.5 1q19 0 41 -3.5t40.5 -14t30.5 -30.5t12 -52v-300q0 -20 -1 -42t-3 -45q-4 -42 -21.5 -79t-50.5 -65t-82.5 -44t-117.5 -16q-67 0 -115.5 13t-81.5 39.5 t-51.5 65t-25.5 89.5q-2 19 -3 43t-1 41v393q26 5 46.5 6t30.5 1q20 0 42 -3.5t40 -14t30 -30.5t12 -52v-306zM173 812q18 23 40.5 44t52.5 21q19 0 34.5 -8.5t29.5 -19.5l101 -84q-15 -20 -34.5 -35t-45.5 -15q-22 0 -44 14z" />
<glyph unicode="&#xda;" horiz-adv-x="654" d="M251 270q0 -45 8 -74q7 -21 23 -37t48 -16q24 0 41.5 11.5t25.5 40.5q3 13 4.5 32.5t1.5 42.5v399q26 5 46.5 6t30.5 1q19 0 41 -3.5t40.5 -14t30.5 -30.5t12 -52v-300q0 -20 -1 -42t-3 -45q-4 -42 -21.5 -79t-50.5 -65t-82.5 -44t-117.5 -16q-67 0 -115.5 13t-81.5 39.5 t-51.5 65t-25.5 89.5q-2 19 -3 43t-1 41v393q26 5 46.5 6t30.5 1q20 0 42 -3.5t40 -14t30 -30.5t12 -52v-306zM360 729q-22 -14 -44 -14q-26 0 -45.5 15t-34.5 35l101 84q14 11 29.5 19.5t34.5 8.5q30 0 52.5 -21t40.5 -44z" />
<glyph unicode="&#xdb;" horiz-adv-x="654" d="M251 270q0 -45 8 -74q7 -21 23 -37t48 -16q24 0 41.5 11.5t25.5 40.5q3 13 4.5 32.5t1.5 42.5v399q26 5 46.5 6t30.5 1q19 0 41 -3.5t40.5 -14t30.5 -30.5t12 -52v-300q0 -20 -1 -42t-3 -45q-4 -42 -21.5 -79t-50.5 -65t-82.5 -44t-117.5 -16q-67 0 -115.5 13t-81.5 39.5 t-51.5 65t-25.5 89.5q-2 19 -3 43t-1 41v393q26 5 46.5 6t30.5 1q20 0 42 -3.5t40 -14t30 -30.5t12 -52v-306zM326 779l-52 -47q-12 -11 -25.5 -15t-26.5 -4q-18 0 -36.5 6t-24.5 14l78 107q17 23 39.5 32t49.5 9q26 0 48 -8t38 -30l81 -110q-8 -8 -25 -14t-33 -6 q-14 0 -29.5 4t-29.5 16z" />
<glyph unicode="&#xdc;" horiz-adv-x="654" d="M251 270q0 -45 8 -74q7 -21 23 -37t48 -16q24 0 41.5 11.5t25.5 40.5q3 13 4.5 32.5t1.5 42.5v399q26 5 46.5 6t30.5 1q19 0 41 -3.5t40.5 -14t30.5 -30.5t12 -52v-300q0 -20 -1 -42t-3 -45q-4 -42 -21.5 -79t-50.5 -65t-82.5 -44t-117.5 -16q-67 0 -115.5 13t-81.5 39.5 t-51.5 65t-25.5 89.5q-2 19 -3 43t-1 41v393q26 5 46.5 6t30.5 1q20 0 42 -3.5t40 -14t30 -30.5t12 -52v-306zM527 805q0 -37 -24.5 -58.5t-59.5 -21.5t-59.5 21.5t-24.5 58.5q0 36 24.5 58t59.5 22t59.5 -22t24.5 -58zM303 805q0 -37 -24.5 -58.5t-59.5 -21.5t-59.5 21.5 t-24.5 58.5q0 36 24.5 58t59.5 22t59.5 -22t24.5 -58z" />
<glyph unicode="&#xdd;" horiz-adv-x="629" d="M414 231v-231h-202v226l-212 417q26 14 61.5 23.5t62.5 9.5q48 0 73.5 -18t39.5 -53l78 -187l77 189q13 31 38.5 50t74.5 19q26 0 59 -7t65 -18zM354 729q-22 -14 -44 -14q-26 0 -45.5 15t-34.5 35l101 84q14 11 29.5 19.5t34.5 8.5q30 0 52.5 -21t40.5 -44z" />
<glyph unicode="&#xde;" horiz-adv-x="567" d="M246 556q27 3 53 3q62 0 108.5 -15t77.5 -43t46.5 -66.5t15.5 -86.5q0 -66 -21.5 -113t-59 -77.5t-88 -44.5t-107.5 -14h-24v-99h-202v669q28 5 47.5 6t29.5 1q20 0 42 -3.5t40 -14t30 -30.5t12 -52v-20zM343 340q0 86 -74 86h-11.5t-11.5 -1v-189h17q42 0 61 28t19 76z " />
<glyph unicode="&#xdf;" horiz-adv-x="659" d="M370 508q0 26 -17 40.5t-46 14.5t-48.5 -14.5t-19.5 -52.5v-496h-199v493q0 10 0.5 20.5t1 20.5t1.5 17q13 81 77 123.5t184 42.5q48 0 91.5 -9.5t75.5 -28.5t51 -48t19 -68q0 -30 -10.5 -53t-23 -42.5t-23 -36.5t-10.5 -35q0 -16 12.5 -27.5t31.5 -22.5t41 -24.5 t41 -33.5t31.5 -49t12.5 -71q0 -40 -14 -73.5t-40.5 -58t-64 -38t-84.5 -13.5q-35 0 -68.5 6.5t-53.5 16.5q-26 13 -36 28.5t-10 32.5q0 26 13 51.5t29 49.5q23 -21 49 -34t54 -13q22 0 31 10.5t9 23.5q0 15 -11.5 26.5t-29 22t-37.5 21t-37.5 25t-29 33.5t-11.5 47 q0 33 10.5 56t23.5 42t23.5 37t10.5 41z" />
<glyph unicode="&#xe0;" horiz-adv-x="524" d="M484 109q0 -25 4 -54.5t11 -51.5q-14 -4 -25 -6.5t-21.5 -4t-22 -2t-25.5 -0.5q-81 0 -94 46q-17 -17 -49.5 -31t-83.5 -14q-31 0 -59.5 8t-50.5 25.5t-35 46t-13 69.5q0 58 30.5 92.5t74 52.5t90 23t79.5 5v14q0 28 -18.5 35.5t-44.5 7.5q-35 0 -69 -9.5t-76 -29.5 q-19 23 -28.5 45t-9.5 33q0 15 10 28t41 29q27 14 73 22t94 8q117 0 167.5 -46t50.5 -146v-195zM297 224q-19 -2 -36 -6t-29.5 -11.5t-20 -19.5t-7.5 -31q0 -23 12.5 -35.5t34.5 -12.5q18 0 32 8t14 24v84zM120 682q19 17 44 34.5t49 17.5q26 0 42 -14t29 -31l86 -115 q-14 -11 -33.5 -23t-38.5 -12q-17 0 -31 5t-28 19z" />
<glyph unicode="&#xe1;" horiz-adv-x="524" d="M484 109q0 -25 4 -54.5t11 -51.5q-14 -4 -25 -6.5t-21.5 -4t-22 -2t-25.5 -0.5q-81 0 -94 46q-17 -17 -49.5 -31t-83.5 -14q-31 0 -59.5 8t-50.5 25.5t-35 46t-13 69.5q0 58 30.5 92.5t74 52.5t90 23t79.5 5v14q0 28 -18.5 35.5t-44.5 7.5q-35 0 -69 -9.5t-76 -29.5 q-19 23 -28.5 45t-9.5 33q0 15 10 28t41 29q27 14 73 22t94 8q117 0 167.5 -46t50.5 -146v-195zM297 224q-19 -2 -36 -6t-29.5 -11.5t-20 -19.5t-7.5 -31q0 -23 12.5 -35.5t34.5 -12.5q18 0 32 8t14 24v84zM315 563q-14 -14 -28 -19t-31 -5q-19 0 -38.5 12t-33.5 23l86 115 q13 17 29 31t42 14q24 0 49 -17.5t44 -34.5z" />
<glyph unicode="&#xe2;" horiz-adv-x="524" d="M484 109q0 -25 4 -54.5t11 -51.5q-14 -4 -25 -6.5t-21.5 -4t-22 -2t-25.5 -0.5q-81 0 -94 46q-17 -17 -49.5 -31t-83.5 -14q-31 0 -59.5 8t-50.5 25.5t-35 46t-13 69.5q0 58 30.5 92.5t74 52.5t90 23t79.5 5v14q0 28 -18.5 35.5t-44.5 7.5q-35 0 -69 -9.5t-76 -29.5 q-19 23 -28.5 45t-9.5 33q0 15 10 28t41 29q27 14 73 22t94 8q117 0 167.5 -46t50.5 -146v-195zM297 224q-19 -2 -36 -6t-29.5 -11.5t-20 -19.5t-7.5 -31q0 -23 12.5 -35.5t34.5 -12.5q18 0 32 8t14 24v84zM271 630l-49 -58q-26 -30 -69 -30q-18 0 -33.5 5.5t-25.5 13.5 l85 126q16 23 39.5 36t54.5 13q58 0 88 -43l88 -132q-28 -19 -58 -19q-21 0 -38.5 7.5t-34.5 26.5z" />
<glyph unicode="&#xe3;" horiz-adv-x="524" d="M484 109q0 -25 4 -54.5t11 -51.5q-14 -4 -25 -6.5t-21.5 -4t-22 -2t-25.5 -0.5q-81 0 -94 46q-17 -17 -49.5 -31t-83.5 -14q-31 0 -59.5 8t-50.5 25.5t-35 46t-13 69.5q0 58 30.5 92.5t74 52.5t90 23t79.5 5v14q0 28 -18.5 35.5t-44.5 7.5q-35 0 -69 -9.5t-76 -29.5 q-19 23 -28.5 45t-9.5 33q0 15 10 28t41 29q27 14 73 22t94 8q117 0 167.5 -46t50.5 -146v-195zM297 224q-19 -2 -36 -6t-29.5 -11.5t-20 -19.5t-7.5 -31q0 -23 12.5 -35.5t34.5 -12.5q18 0 32 8t14 24v84zM347 558q-27 0 -47.5 5.5t-37.5 12.5t-31.5 12.5t-29.5 5.5 q-25 0 -42 -11.5t-34 -31.5l-33 34q-17 17 -17 35q0 22 23 43q40 37 96 37q23 0 41 -5.5t33.5 -12.5t30 -12.5t31.5 -5.5q23 0 35.5 10.5t30.5 33.5l30 -38q17 -23 17 -41q0 -19 -9 -32.5t-22.5 -22t-31 -12.5t-33.5 -4z" />
<glyph unicode="&#xe4;" horiz-adv-x="524" d="M484 109q0 -25 4 -54.5t11 -51.5q-14 -4 -25 -6.5t-21.5 -4t-22 -2t-25.5 -0.5q-81 0 -94 46q-17 -17 -49.5 -31t-83.5 -14q-31 0 -59.5 8t-50.5 25.5t-35 46t-13 69.5q0 58 30.5 92.5t74 52.5t90 23t79.5 5v14q0 28 -18.5 35.5t-44.5 7.5q-35 0 -69 -9.5t-76 -29.5 q-19 23 -28.5 45t-9.5 33q0 15 10 28t41 29q27 14 73 22t94 8q117 0 167.5 -46t50.5 -146v-195zM297 224q-19 -2 -36 -6t-29.5 -11.5t-20 -19.5t-7.5 -31q0 -23 12.5 -35.5t34.5 -12.5q18 0 32 8t14 24v84zM465 629q0 -37 -24.5 -58.5t-59.5 -21.5t-59.5 21.5t-24.5 58.5 q0 36 24.5 58t59.5 22t59.5 -22t24.5 -58zM231 629q0 -37 -24.5 -58.5t-59.5 -21.5t-59.5 21.5t-24.5 58.5q0 36 24.5 58t59.5 22t59.5 -22t24.5 -58z" />
<glyph unicode="&#xe5;" horiz-adv-x="524" d="M484 109q0 -25 4 -54.5t11 -51.5q-14 -4 -25 -6.5t-21.5 -4t-22 -2t-25.5 -0.5q-81 0 -94 46q-17 -17 -49.5 -31t-83.5 -14q-31 0 -59.5 8t-50.5 25.5t-35 46t-13 69.5q0 58 30.5 92.5t74 52.5t90 23t79.5 5v14q0 28 -18.5 35.5t-44.5 7.5q-35 0 -69 -9.5t-76 -29.5 q-19 23 -28.5 45t-9.5 33q0 15 10 28t41 29q27 14 73 22t94 8q117 0 167.5 -46t50.5 -146v-195zM297 224q-19 -2 -36 -6t-29.5 -11.5t-20 -19.5t-7.5 -31q0 -23 12.5 -35.5t34.5 -12.5q18 0 32 8t14 24v84zM389 665q0 -25 -8.5 -47t-23.5 -38.5t-37 -26.5t-49 -10 q-28 0 -50 9.5t-37.5 26t-23.5 38.5t-8 47t8 47.5t23.5 39t37.5 26.5t50 10q27 0 49 -10t37 -26.5t23.5 -38.5t8.5 -47zM319 664q0 23 -12.5 40t-35.5 17t-36 -16.5t-13 -39.5t13 -40t36 -17t35.5 17t12.5 39z" />
<glyph unicode="&#xe6;" horiz-adv-x="777" d="M589 125q40 0 67 12t54 32q13 -20 26 -46t13 -46q0 -17 -9 -32t-32 -29q-22 -13 -59 -22t-94 -9q-23 0 -48 2.5t-50 9t-48 18.5t-41 31q-33 -26 -77 -43.5t-108 -17.5q-36 0 -65.5 9t-51.5 27.5t-34 48t-12 70.5q0 58 30.5 91.5t74 50.5t90 21.5t79.5 4.5v19 q0 28 -18.5 35.5t-44.5 7.5q-35 0 -69 -9.5t-76 -29.5q-19 23 -28.5 45t-9.5 33q0 15 9.5 29t41.5 28q28 13 73 21.5t88 8.5q49 0 85 -14t58 -46q24 26 62 43t89 17q54 0 92 -18t63 -48t36.5 -70t11.5 -84v-13.5t-0.5 -17.5t-1 -17t-1.5 -12h-267q5 -38 28 -64.5t74 -26.5z M297 217q-16 -2 -32.5 -5t-30 -10t-22 -18t-8.5 -28q0 -46 45 -46q18 0 37 6t30 14q-8 19 -13.5 42.5t-5.5 44.5zM580 299q0 42 -11 57t-37 15q-48 0 -48 -72h96z" />
<glyph unicode="&#xe7;" horiz-adv-x="465" d="M359 -138q0 -22 -10.5 -41t-27.5 -33.5t-39.5 -22.5t-46.5 -8q-35 0 -55 11.5t-20 33.5q0 9 2 23t8 33q8 -6 20.5 -10.5t25.5 -4.5q26 0 26 19q0 12 -6 19t-13 14.5t-13 17t-6 26.5q0 15 6.5 27.5t14.5 23.5q-37 6 -72.5 21.5t-64 45t-46 75t-17.5 111.5q0 75 25.5 123.5 t64 77.5t83.5 40.5t84 11.5q35 0 69.5 -7t60.5 -22q24 -14 36 -29.5t12 -37.5q0 -18 -12 -43t-29 -51q-28 23 -51.5 34.5t-55.5 11.5q-40 0 -62.5 -28t-22.5 -77q0 -25 4.5 -47.5t15.5 -39t28.5 -26.5t44.5 -10q28 0 51.5 11t44.5 29q7 -9 14.5 -20t13.5 -23t10 -24t4 -22 q0 -17 -7.5 -31t-30.5 -28q-18 -12 -45.5 -19.5t-62.5 -10.5q-8 -9 -8 -23q0 -11 8.5 -19.5t19 -18.5t19 -24.5t8.5 -38.5z" />
<glyph unicode="&#xe8;" horiz-adv-x="515" d="M327 125q40 0 67 12t54 32q13 -20 26 -46t13 -46q0 -17 -9 -32t-32 -29q-22 -13 -59 -22t-94 -9q-41 0 -88 10t-87 39t-66.5 81.5t-26.5 137.5q0 63 21.5 109t56 76t79 44t89.5 14q61 0 104 -18t69.5 -48t38.5 -70t12 -84v-13.5t-0.5 -17.5t-1 -17t-1.5 -12h-267 q5 -38 28 -64.5t74 -26.5zM318 299q0 42 -11.5 57t-37.5 15q-47 0 -47 -72h96zM114 682q19 17 44 34.5t49 17.5q26 0 42 -14t29 -31l86 -115q-14 -11 -33.5 -23t-38.5 -12q-17 0 -31 5t-28 19z" />
<glyph unicode="&#xe9;" horiz-adv-x="515" d="M327 125q40 0 67 12t54 32q13 -20 26 -46t13 -46q0 -17 -9 -32t-32 -29q-22 -13 -59 -22t-94 -9q-41 0 -88 10t-87 39t-66.5 81.5t-26.5 137.5q0 63 21.5 109t56 76t79 44t89.5 14q61 0 104 -18t69.5 -48t38.5 -70t12 -84v-13.5t-0.5 -17.5t-1 -17t-1.5 -12h-267 q5 -38 28 -64.5t74 -26.5zM318 299q0 42 -11.5 57t-37.5 15q-47 0 -47 -72h96zM325 563q-14 -14 -28 -19t-31 -5q-19 0 -38.5 12t-33.5 23l86 115q13 17 29 31t42 14q24 0 49 -17.5t44 -34.5z" />
<glyph unicode="&#xea;" horiz-adv-x="515" d="M327 125q40 0 67 12t54 32q13 -20 26 -46t13 -46q0 -17 -9 -32t-32 -29q-22 -13 -59 -22t-94 -9q-41 0 -88 10t-87 39t-66.5 81.5t-26.5 137.5q0 63 21.5 109t56 76t79 44t89.5 14q61 0 104 -18t69.5 -48t38.5 -70t12 -84v-13.5t-0.5 -17.5t-1 -17t-1.5 -12h-267 q5 -38 28 -64.5t74 -26.5zM318 299q0 42 -11.5 57t-37.5 15q-47 0 -47 -72h96zM270 630l-49 -58q-26 -30 -69 -30q-18 0 -33.5 5.5t-25.5 13.5l85 126q16 23 39.5 36t54.5 13q58 0 88 -43l88 -132q-28 -19 -58 -19q-21 0 -38.5 7.5t-34.5 26.5z" />
<glyph unicode="&#xeb;" horiz-adv-x="515" d="M327 125q40 0 67 12t54 32q13 -20 26 -46t13 -46q0 -17 -9 -32t-32 -29q-22 -13 -59 -22t-94 -9q-41 0 -88 10t-87 39t-66.5 81.5t-26.5 137.5q0 63 21.5 109t56 76t79 44t89.5 14q61 0 104 -18t69.5 -48t38.5 -70t12 -84v-13.5t-0.5 -17.5t-1 -17t-1.5 -12h-267 q5 -38 28 -64.5t74 -26.5zM318 299q0 42 -11.5 57t-37.5 15q-47 0 -47 -72h96zM473 629q0 -37 -24.5 -58.5t-59.5 -21.5t-59.5 21.5t-24.5 58.5q0 36 24.5 58t59.5 22t59.5 -22t24.5 -58zM239 629q0 -37 -24.5 -58.5t-59.5 -21.5t-59.5 21.5t-24.5 58.5q0 36 24.5 58 t59.5 22t59.5 -22t24.5 -58z" />
<glyph unicode="&#xec;" horiz-adv-x="280" d="M40 479q30 5 46.5 6t29.5 1q24 0 46.5 -4.5t39.5 -16t27.5 -32t10.5 -52.5v-377q-39 -13 -73 -13q-46 0 -71.5 11t-38 29t-15 41.5t-2.5 49.5v357zM-8 682q19 17 44 34.5t49 17.5q26 0 42 -14t29 -31l86 -115q-14 -11 -33.5 -23t-38.5 -12q-17 0 -31 5t-28 19z" />
<glyph unicode="&#xed;" horiz-adv-x="280" d="M40 479q30 5 46.5 6t29.5 1q24 0 46.5 -4.5t39.5 -16t27.5 -32t10.5 -52.5v-377q-39 -13 -73 -13q-46 0 -71.5 11t-38 29t-15 41.5t-2.5 49.5v357zM174 563q-14 -14 -28 -19t-31 -5q-19 0 -38.5 12t-33.5 23l86 115q13 17 29 31t42 14q24 0 49 -17.5t44 -34.5z" />
<glyph unicode="&#xee;" horiz-adv-x="280" d="M40 479q30 5 46.5 6t29.5 1q24 0 46.5 -4.5t39.5 -16t27.5 -32t10.5 -52.5v-377q-39 -13 -73 -13q-46 0 -71.5 11t-38 29t-15 41.5t-2.5 49.5v357zM131 630l-49 -58q-26 -30 -69 -30q-18 0 -33.5 5.5t-25.5 13.5l85 126q16 23 39.5 36t54.5 13q58 0 88 -43l88 -132 q-28 -19 -58 -19q-21 0 -38.5 7.5t-34.5 26.5z" />
<glyph unicode="&#xef;" horiz-adv-x="280" d="M40 479q30 5 46.5 6t29.5 1q24 0 46.5 -4.5t39.5 -16t27.5 -32t10.5 -52.5v-377q-39 -13 -73 -13q-46 0 -71.5 11t-38 29t-15 41.5t-2.5 49.5v357zM337 629q0 -37 -24.5 -58.5t-59.5 -21.5t-59.5 21.5t-24.5 58.5q0 36 24.5 58t59.5 22t59.5 -22t24.5 -58zM103 629 q0 -37 -24.5 -58.5t-59.5 -21.5t-59.5 21.5t-24.5 58.5q0 36 24.5 58t59.5 22t59.5 -22t24.5 -58z" />
<glyph unicode="&#xf0;" horiz-adv-x="565" d="M411 747l46 -46l-70 -66q13 -11 27 -24q32 -32 58 -72q35 -55 51.5 -120t16.5 -131q0 -75 -18.5 -132t-53 -95.5t-83 -58.5t-108.5 -20q-57 0 -103.5 15.5t-79.5 45.5t-51 74t-18 101q0 56 17 97t46 68t66.5 40t79.5 13q35 0 63 -8t46 -18l6 9q-12 29 -32 58 q-10 14 -21.5 26.5t-25.5 23.5l-66 -62l-46 46l54 50l-14 6q-41 16 -93 18v14q0 20 2 41t9 38t21 28t38 11q45 0 87 -13q19 -5 36 -13t34 -18zM341 243q0 24 -2.5 38.5t-6.5 27.5q-14 5 -32 5q-15 0 -27.5 -4t-22 -14.5t-15 -29.5t-5.5 -49q0 -42 12.5 -65t38.5 -23t43 25.5 t17 88.5z" />
<glyph unicode="&#xf1;" horiz-adv-x="555" d="M40 478q17 4 35 6t43 2q45 0 73.5 -13.5t38.5 -36.5q12 21 44.5 40.5t87.5 19.5q63 0 98 -30t47 -79q3 -11 4.5 -25t2 -29t1 -29t0.5 -24v-276q-30 -13 -74 -13q-46 0 -71.5 11t-38 29t-15 41.5t-2.5 49.5v172q0 22 -5 35t-27 13t-31.5 -9.5t-9.5 -20.5v-312h-201v478z M358 558q-27 0 -47.5 5.5t-37.5 12.5t-31.5 12.5t-29.5 5.5q-25 0 -42 -11.5t-34 -31.5l-33 34q-17 17 -17 35q0 22 23 43q40 37 96 37q23 0 41 -5.5t33.5 -12.5t30 -12.5t31.5 -5.5q23 0 35.5 10.5t30.5 33.5l30 -38q17 -23 17 -41q0 -19 -9 -32.5t-22.5 -22t-31 -12.5 t-33.5 -4z" />
<glyph unicode="&#xf2;" horiz-adv-x="560" d="M535 246q0 -51 -14 -98.5t-44.5 -83.5t-79 -57.5t-118.5 -21.5q-69 0 -117 21t-78.5 56.5t-44.5 82t-14 98.5t16 98.5t48.5 80.5t80.5 54t113 20q69 0 117 -20t78 -54t43.5 -79.5t13.5 -96.5zM336 243q0 45 -12 75t-43 30q-17 0 -28 -9t-18 -24t-9.5 -34t-2.5 -39 q0 -22 2.5 -42t9.5 -35.5t17.5 -24.5t27.5 -9t28 9.5t17 25t8.5 35.5t2.5 42zM133 682q19 17 44 34.5t49 17.5q26 0 42 -14t29 -31l86 -115q-14 -11 -33.5 -23t-38.5 -12q-17 0 -31 5t-28 19z" />
<glyph unicode="&#xf3;" horiz-adv-x="560" d="M535 246q0 -51 -14 -98.5t-44.5 -83.5t-79 -57.5t-118.5 -21.5q-69 0 -117 21t-78.5 56.5t-44.5 82t-14 98.5t16 98.5t48.5 80.5t80.5 54t113 20q69 0 117 -20t78 -54t43.5 -79.5t13.5 -96.5zM336 243q0 45 -12 75t-43 30q-17 0 -28 -9t-18 -24t-9.5 -34t-2.5 -39 q0 -22 2.5 -42t9.5 -35.5t17.5 -24.5t27.5 -9t28 9.5t17 25t8.5 35.5t2.5 42zM344 563q-14 -14 -28 -19t-31 -5q-19 0 -38.5 12t-33.5 23l86 115q13 17 29 31t42 14q24 0 49 -17.5t44 -34.5z" />
<glyph unicode="&#xf4;" horiz-adv-x="560" d="M535 246q0 -51 -14 -98.5t-44.5 -83.5t-79 -57.5t-118.5 -21.5q-69 0 -117 21t-78.5 56.5t-44.5 82t-14 98.5t16 98.5t48.5 80.5t80.5 54t113 20q69 0 117 -20t78 -54t43.5 -79.5t13.5 -96.5zM336 243q0 45 -12 75t-43 30q-17 0 -28 -9t-18 -24t-9.5 -34t-2.5 -39 q0 -22 2.5 -42t9.5 -35.5t17.5 -24.5t27.5 -9t28 9.5t17 25t8.5 35.5t2.5 42zM284 630l-49 -58q-26 -30 -69 -30q-18 0 -33.5 5.5t-25.5 13.5l85 126q16 23 39.5 36t54.5 13q58 0 88 -43l88 -132q-28 -19 -58 -19q-21 0 -38.5 7.5t-34.5 26.5z" />
<glyph unicode="&#xf5;" horiz-adv-x="560" d="M535 246q0 -51 -14 -98.5t-44.5 -83.5t-79 -57.5t-118.5 -21.5q-69 0 -117 21t-78.5 56.5t-44.5 82t-14 98.5t16 98.5t48.5 80.5t80.5 54t113 20q69 0 117 -20t78 -54t43.5 -79.5t13.5 -96.5zM336 243q0 45 -12 75t-43 30q-17 0 -28 -9t-18 -24t-9.5 -34t-2.5 -39 q0 -22 2.5 -42t9.5 -35.5t17.5 -24.5t27.5 -9t28 9.5t17 25t8.5 35.5t2.5 42zM373 558q-27 0 -47.5 5.5t-37.5 12.5t-31.5 12.5t-29.5 5.5q-25 0 -42 -11.5t-34 -31.5l-33 34q-17 17 -17 35q0 22 23 43q40 37 96 37q23 0 41 -5.5t33.5 -12.5t30 -12.5t31.5 -5.5 q23 0 35.5 10.5t30.5 33.5l30 -38q17 -23 17 -41q0 -19 -9 -32.5t-22.5 -22t-31 -12.5t-33.5 -4z" />
<glyph unicode="&#xf6;" horiz-adv-x="560" d="M535 246q0 -51 -14 -98.5t-44.5 -83.5t-79 -57.5t-118.5 -21.5q-69 0 -117 21t-78.5 56.5t-44.5 82t-14 98.5t16 98.5t48.5 80.5t80.5 54t113 20q69 0 117 -20t78 -54t43.5 -79.5t13.5 -96.5zM336 243q0 45 -12 75t-43 30q-17 0 -28 -9t-18 -24t-9.5 -34t-2.5 -39 q0 -22 2.5 -42t9.5 -35.5t17.5 -24.5t27.5 -9t28 9.5t17 25t8.5 35.5t2.5 42zM485 629q0 -37 -24.5 -58.5t-59.5 -21.5t-59.5 21.5t-24.5 58.5q0 36 24.5 58t59.5 22t59.5 -22t24.5 -58zM251 629q0 -37 -24.5 -58.5t-59.5 -21.5t-59.5 21.5t-24.5 58.5q0 36 24.5 58t59.5 22 t59.5 -22t24.5 -58z" />
<glyph unicode="&#xf7;" horiz-adv-x="600" d="M391 536q0 -37 -26 -62t-65 -25t-65 25t-26 62q0 38 26 62.5t65 24.5t65 -24.5t26 -62.5zM53 252v160h494v-160h-494zM391 128q0 -38 -26 -62.5t-65 -24.5t-65 24.5t-26 62.5q0 37 26 62t65 25t65 -25t26 -62z" />
<glyph unicode="&#xf8;" horiz-adv-x="560" d="M535 246q0 -51 -14 -98.5t-44.5 -83.5t-79 -57.5t-118.5 -21.5q-32 0 -58.5 4.5t-49.5 12.5l-65 -102l-56 32l65 100q-48 36 -69 91.5t-21 119.5q0 52 16 98.5t48.5 80.5t80.5 54t113 20q34 0 63 -5.5t53 -14.5l58 89l55 -32l-57 -89q42 -35 61 -86.5t19 -111.5zM223 242 v-19.5t2 -18.5l85 133q-11 11 -29 11q-17 0 -28 -9t-18 -24t-9.5 -34t-2.5 -39zM336 258l-79 -122q13 -5 23 -5q17 0 28 9.5t17 25t8.5 35.5t2.5 42v15z" />
<glyph unicode="&#xf9;" horiz-adv-x="555" d="M515 0h-147q-26 0 -34.5 11t-8.5 40q-12 -21 -44.5 -40.5t-87.5 -19.5q-63 0 -98 30t-47 79q-3 11 -4.5 25t-2 29t-1 29t-0.5 24v272q25 5 44.5 6t32.5 1q24 0 46 -4.5t39.5 -15.5t28 -31.5t10.5 -51.5v-190q0 -22 6.5 -35t28.5 -13t30 9.5t8 20.5v304q25 5 44.5 6 t32.5 1q24 0 46.5 -4.5t39.5 -16t27.5 -32t10.5 -52.5v-381zM131 682q19 17 44 34.5t49 17.5q26 0 42 -14t29 -31l86 -115q-14 -11 -33.5 -23t-38.5 -12q-17 0 -31 5t-28 19z" />
<glyph unicode="&#xfa;" horiz-adv-x="555" d="M515 0h-147q-26 0 -34.5 11t-8.5 40q-12 -21 -44.5 -40.5t-87.5 -19.5q-63 0 -98 30t-47 79q-3 11 -4.5 25t-2 29t-1 29t-0.5 24v272q25 5 44.5 6t32.5 1q24 0 46 -4.5t39.5 -15.5t28 -31.5t10.5 -51.5v-190q0 -22 6.5 -35t28.5 -13t30 9.5t8 20.5v304q25 5 44.5 6 t32.5 1q24 0 46.5 -4.5t39.5 -16t27.5 -32t10.5 -52.5v-381zM329 563q-14 -14 -28 -19t-31 -5q-19 0 -38.5 12t-33.5 23l86 115q13 17 29 31t42 14q24 0 49 -17.5t44 -34.5z" />
<glyph unicode="&#xfb;" horiz-adv-x="555" d="M515 0h-147q-26 0 -34.5 11t-8.5 40q-12 -21 -44.5 -40.5t-87.5 -19.5q-63 0 -98 30t-47 79q-3 11 -4.5 25t-2 29t-1 29t-0.5 24v272q25 5 44.5 6t32.5 1q24 0 46 -4.5t39.5 -15.5t28 -31.5t10.5 -51.5v-190q0 -22 6.5 -35t28.5 -13t30 9.5t8 20.5v304q25 5 44.5 6 t32.5 1q24 0 46.5 -4.5t39.5 -16t27.5 -32t10.5 -52.5v-381zM282 630l-49 -58q-26 -30 -69 -30q-18 0 -33.5 5.5t-25.5 13.5l85 126q16 23 39.5 36t54.5 13q58 0 88 -43l88 -132q-28 -19 -58 -19q-21 0 -38.5 7.5t-34.5 26.5z" />
<glyph unicode="&#xfc;" horiz-adv-x="555" d="M515 0h-147q-26 0 -34.5 11t-8.5 40q-12 -21 -44.5 -40.5t-87.5 -19.5q-63 0 -98 30t-47 79q-3 11 -4.5 25t-2 29t-1 29t-0.5 24v272q25 5 44.5 6t32.5 1q24 0 46 -4.5t39.5 -15.5t28 -31.5t10.5 -51.5v-190q0 -22 6.5 -35t28.5 -13t30 9.5t8 20.5v304q25 5 44.5 6 t32.5 1q24 0 46.5 -4.5t39.5 -16t27.5 -32t10.5 -52.5v-381zM476 629q0 -37 -24.5 -58.5t-59.5 -21.5t-59.5 21.5t-24.5 58.5q0 36 24.5 58t59.5 22t59.5 -22t24.5 -58zM242 629q0 -37 -24.5 -58.5t-59.5 -21.5t-59.5 21.5t-24.5 58.5q0 36 24.5 58t59.5 22t59.5 -22 t24.5 -58z" />
<glyph unicode="&#xfd;" horiz-adv-x="542" d="M410 -13q-3 -10 -7 -23t-9.5 -26.5t-11 -26.5t-11.5 -22q-35 -63 -86 -89.5t-123 -26.5q-51 0 -85 15.5t-34 59.5q0 17 8 40.5t27 56.5q17 -11 36 -15.5t33 -4.5q36 0 56 17.5t29 65.5h-79l-148 461q22 8 50.5 12.5t54.5 4.5q30 0 51 -8.5t35 -22.5t21.5 -32.5 t11.5 -37.5l44 -220h4l44 221q8 40 35 70t80 30t101 -19zM341 563q-14 -14 -28 -19t-31 -5q-19 0 -38.5 12t-33.5 23l86 115q13 17 29 31t42 14q24 0 49 -17.5t44 -34.5z" />
<glyph unicode="&#xfe;" horiz-adv-x="566" d="M40 702q24 5 43.5 6t32.5 1q24 0 46 -4.5t38.5 -16t26.5 -32t10 -52.5v-161q15 20 46 36.5t76 16.5q31 0 63.5 -11.5t59 -39t43 -74t16.5 -115.5q0 -81 -17 -133t-45 -82.5t-62.5 -42t-69.5 -11.5q-26 0 -46 5.5t-34 13t-21 13.5q-7 4 -8 7v-244h-198v920zM332 257 q0 45 -13.5 70.5t-49.5 25.5q-12 0 -19 -1.5t-10 -2.5v-202q6 -4 15.5 -5.5t17.5 -1.5q34 0 46.5 32.5t12.5 84.5z" />
<glyph unicode="&#xff;" horiz-adv-x="542" d="M410 -13q-3 -10 -7 -23t-9.5 -26.5t-11 -26.5t-11.5 -22q-35 -63 -86 -89.5t-123 -26.5q-51 0 -85 15.5t-34 59.5q0 17 8 40.5t27 56.5q17 -11 36 -15.5t33 -4.5q36 0 56 17.5t29 65.5h-79l-148 461q22 8 50.5 12.5t54.5 4.5q30 0 51 -8.5t35 -22.5t21.5 -32.5 t11.5 -37.5l44 -220h4l44 221q8 40 35 70t80 30t101 -19zM476 629q0 -37 -24.5 -58.5t-59.5 -21.5t-59.5 21.5t-24.5 58.5q0 36 24.5 58t59.5 22t59.5 -22t24.5 -58zM242 629q0 -37 -24.5 -58.5t-59.5 -21.5t-59.5 21.5t-24.5 58.5q0 36 24.5 58t59.5 22t59.5 -22t24.5 -58z " />
<glyph unicode="&#x100;" horiz-adv-x="670" d="M470 0l-55 158h-166l-51 -158h-198l215 655q19 8 51 14.5t70 6.5q16 0 36 -2t39 -11t35.5 -27t27.5 -49l196 -587h-200zM353 412q-5 21 -11.5 50.5t-7.5 49.5h-3q-2 -21 -8 -51t-11 -48l-35 -127h109zM261 736q-52 0 -69.5 17t-17.5 49q0 16 0.5 24.5t2.5 24.5h230 q45 0 66.5 -13.5t21.5 -54.5q0 -12 -0.5 -22.5t-1.5 -24.5h-232z" />
<glyph unicode="&#x101;" horiz-adv-x="524" d="M484 109q0 -25 4 -54.5t11 -51.5q-14 -4 -25 -6.5t-21.5 -4t-22 -2t-25.5 -0.5q-81 0 -94 46q-17 -17 -49.5 -31t-83.5 -14q-31 0 -59.5 8t-50.5 25.5t-35 46t-13 69.5q0 58 30.5 92.5t74 52.5t90 23t79.5 5v14q0 28 -18.5 35.5t-44.5 7.5q-35 0 -69 -9.5t-76 -29.5 q-19 23 -28.5 45t-9.5 33q0 15 10 28t41 29q27 14 73 22t94 8q117 0 167.5 -46t50.5 -146v-195zM297 224q-19 -2 -36 -6t-29.5 -11.5t-20 -19.5t-7.5 -31q0 -23 12.5 -35.5t34.5 -12.5q18 0 32 8t14 24v84zM188 558q-52 0 -69.5 17t-17.5 49q0 16 0.5 27t2.5 27h230 q45 0 66.5 -14.5t21.5 -58.5q0 -12 -0.5 -22.5t-1.5 -24.5h-232z" />
<glyph unicode="&#x102;" horiz-adv-x="670" d="M470 0l-55 158h-166l-51 -158h-198l215 655q19 8 51 14.5t70 6.5q16 0 36 -2t39 -11t35.5 -27t27.5 -49l196 -587h-200zM353 412q-5 21 -11.5 50.5t-7.5 49.5h-3q-2 -21 -8 -51t-11 -48l-35 -127h109zM476 769q-50 -56 -142 -56q-91 0 -141 56q-13 14 -26.5 40.5 t-15.5 61.5q10 7 29 13.5t36 6.5q16 0 24.5 -9t16.5 -24q15 -28 31 -38.5t47 -10.5q30 0 46 10.5t31 38.5q8 15 16.5 24t24.5 9q17 0 36 -6.5t29 -13.5q-2 -35 -15.5 -61.5t-26.5 -40.5z" />
<glyph unicode="&#x103;" horiz-adv-x="524" d="M484 109q0 -25 4 -54.5t11 -51.5q-14 -4 -25 -6.5t-21.5 -4t-22 -2t-25.5 -0.5q-81 0 -94 46q-17 -17 -49.5 -31t-83.5 -14q-31 0 -59.5 8t-50.5 25.5t-35 46t-13 69.5q0 58 30.5 92.5t74 52.5t90 23t79.5 5v14q0 28 -18.5 35.5t-44.5 7.5q-35 0 -69 -9.5t-76 -29.5 q-19 23 -28.5 45t-9.5 33q0 15 10 28t41 29q27 14 73 22t94 8q117 0 167.5 -46t50.5 -146v-195zM297 224q-19 -2 -36 -6t-29.5 -11.5t-20 -19.5t-7.5 -31q0 -23 12.5 -35.5t34.5 -12.5q18 0 32 8t14 24v84zM416 600q-50 -56 -142 -56q-91 0 -141 56q-13 14 -26.5 40.5 t-15.5 61.5q10 7 29 13.5t36 6.5q16 0 24.5 -9t16.5 -24q15 -28 31 -38.5t47 -10.5q30 0 46 10.5t31 38.5q8 15 16.5 24t24.5 9q17 0 36 -6.5t29 -13.5q-2 -35 -15.5 -61.5t-26.5 -40.5z" />
<glyph unicode="&#x104;" horiz-adv-x="670" d="M670 0q-16 -2 -31.5 -6t-29.5 -12q-35 -19 -46 -42.5t-11 -44.5q0 -34 31 -34q14 0 26 8t19 16q8 -10 17.5 -25t9.5 -32q0 -15 -9 -26.5t-24 -19t-34 -11.5t-38 -4q-57 0 -89.5 24.5t-32.5 75.5q0 42 24.5 77.5t69.5 55.5h-52l-55 158h-166l-51 -158h-198l215 655 q19 8 51 14.5t70 6.5q16 0 36 -2t39 -11t35.5 -27t27.5 -49zM353 412q-5 21 -11.5 50.5t-7.5 49.5h-3q-2 -21 -8 -51t-11 -48l-35 -127h109z" />
<glyph unicode="&#x105;" horiz-adv-x="524" d="M434 -139q14 0 25 8.5t18 16.5q10 -11 19.5 -26.5t9.5 -29.5q0 -16 -10 -28t-26 -19.5t-34.5 -11.5t-36.5 -4q-51 0 -84 23t-33 72q0 45 26.5 77t59.5 53q-26 2 -39 14.5t-18 29.5q-17 -17 -49.5 -31t-83.5 -14q-31 0 -59.5 8t-50.5 25.5t-35 46t-13 69.5q0 58 30.5 92.5 t74 52.5t90 23t79.5 5v14q0 28 -18.5 35.5t-44.5 7.5q-35 0 -69 -9.5t-76 -29.5q-19 23 -28.5 45t-9.5 33q0 15 10 28t41 29q27 14 73 22t94 8q117 0 167.5 -46t50.5 -146v-195q0 -25 4 -54.5t11 -51.5q-21 -6 -37.5 -19t-28.5 -28.5t-18 -32.5t-6 -30q0 -32 25 -32z M297 224q-19 -2 -36 -6t-29.5 -11.5t-20 -19.5t-7.5 -31q0 -23 12.5 -35.5t34.5 -12.5q18 0 32 8t14 24v84z" />
<glyph unicode="&#x106;" horiz-adv-x="596" d="M545 36q-6 -6 -19.5 -15t-35 -18t-53 -15t-73.5 -6q-84 0 -146.5 25.5t-103.5 72t-61 110.5t-20 141q0 76 19.5 140.5t59.5 111.5t102 74t146 27q39 0 70 -6t55 -15t41 -19t27 -19q11 -10 23 -25.5t12 -34.5q0 -20 -18.5 -46.5t-47.5 -54.5q-35 32 -65.5 48t-71.5 16 t-69 -17t-45 -44t-25 -61t-8 -68q0 -38 7.5 -74t24.5 -64t45.5 -45t69.5 -17q40 0 69 13.5t61 42.5q8 -9 18 -21.5t19 -26t15 -28t6 -27.5q0 -30 -28 -55zM388 729q-22 -14 -44 -14q-26 0 -45.5 15t-34.5 35l101 84q14 11 29.5 19.5t34.5 8.5q30 0 52.5 -21t40.5 -44z" />
<glyph unicode="&#x107;" horiz-adv-x="465" d="M320 124q28 0 51.5 11t44.5 29q7 -9 14.5 -20t13.5 -23t10 -24t4 -22q0 -17 -7.5 -31t-30.5 -28q-22 -14 -57 -22.5t-80 -8.5q-41 0 -86.5 10.5t-83.5 39t-63 78.5t-25 130q0 75 25.5 123.5t64 77.5t83.5 40.5t84 11.5q35 0 69.5 -7t60.5 -22q24 -14 36 -29.5t12 -37.5 q0 -18 -12 -43t-29 -51q-28 23 -51.5 34.5t-55.5 11.5q-40 0 -62.5 -28t-22.5 -77q0 -25 4.5 -47.5t15.5 -39t28.5 -26.5t44.5 -10zM315 563q-14 -14 -28 -19t-31 -5q-19 0 -38.5 12t-33.5 23l86 115q13 17 29 31t42 14q24 0 49 -17.5t44 -34.5z" />
<glyph unicode="&#x108;" horiz-adv-x="596" d="M545 36q-6 -6 -19.5 -15t-35 -18t-53 -15t-73.5 -6q-84 0 -146.5 25.5t-103.5 72t-61 110.5t-20 141q0 76 19.5 140.5t59.5 111.5t102 74t146 27q39 0 70 -6t55 -15t41 -19t27 -19q11 -10 23 -25.5t12 -34.5q0 -20 -18.5 -46.5t-47.5 -54.5q-35 32 -65.5 48t-71.5 16 t-69 -17t-45 -44t-25 -61t-8 -68q0 -38 7.5 -74t24.5 -64t45.5 -45t69.5 -17q40 0 69 13.5t61 42.5q8 -9 18 -21.5t19 -26t15 -28t6 -27.5q0 -30 -28 -55zM348 779l-52 -47q-12 -11 -25.5 -15t-26.5 -4q-18 0 -36.5 6t-24.5 14l78 107q17 23 39.5 32t49.5 9q26 0 48 -8 t38 -30l81 -110q-8 -8 -25 -14t-33 -6q-14 0 -29.5 4t-29.5 16z" />
<glyph unicode="&#x109;" horiz-adv-x="465" d="M320 124q28 0 51.5 11t44.5 29q7 -9 14.5 -20t13.5 -23t10 -24t4 -22q0 -17 -7.5 -31t-30.5 -28q-22 -14 -57 -22.5t-80 -8.5q-41 0 -86.5 10.5t-83.5 39t-63 78.5t-25 130q0 75 25.5 123.5t64 77.5t83.5 40.5t84 11.5q35 0 69.5 -7t60.5 -22q24 -14 36 -29.5t12 -37.5 q0 -18 -12 -43t-29 -51q-28 23 -51.5 34.5t-55.5 11.5q-40 0 -62.5 -28t-22.5 -77q0 -25 4.5 -47.5t15.5 -39t28.5 -26.5t44.5 -10zM274 630l-49 -58q-26 -30 -69 -30q-18 0 -33.5 5.5t-25.5 13.5l85 126q16 23 39.5 36t54.5 13q58 0 88 -43l88 -132q-28 -19 -58 -19 q-21 0 -38.5 7.5t-34.5 26.5z" />
<glyph unicode="&#x10a;" horiz-adv-x="596" d="M545 36q-6 -6 -19.5 -15t-35 -18t-53 -15t-73.5 -6q-84 0 -146.5 25.5t-103.5 72t-61 110.5t-20 141q0 76 19.5 140.5t59.5 111.5t102 74t146 27q39 0 70 -6t55 -15t41 -19t27 -19q11 -10 23 -25.5t12 -34.5q0 -20 -18.5 -46.5t-47.5 -54.5q-35 32 -65.5 48t-71.5 16 t-69 -17t-45 -44t-25 -61t-8 -68q0 -38 7.5 -74t24.5 -64t45.5 -45t69.5 -17q40 0 69 13.5t61 42.5q8 -9 18 -21.5t19 -26t15 -28t6 -27.5q0 -30 -28 -55zM443 807q0 -38 -25 -59.5t-61 -21.5t-61 21.5t-25 59.5t25 60.5t61 22.5t61 -22.5t25 -60.5z" />
<glyph unicode="&#x10b;" horiz-adv-x="465" d="M320 124q28 0 51.5 11t44.5 29q7 -9 14.5 -20t13.5 -23t10 -24t4 -22q0 -17 -7.5 -31t-30.5 -28q-22 -14 -57 -22.5t-80 -8.5q-41 0 -86.5 10.5t-83.5 39t-63 78.5t-25 130q0 75 25.5 123.5t64 77.5t83.5 40.5t84 11.5q35 0 69.5 -7t60.5 -22q24 -14 36 -29.5t12 -37.5 q0 -18 -12 -43t-29 -51q-28 23 -51.5 34.5t-55.5 11.5q-40 0 -62.5 -28t-22.5 -77q0 -25 4.5 -47.5t15.5 -39t28.5 -26.5t44.5 -10zM366 620q0 -38 -25 -59.5t-61 -21.5t-61 21.5t-25 59.5t25 60.5t61 22.5t61 -22.5t25 -60.5z" />
<glyph unicode="&#x10c;" horiz-adv-x="596" d="M545 36q-6 -6 -19.5 -15t-35 -18t-53 -15t-73.5 -6q-84 0 -146.5 25.5t-103.5 72t-61 110.5t-20 141q0 76 19.5 140.5t59.5 111.5t102 74t146 27q39 0 70 -6t55 -15t41 -19t27 -19q11 -10 23 -25.5t12 -34.5q0 -20 -18.5 -46.5t-47.5 -54.5q-35 32 -65.5 48t-71.5 16 t-69 -17t-45 -44t-25 -61t-8 -68q0 -38 7.5 -74t24.5 -64t45.5 -45t69.5 -17q40 0 69 13.5t61 42.5q8 -9 18 -21.5t19 -26t15 -28t6 -27.5q0 -30 -28 -55zM359 821l52 47q12 11 25.5 15t26.5 4q18 0 36.5 -6t24.5 -14l-78 -107q-17 -23 -39.5 -32t-49.5 -9q-26 0 -48 8 t-38 30l-81 110q8 8 25 14t33 6q14 0 29.5 -4t29.5 -16z" />
<glyph unicode="&#x10d;" horiz-adv-x="465" d="M320 124q28 0 51.5 11t44.5 29q7 -9 14.5 -20t13.5 -23t10 -24t4 -22q0 -17 -7.5 -31t-30.5 -28q-22 -14 -57 -22.5t-80 -8.5q-41 0 -86.5 10.5t-83.5 39t-63 78.5t-25 130q0 75 25.5 123.5t64 77.5t83.5 40.5t84 11.5q35 0 69.5 -7t60.5 -22q24 -14 36 -29.5t12 -37.5 q0 -18 -12 -43t-29 -51q-28 23 -51.5 34.5t-55.5 11.5q-40 0 -62.5 -28t-22.5 -77q0 -25 4.5 -47.5t15.5 -39t28.5 -26.5t44.5 -10zM325 698q17 19 34.5 26.5t38.5 7.5q30 0 58 -19l-88 -132q-30 -43 -88 -43q-31 0 -54.5 13t-39.5 36l-85 126q10 8 25.5 13.5t33.5 5.5 q43 0 69 -30l49 -58z" />
<glyph unicode="&#x10e;" horiz-adv-x="656" d="M621 350q0 -71 -18.5 -134.5t-58 -111.5t-101 -76t-147.5 -28h-241v662q78 10 128.5 12t82.5 2q105 0 173.5 -26t109 -70.5t56.5 -104t16 -125.5zM417 348q0 36 -6 68t-21 56.5t-41.5 38.5t-66.5 14h-12t-13 -1v-373h24q44 0 71 18.5t41.5 47.5t19 64t4.5 67zM283 821 l52 47q12 11 25.5 15t26.5 4q18 0 36.5 -6t24.5 -14l-78 -107q-17 -23 -39.5 -32t-49.5 -9q-26 0 -48 8t-38 30l-81 110q8 8 25 14t33 6q14 0 29.5 -4t29.5 -16z" />
<glyph unicode="&#x10f;" horiz-adv-x="664" d="M371 0q-15 0 -27 7t-12 30q-14 -18 -44.5 -32.5t-76.5 -14.5q-34 0 -67 11t-59.5 38.5t-43 75t-16.5 119.5t15.5 122t41.5 81t60 45t71 14q24 0 43 -5t32.5 -11.5t22 -13t11.5 -9.5v245q24 5 43 6t32 1q24 0 46.5 -4.5t39.5 -16t27.5 -32t10.5 -52.5v-604h-150zM229 237 q0 -24 3 -44.5t10.5 -36t19.5 -24.5t30 -9q12 0 19 1.5t10 2.5v215q-6 4 -15.5 5.5t-17.5 1.5q-34 0 -46.5 -30t-12.5 -82zM683 527q-5 -38 -31 -54t-63 -16q-6 0 -12 0.5t-12 1.5v153q0 45 26 71t74 26q7 0 19.5 -0.5t19.5 -1.5z" />
<glyph unicode="&#x110;" horiz-adv-x="684" d="M83 307h-63v80h63v275q78 10 128.5 12t82.5 2q105 0 173.5 -26t109 -70.5t56.5 -104t16 -125.5q0 -71 -18.5 -134.5t-58 -111.5t-101 -76t-147.5 -28h-241v307zM309 151q44 0 71 18.5t41.5 47.5t19 64t4.5 67q0 36 -6 68t-21 56.5t-41.5 38.5t-66.5 14h-12t-13 -1v-137 h85v-80h-85v-156h24z" />
<glyph unicode="&#x111;" horiz-adv-x="561" d="M229 227q0 -48 13.5 -76t49.5 -28q12 0 19 1.5t10 2.5v185q-6 4 -15.5 5.5t-17.5 1.5q-34 0 -46.5 -23.5t-12.5 -68.5zM322 702q24 5 43 6t32 1q24 0 46.5 -4.5t39.5 -16t27.5 -32t10.5 -52.5v-2h83v-79h-83v-523h-150q-15 0 -27 7t-12 30q-14 -18 -44.5 -32.5 t-76.5 -14.5q-34 0 -67 9.5t-59.5 35t-43 71.5t-16.5 118q0 68 15.5 114.5t41.5 75t60 40.5t71 12q24 0 43 -5t32.5 -11.5t22 -13t11.5 -9.5v96h-147v79h147v100z" />
<glyph unicode="&#x112;" horiz-adv-x="553" d="M417 152q34 0 56 -8.5t34 -22.5t16.5 -31t4.5 -34t-0.5 -28t-1.5 -28h-471v671h456q2 -20 3 -31.5t1 -28.5t-5 -33.5t-17 -30t-33 -22t-53 -8.5h-150v-101h193v-153h-193v-111h160zM204 736q-52 0 -69.5 17t-17.5 49q0 16 0.5 24.5t2.5 24.5h230q45 0 66.5 -13.5 t21.5 -54.5q0 -12 -0.5 -22.5t-1.5 -24.5h-232z" />
<glyph unicode="&#x113;" horiz-adv-x="515" d="M327 125q40 0 67 12t54 32q13 -20 26 -46t13 -46q0 -17 -9 -32t-32 -29q-22 -13 -59 -22t-94 -9q-41 0 -88 10t-87 39t-66.5 81.5t-26.5 137.5q0 63 21.5 109t56 76t79 44t89.5 14q61 0 104 -18t69.5 -48t38.5 -70t12 -84v-13.5t-0.5 -17.5t-1 -17t-1.5 -12h-267 q5 -38 28 -64.5t74 -26.5zM318 299q0 42 -11.5 57t-37.5 15q-47 0 -47 -72h96zM195 558q-52 0 -69.5 17t-17.5 49q0 16 0.5 27t2.5 27h230q45 0 66.5 -14.5t21.5 -58.5q0 -12 -0.5 -22.5t-1.5 -24.5h-232z" />
<glyph unicode="&#x114;" horiz-adv-x="553" d="M417 152q34 0 56 -8.5t34 -22.5t16.5 -31t4.5 -34t-0.5 -28t-1.5 -28h-471v671h456q2 -20 3 -31.5t1 -28.5t-5 -33.5t-17 -30t-33 -22t-53 -8.5h-150v-101h193v-153h-193v-111h160zM423 769q-50 -56 -142 -56q-91 0 -141 56q-13 14 -26.5 40.5t-15.5 61.5q10 7 29 13.5 t36 6.5q16 0 24.5 -9t16.5 -24q15 -28 31 -38.5t47 -10.5q30 0 46 10.5t31 38.5q8 15 16.5 24t24.5 9q17 0 36 -6.5t29 -13.5q-2 -35 -15.5 -61.5t-26.5 -40.5z" />
<glyph unicode="&#x115;" horiz-adv-x="515" d="M327 125q40 0 67 12t54 32q13 -20 26 -46t13 -46q0 -17 -9 -32t-32 -29q-22 -13 -59 -22t-94 -9q-41 0 -88 10t-87 39t-66.5 81.5t-26.5 137.5q0 63 21.5 109t56 76t79 44t89.5 14q61 0 104 -18t69.5 -48t38.5 -70t12 -84v-13.5t-0.5 -17.5t-1 -17t-1.5 -12h-267 q5 -38 28 -64.5t74 -26.5zM318 299q0 42 -11.5 57t-37.5 15q-47 0 -47 -72h96zM414 600q-50 -56 -142 -56q-91 0 -141 56q-13 14 -26.5 40.5t-15.5 61.5q10 7 29 13.5t36 6.5q16 0 24.5 -9t16.5 -24q15 -28 31 -38.5t47 -10.5q30 0 46 10.5t31 38.5q8 15 16.5 24t24.5 9 q17 0 36 -6.5t29 -13.5q-2 -35 -15.5 -61.5t-26.5 -40.5z" />
<glyph unicode="&#x116;" horiz-adv-x="553" d="M417 152q34 0 56 -8.5t34 -22.5t16.5 -31t4.5 -34t-0.5 -28t-1.5 -28h-471v671h456q2 -20 3 -31.5t1 -28.5t-5 -33.5t-17 -30t-33 -22t-53 -8.5h-150v-101h193v-153h-193v-111h160zM367 807q0 -38 -25 -59.5t-61 -21.5t-61 21.5t-25 59.5t25 60.5t61 22.5t61 -22.5 t25 -60.5z" />
<glyph unicode="&#x117;" horiz-adv-x="515" d="M327 125q40 0 67 12t54 32q13 -20 26 -46t13 -46q0 -17 -9 -32t-32 -29q-22 -13 -59 -22t-94 -9q-41 0 -88 10t-87 39t-66.5 81.5t-26.5 137.5q0 63 21.5 109t56 76t79 44t89.5 14q61 0 104 -18t69.5 -48t38.5 -70t12 -84v-13.5t-0.5 -17.5t-1 -17t-1.5 -12h-267 q5 -38 28 -64.5t74 -26.5zM318 299q0 42 -11.5 57t-37.5 15q-47 0 -47 -72h96zM362 620q0 -38 -25 -59.5t-61 -21.5t-61 21.5t-25 59.5t25 60.5t61 22.5t61 -22.5t25 -60.5z" />
<glyph unicode="&#x118;" horiz-adv-x="553" d="M417 152q34 0 56 -8.5t34 -22.5t16.5 -31t4.5 -34t-0.5 -28t-1.5 -28q-22 -9 -41 -22.5t-33 -28.5t-22 -31t-8 -29q0 -28 25 -28q14 0 25.5 9t18.5 17q9 -10 18.5 -26t9.5 -33q0 -15 -9.5 -26.5t-25 -19t-34.5 -11.5t-38 -4q-52 0 -84.5 22.5t-32.5 70.5t27.5 83t67.5 57 h-335v671h456q2 -20 3 -31.5t1 -28.5t-5 -33.5t-17 -30t-33 -22t-53 -8.5h-150v-101h193v-153h-193v-111h160z" />
<glyph unicode="&#x119;" horiz-adv-x="515" d="M387 -139q14 0 25.5 8.5t18.5 16.5q10 -11 19 -26t9 -30q0 -16 -10 -28t-26 -19.5t-34.5 -11.5t-36.5 -4q-51 0 -83.5 22.5t-32.5 71.5q0 40 22 70.5t49 53.5h-20q-42 0 -88 12t-84.5 42t-64 82t-25.5 132q0 63 21.5 109t56 76t79 44t89.5 14q61 0 104 -18t69.5 -48 t38.5 -70t12 -84v-13.5t-0.5 -17.5t-1 -17t-1.5 -12h-267q5 -38 28 -64.5t74 -26.5q40 0 67 12t54 32q13 -20 26 -46t13 -46q0 -17 -8.5 -31t-29.5 -31q-36 -28 -61.5 -60t-25.5 -65q0 -29 25 -29zM318 299q0 42 -11.5 57t-37.5 15q-47 0 -47 -72h96z" />
<glyph unicode="&#x11a;" horiz-adv-x="553" d="M417 152q34 0 56 -8.5t34 -22.5t16.5 -31t4.5 -34t-0.5 -28t-1.5 -28h-471v671h456q2 -20 3 -31.5t1 -28.5t-5 -33.5t-17 -30t-33 -22t-53 -8.5h-150v-101h193v-153h-193v-111h160zM283 821l52 47q12 11 25.5 15t26.5 4q18 0 36.5 -6t24.5 -14l-78 -107 q-17 -23 -39.5 -32t-49.5 -9q-26 0 -48 8t-38 30l-81 110q8 8 25 14t33 6q14 0 29.5 -4t29.5 -16z" />
<glyph unicode="&#x11b;" horiz-adv-x="515" d="M327 125q40 0 67 12t54 32q13 -20 26 -46t13 -46q0 -17 -9 -32t-32 -29q-22 -13 -59 -22t-94 -9q-41 0 -88 10t-87 39t-66.5 81.5t-26.5 137.5q0 63 21.5 109t56 76t79 44t89.5 14q61 0 104 -18t69.5 -48t38.5 -70t12 -84v-13.5t-0.5 -17.5t-1 -17t-1.5 -12h-267 q5 -38 28 -64.5t74 -26.5zM318 299q0 42 -11.5 57t-37.5 15q-47 0 -47 -72h96zM323 698q17 19 34.5 26.5t38.5 7.5q30 0 58 -19l-88 -132q-30 -43 -88 -43q-31 0 -54.5 13t-39.5 36l-85 126q10 8 25.5 13.5t33.5 5.5q43 0 69 -30l49 -58z" />
<glyph unicode="&#x11c;" horiz-adv-x="663" d="M392 133q20 0 37 3v226h88q37 0 57 -8.5t30 -21.5t12 -30t2 -33v-223q-10 -9 -29.5 -20t-49.5 -20.5t-72 -16.5t-96 -7q-86 0 -149.5 26t-105.5 72.5t-62.5 110.5t-20.5 140q0 74 21 138.5t64 112t107 75t150 27.5q38 0 70 -5.5t57.5 -14t44 -18.5t29.5 -18 q14 -11 23.5 -25t9.5 -34q0 -22 -18 -49t-47 -55q-34 30 -69 46.5t-83 16.5q-44 0 -73.5 -17t-47.5 -44t-25.5 -61.5t-7.5 -70.5q0 -39 7.5 -75.5t25.5 -64.5t47.5 -45t73.5 -17zM362 779l-52 -47q-12 -11 -25.5 -15t-26.5 -4q-18 0 -36.5 6t-24.5 14l78 107q17 23 39.5 32 t49.5 9q26 0 48 -8t38 -30l81 -110q-8 -8 -25 -14t-33 -6q-14 0 -29.5 4t-29.5 16z" />
<glyph unicode="&#x11d;" horiz-adv-x="560" d="M520 46q0 -29 -2 -57.5t-10 -54.5q-21 -71 -83.5 -116t-169.5 -45q-61 0 -100.5 8.5t-63.5 21.5q-26 14 -34 31t-8 33q0 17 13.5 45.5t31.5 54.5q23 -18 60.5 -35.5t79.5 -17.5q48 0 72.5 22.5t24.5 81.5v26q-7 -11 -20 -19.5t-28.5 -14.5t-33 -9t-34.5 -3 q-38 0 -72.5 12.5t-60.5 40.5t-41.5 73.5t-15.5 112.5q0 69 15.5 118.5t42 80.5t60.5 45.5t71 14.5q26 0 45.5 -6t33.5 -14t23.5 -18t15.5 -17q13 20 39 32.5t71 12.5q14 0 33.5 -1.5t44.5 -6.5v-432zM228 241q0 -48 13.5 -78t49.5 -30q10 0 18 1.5t11 2.5v205 q-6 4 -15.5 5.5t-17.5 1.5q-34 0 -46.5 -28t-12.5 -80zM301 630l-49 -58q-26 -30 -69 -30q-18 0 -33.5 5.5t-25.5 13.5l85 126q16 23 39.5 36t54.5 13q58 0 88 -43l88 -132q-28 -19 -58 -19q-21 0 -38.5 7.5t-34.5 26.5z" />
<glyph unicode="&#x11e;" horiz-adv-x="663" d="M392 133q20 0 37 3v226h88q37 0 57 -8.5t30 -21.5t12 -30t2 -33v-223q-10 -9 -29.5 -20t-49.5 -20.5t-72 -16.5t-96 -7q-86 0 -149.5 26t-105.5 72.5t-62.5 110.5t-20.5 140q0 74 21 138.5t64 112t107 75t150 27.5q38 0 70 -5.5t57.5 -14t44 -18.5t29.5 -18 q14 -11 23.5 -25t9.5 -34q0 -22 -18 -49t-47 -55q-34 30 -69 46.5t-83 16.5q-44 0 -73.5 -17t-47.5 -44t-25.5 -61.5t-7.5 -70.5q0 -39 7.5 -75.5t25.5 -64.5t47.5 -45t73.5 -17zM507 769q-50 -56 -142 -56q-91 0 -141 56q-13 14 -26.5 40.5t-15.5 61.5q10 7 29 13.5t36 6.5 q16 0 24.5 -9t16.5 -24q15 -28 31 -38.5t47 -10.5q30 0 46 10.5t31 38.5q8 15 16.5 24t24.5 9q17 0 36 -6.5t29 -13.5q-2 -35 -15.5 -61.5t-26.5 -40.5z" />
<glyph unicode="&#x11f;" horiz-adv-x="560" d="M520 46q0 -29 -2 -57.5t-10 -54.5q-21 -71 -83.5 -116t-169.5 -45q-61 0 -100.5 8.5t-63.5 21.5q-26 14 -34 31t-8 33q0 17 13.5 45.5t31.5 54.5q23 -18 60.5 -35.5t79.5 -17.5q48 0 72.5 22.5t24.5 81.5v26q-7 -11 -20 -19.5t-28.5 -14.5t-33 -9t-34.5 -3 q-38 0 -72.5 12.5t-60.5 40.5t-41.5 73.5t-15.5 112.5q0 69 15.5 118.5t42 80.5t60.5 45.5t71 14.5q26 0 45.5 -6t33.5 -14t23.5 -18t15.5 -17q13 20 39 32.5t71 12.5q14 0 33.5 -1.5t44.5 -6.5v-432zM228 241q0 -48 13.5 -78t49.5 -30q10 0 18 1.5t11 2.5v205 q-6 4 -15.5 5.5t-17.5 1.5q-34 0 -46.5 -28t-12.5 -80zM442 600q-50 -56 -142 -56q-91 0 -141 56q-13 14 -26.5 40.5t-15.5 61.5q10 7 29 13.5t36 6.5q16 0 24.5 -9t16.5 -24q15 -28 31 -38.5t47 -10.5q30 0 46 10.5t31 38.5q8 15 16.5 24t24.5 9q17 0 36 -6.5t29 -13.5 q-2 -35 -15.5 -61.5t-26.5 -40.5z" />
<glyph unicode="&#x120;" horiz-adv-x="663" d="M392 133q20 0 37 3v226h88q37 0 57 -8.5t30 -21.5t12 -30t2 -33v-223q-10 -9 -29.5 -20t-49.5 -20.5t-72 -16.5t-96 -7q-86 0 -149.5 26t-105.5 72.5t-62.5 110.5t-20.5 140q0 74 21 138.5t64 112t107 75t150 27.5q38 0 70 -5.5t57.5 -14t44 -18.5t29.5 -18 q14 -11 23.5 -25t9.5 -34q0 -22 -18 -49t-47 -55q-34 30 -69 46.5t-83 16.5q-44 0 -73.5 -17t-47.5 -44t-25.5 -61.5t-7.5 -70.5q0 -39 7.5 -75.5t25.5 -64.5t47.5 -45t73.5 -17zM456 807q0 -38 -25 -59.5t-61 -21.5t-61 21.5t-25 59.5t25 60.5t61 22.5t61 -22.5t25 -60.5z " />
<glyph unicode="&#x121;" horiz-adv-x="560" d="M520 46q0 -29 -2 -57.5t-10 -54.5q-21 -71 -83.5 -116t-169.5 -45q-61 0 -100.5 8.5t-63.5 21.5q-26 14 -34 31t-8 33q0 17 13.5 45.5t31.5 54.5q23 -18 60.5 -35.5t79.5 -17.5q48 0 72.5 22.5t24.5 81.5v26q-7 -11 -20 -19.5t-28.5 -14.5t-33 -9t-34.5 -3 q-38 0 -72.5 12.5t-60.5 40.5t-41.5 73.5t-15.5 112.5q0 69 15.5 118.5t42 80.5t60.5 45.5t71 14.5q26 0 45.5 -6t33.5 -14t23.5 -18t15.5 -17q13 20 39 32.5t71 12.5q14 0 33.5 -1.5t44.5 -6.5v-432zM228 241q0 -48 13.5 -78t49.5 -30q10 0 18 1.5t11 2.5v205 q-6 4 -15.5 5.5t-17.5 1.5q-34 0 -46.5 -28t-12.5 -80zM395 620q0 -38 -25 -59.5t-61 -21.5t-61 21.5t-25 59.5t25 60.5t61 22.5t61 -22.5t25 -60.5z" />
<glyph unicode="&#x122;" horiz-adv-x="663" d="M392 133q20 0 37 3v226h88q37 0 57 -8.5t30 -21.5t12 -30t2 -33v-223q-10 -9 -29.5 -20t-49.5 -20.5t-72 -16.5t-96 -7q-86 0 -149.5 26t-105.5 72.5t-62.5 110.5t-20.5 140q0 74 21 138.5t64 112t107 75t150 27.5q38 0 70 -5.5t57.5 -14t44 -18.5t29.5 -18 q14 -11 23.5 -25t9.5 -34q0 -22 -18 -49t-47 -55q-34 30 -69 46.5t-83 16.5q-44 0 -73.5 -17t-47.5 -44t-25.5 -61.5t-7.5 -70.5q0 -39 7.5 -75.5t25.5 -64.5t47.5 -45t73.5 -17zM366 -198q-11 -20 -28.5 -32t-40.5 -12q-14 0 -31 4.5t-30 9.5l45 119q10 26 26.5 43.5 t45.5 17.5q23 0 45 -6t39 -14z" />
<glyph unicode="&#x123;" horiz-adv-x="560" d="M520 46q0 -29 -2 -57.5t-10 -54.5q-21 -71 -83.5 -116t-169.5 -45q-61 0 -100.5 8.5t-63.5 21.5q-26 14 -34 31t-8 33q0 17 13.5 45.5t31.5 54.5q23 -18 60.5 -35.5t79.5 -17.5q48 0 72.5 22.5t24.5 81.5v26q-7 -11 -20 -19.5t-28.5 -14.5t-33 -9t-34.5 -3 q-38 0 -72.5 12.5t-60.5 40.5t-41.5 73.5t-15.5 112.5q0 69 15.5 118.5t42 80.5t60.5 45.5t71 14.5q26 0 45.5 -6t33.5 -14t23.5 -18t15.5 -17q13 20 39 32.5t71 12.5q14 0 33.5 -1.5t44.5 -6.5v-432zM228 241q0 -48 13.5 -78t49.5 -30q10 0 18 1.5t11 2.5v205 q-6 4 -15.5 5.5t-17.5 1.5q-34 0 -46.5 -28t-12.5 -80zM288 689q11 20 28.5 32t40.5 12q14 0 28.5 -4.5t27.5 -9.5l-45 -119q-10 -26 -26.5 -43.5t-45.5 -17.5q-23 0 -42.5 6t-36.5 14z" />
<glyph unicode="&#x124;" horiz-adv-x="675" d="M256 417h163v252q26 5 46.5 6t30.5 1q19 0 41 -3.5t40.5 -14t30.5 -30.5t12 -52v-576h-201v261h-163v-261h-201v669q26 5 46.5 6t30.5 1q20 0 42 -3.5t40 -14t30 -30.5t12 -52v-159zM337 779l-52 -47q-12 -11 -25.5 -15t-26.5 -4q-18 0 -36.5 6t-24.5 14l78 107 q17 23 39.5 32t49.5 9q26 0 48 -8t38 -30l81 -110q-8 -8 -25 -14t-33 -6q-14 0 -29.5 4t-29.5 16z" />
<glyph unicode="&#x125;" horiz-adv-x="555" d="M314 294q0 22 -5 35t-27 13t-31.5 -9.5t-9.5 -20.5v-312h-201v702q24 5 43.5 6t32.5 1q24 0 46 -4.5t39.5 -15.5t28 -31.5t10.5 -51.5v-170q12 20 42.5 40t84.5 20q58 0 93 -30t47 -79q3 -11 4.5 -25t2 -29t1 -29t0.5 -24v-276q-30 -13 -74 -13q-46 0 -71.5 11t-38 29 t-15 41.5t-2.5 49.5v172zM209 815l-52 -47q-12 -11 -25.5 -15t-26.5 -4q-18 0 -36.5 6t-24.5 14l78 107q17 23 39.5 32t49.5 9q26 0 48 -8t38 -30l81 -110q-8 -8 -25 -14t-33 -6q-14 0 -29.5 4t-29.5 16z" />
<glyph unicode="&#x126;" horiz-adv-x="696" d="M631 507v-507h-201v261h-163v-261h-201v507h-69v74h69v88q28 5 47.5 6t29.5 1q20 0 41.5 -3.5t39.5 -13.5t30 -29t13 -49h163v88q28 5 47.5 6t29.5 1q19 0 40.5 -3.5t39.5 -13.5t30.5 -29t13.5 -49h64v-74h-64zM430 417v90h-163v-90h163z" />
<glyph unicode="&#x127;" horiz-adv-x="555" d="M119 709q51 0 86 -22.5t35 -74.5v-10h172v-79h-172v-127q12 20 42.5 40t84.5 20q58 0 93 -30t47 -79q3 -11 4.5 -25t2 -29t1 -29t0.5 -24v-236q-5 -2 -10.5 -3.5t-10.5 -3.5q-10 -2 -23.5 -4t-29.5 -2q-46 0 -71.5 11t-38 29t-15 41.5t-2.5 49.5v132q0 22 -5 35t-27 13 t-31.5 -9.5t-9.5 -20.5v-272h-201v523h-70v79h70v100q26 5 46 6t33 1z" />
<glyph unicode="&#x128;" horiz-adv-x="311" d="M256 0h-201v669q26 5 46.5 6t30.5 1q20 0 42 -3.5t40 -14t30 -30.5t12 -52v-576zM232 734q-27 0 -47.5 5.5t-37.5 12.5t-31.5 12.5t-29.5 5.5q-25 0 -42 -11.5t-34 -31.5l-33 34q-17 17 -17 35q0 22 23 43q40 37 96 37q23 0 41 -5.5t33.5 -12.5t30 -12.5t31.5 -5.5 q23 0 35.5 10.5t30.5 33.5l30 -38q17 -23 17 -41q0 -19 -9 -32.5t-22.5 -22t-31 -12.5t-33.5 -4z" />
<glyph unicode="&#x129;" horiz-adv-x="280" d="M40 479q30 5 46.5 6t29.5 1q24 0 46.5 -4.5t39.5 -16t27.5 -32t10.5 -52.5v-377q-39 -13 -73 -13q-46 0 -71.5 11t-38 29t-15 41.5t-2.5 49.5v357zM221 558q-27 0 -47.5 5.5t-37.5 12.5t-31.5 12.5t-29.5 5.5q-25 0 -42 -11.5t-34 -31.5l-33 34q-17 17 -17 35q0 22 23 43 q40 37 96 37q23 0 41 -5.5t33.5 -12.5t30 -12.5t31.5 -5.5q23 0 35.5 10.5t30.5 33.5l30 -38q17 -23 17 -41q0 -19 -9 -32.5t-22.5 -22t-31 -12.5t-33.5 -4z" />
<glyph unicode="&#x12a;" horiz-adv-x="311" d="M256 0h-201v669q26 5 46.5 6t30.5 1q20 0 42 -3.5t40 -14t30 -30.5t12 -52v-576zM66 736q-52 0 -69.5 17t-17.5 49q0 16 0.5 24.5t2.5 24.5h230q45 0 66.5 -13.5t21.5 -54.5q0 -12 -0.5 -22.5t-1.5 -24.5h-232z" />
<glyph unicode="&#x12b;" horiz-adv-x="280" d="M40 479q30 5 46.5 6t29.5 1q24 0 46.5 -4.5t39.5 -16t27.5 -32t10.5 -52.5v-377q-39 -13 -73 -13q-46 0 -71.5 11t-38 29t-15 41.5t-2.5 49.5v357zM58 558q-52 0 -69.5 17t-17.5 49q0 16 0.5 27t2.5 27h230q45 0 66.5 -14.5t21.5 -58.5q0 -12 -0.5 -22.5t-1.5 -24.5h-232 z" />
<glyph unicode="&#x12c;" horiz-adv-x="311" d="M256 0h-201v669q26 5 46.5 6t30.5 1q20 0 42 -3.5t40 -14t30 -30.5t12 -52v-576zM293 769q-50 -56 -142 -56q-91 0 -141 56q-13 14 -26.5 40.5t-15.5 61.5q10 7 29 13.5t36 6.5q16 0 24.5 -9t16.5 -24q15 -28 31 -38.5t47 -10.5q30 0 46 10.5t31 38.5q8 15 16.5 24 t24.5 9q17 0 36 -6.5t29 -13.5q-2 -35 -15.5 -61.5t-26.5 -40.5z" />
<glyph unicode="&#x12d;" horiz-adv-x="280" d="M40 479q30 5 46.5 6t29.5 1q24 0 46.5 -4.5t39.5 -16t27.5 -32t10.5 -52.5v-377q-39 -13 -73 -13q-46 0 -71.5 11t-38 29t-15 41.5t-2.5 49.5v357zM278 600q-50 -56 -142 -56q-91 0 -141 56q-13 14 -26.5 40.5t-15.5 61.5q10 7 29 13.5t36 6.5q16 0 24.5 -9t16.5 -24 q15 -28 31 -38.5t47 -10.5q30 0 46 10.5t31 38.5q8 15 16.5 24t24.5 9q17 0 36 -6.5t29 -13.5q-2 -35 -15.5 -61.5t-26.5 -40.5z" />
<glyph unicode="&#x12e;" horiz-adv-x="311" d="M190 -139q14 0 25 9.5t18 17.5q11 -10 20 -26.5t9 -31.5q0 -16 -10 -28t-26 -19.5t-34.5 -11.5t-36.5 -4q-51 0 -84 21.5t-33 74.5q0 23 8.5 44t22 38.5t30 31.5t32.5 23h-76v669q28 5 47.5 6t29.5 1q20 0 42 -3.5t40 -14t30 -30.5t12 -52v-576q-37 -26 -64 -55.5 t-27 -55.5q0 -28 25 -28z" />
<glyph unicode="&#x12f;" horiz-adv-x="280" d="M176 -139q14 0 25 9t18 17q10 -11 19.5 -26.5t9.5 -30.5q0 -16 -10 -28t-25.5 -19.5t-35.5 -11.5t-40 -4q-48 0 -80.5 23t-32.5 74q0 46 27.5 80.5t61.5 54.5q-24 4 -38.5 15.5t-22 28t-10 36.5t-2.5 43v357q24 4 43.5 5.5t32.5 1.5q24 0 46.5 -4.5t39.5 -16t27.5 -32 t10.5 -52.5v-377q-18 -9 -34 -23t-28.5 -29.5t-19.5 -32t-7 -30.5q0 -28 25 -28z" />
<glyph unicode="&#x130;" horiz-adv-x="311" d="M256 0h-201v669q26 5 46.5 6t30.5 1q20 0 42 -3.5t40 -14t30 -30.5t12 -52v-576zM239 807q0 -38 -25 -59.5t-61 -21.5t-61 21.5t-25 59.5t25 60.5t61 22.5t61 -22.5t25 -60.5z" />
<glyph unicode="&#x131;" horiz-adv-x="280" d="M40 479q30 5 46.5 6t29.5 1q24 0 46.5 -4.5t39.5 -16t27.5 -32t10.5 -52.5v-377q-39 -13 -73 -13q-46 0 -71.5 11t-38 29t-15 41.5t-2.5 49.5v357z" />
<glyph unicode="&#x132;" horiz-adv-x="604" d="M256 0h-201v669q26 5 46.5 6t30.5 1q20 0 42 -3.5t40 -14t30 -30.5t12 -52v-576zM347 669q26 5 46.5 6t30.5 1q20 0 42 -3.5t40.5 -14t30.5 -30.5t12 -52v-510q0 -14 -1 -40t-3 -46q-3 -39 -20 -76.5t-46 -66.5t-69.5 -46.5t-89.5 -17.5q-44 0 -64 17.5t-28 57.5 q-3 14 -4 29.5t-1 32.5q60 3 92 28t32 85v646z" />
<glyph unicode="&#x133;" horiz-adv-x="553" d="M240 4q-39 -13 -73 -13q-46 0 -71.5 11t-38 29t-15 41.5t-2.5 49.5v357q30 5 46.5 6t29.5 1q24 0 46.5 -4.5t39.5 -16t27.5 -32t10.5 -52.5v-377zM232 632q0 -43 -28 -68t-70 -25t-70 25t-28 68t28 68.5t70 25.5t70 -25.5t28 -68.5zM313 479q24 5 43.5 6t32.5 1 q24 0 46.5 -4.5t39.5 -16t27.5 -32t10.5 -52.5v-354q0 -22 -2 -54.5t-9 -58.5q-11 -40 -34.5 -67t-51.5 -43.5t-56.5 -23.5t-50.5 -7q-43 0 -63 16.5t-27 48.5q-3 13 -4.5 27.5t-3.5 39.5q32 3 52 12t31 23t15 32.5t4 40.5v466zM505 632q0 -43 -28 -68t-70 -25t-70 25 t-28 68t28 68.5t70 25.5t70 -25.5t28 -68.5z" />
<glyph unicode="&#x134;" horiz-adv-x="312" d="M55 669q26 5 46.5 6t30.5 1q20 0 42 -3.5t40.5 -14t30.5 -30.5t12 -52v-510q0 -14 -1 -40t-3 -46q-3 -39 -20 -76.5t-46 -66.5t-69.5 -46.5t-89.5 -17.5q-44 0 -64 17.5t-28 57.5q-3 14 -4 29.5t-1 32.5q60 3 92 28t32 85v646zM146 779l-52 -47q-12 -11 -25.5 -15 t-26.5 -4q-18 0 -36.5 6t-24.5 14l78 107q17 23 39.5 32t49.5 9q26 0 48 -8t38 -30l81 -110q-8 -8 -25 -14t-33 -6q-14 0 -29.5 4t-29.5 16z" />
<glyph unicode="&#x135;" horiz-adv-x="280" d="M40 479q24 5 43.5 6t32.5 1q24 0 46.5 -4.5t39.5 -16t27.5 -32t10.5 -52.5v-354q0 -22 -2 -54.5t-9 -58.5q-11 -40 -34.5 -67t-51.5 -43.5t-56.5 -23.5t-50.5 -7q-43 0 -63 16.5t-27 48.5q-3 13 -4.5 27.5t-3.5 39.5q32 3 52 12t31 23t15 32.5t4 40.5v466zM136 630 l-49 -58q-26 -30 -69 -30q-18 0 -33.5 5.5t-25.5 13.5l85 126q16 23 39.5 36t54.5 13q58 0 88 -43l88 -132q-28 -19 -58 -19q-21 0 -38.5 7.5t-34.5 26.5z" />
<glyph unicode="&#x136;" horiz-adv-x="662" d="M256 0h-201v669q26 5 46.5 6t30.5 1q20 0 42 -3.5t40 -14t30 -30.5t12 -52v-576zM311 193q-14 22 -24 40t-17 35.5t-10 35.5t-3 40q0 38 16 73t42 73l75 109q12 17 24 31t26.5 24.5t32.5 16t41 5.5q22 0 44.5 -8t40.5 -17q23 -11 41 -24l-184 -277l203 -332 q-38 -19 -72.5 -25t-70.5 -6q-45 0 -73 20t-45 48zM384 -198q-11 -20 -28.5 -32t-40.5 -12q-14 0 -31 4.5t-30 9.5l45 119q10 26 26.5 43.5t45.5 17.5q23 0 45 -6t39 -14z" />
<glyph unicode="&#x137;" horiz-adv-x="597" d="M282 139q-17 23 -27 43q-10 19 -15 43v-225h-200v702q24 5 43.5 6t32.5 1q24 0 46.5 -4.5t39.5 -16t27.5 -32t10.5 -52.5v-322q11 46 44 86l54 69q19 24 42 41.5t63 17.5q23 0 45 -6.5t39 -14.5q10 -5 19 -10t17 -10l-137 -192l162 -247q-66 -27 -121 -27q-47 0 -74 17 t-47 44zM339 -198q-11 -20 -28.5 -32t-40.5 -12q-14 0 -31 4.5t-30 9.5l45 119q10 26 26.5 43.5t45.5 17.5q23 0 45 -6t39 -14z" />
<glyph unicode="&#x138;" horiz-adv-x="587" d="M240 0h-200v479q24 4 43.5 5.5t32.5 1.5q24 0 46.5 -4.5t39.5 -16t27.5 -32t10.5 -52.5v-381zM279 132q-10 15 -17.5 28t-12 25.5t-6.5 27t-2 32.5q0 32 12.5 58.5t31.5 53.5l49 70q17 24 40.5 41.5t63.5 17.5q23 0 44.5 -6.5t38.5 -14.5q10 -5 18.5 -10t16.5 -10 l-128 -191l146 -239q-33 -14 -63.5 -19.5t-62.5 -5.5q-42 0 -70.5 17.5t-46.5 44.5z" />
<glyph unicode="&#x139;" horiz-adv-x="531" d="M55 669q26 5 47 6t31 1q20 0 42 -3.5t40 -14t30 -30.5t12 -52v-416h146q34 0 55.5 -8.5t33 -22.5t15.5 -31t4 -33q0 -14 -1 -29.5t-2 -35.5h-453v669zM177 729q-22 -14 -44 -14q-26 0 -45.5 15t-34.5 35l101 84q14 11 29.5 19.5t34.5 8.5q30 0 52.5 -21t40.5 -44z" />
<glyph unicode="&#x13a;" horiz-adv-x="280" d="M40 702q24 5 43.5 6t32.5 1q24 0 46.5 -4.5t39.5 -16t27.5 -32t10.5 -52.5v-600q-39 -13 -73 -13q-46 0 -71.5 11t-38 29t-15 41.5t-2.5 49.5v580zM163 755q-22 -14 -44 -14q-26 0 -45.5 15t-34.5 35l101 84q14 11 29.5 19.5t34.5 8.5q30 0 52.5 -21t40.5 -44z" />
<glyph unicode="&#x13b;" horiz-adv-x="531" d="M55 669q26 5 47 6t31 1q20 0 42 -3.5t40 -14t30 -30.5t12 -52v-416h146q34 0 55.5 -8.5t33 -22.5t15.5 -31t4 -33q0 -14 -1 -29.5t-2 -35.5h-453v669zM293 -198q-11 -20 -28.5 -32t-40.5 -12q-14 0 -31 4.5t-30 9.5l45 119q10 26 26.5 43.5t45.5 17.5q23 0 45 -6t39 -14z " />
<glyph unicode="&#x13c;" horiz-adv-x="280" d="M40 702q24 5 43.5 6t32.5 1q24 0 46.5 -4.5t39.5 -16t27.5 -32t10.5 -52.5v-600q-39 -13 -73 -13q-46 0 -71.5 11t-38 29t-15 41.5t-2.5 49.5v580zM145 -198q-11 -20 -28.5 -32t-40.5 -12q-14 0 -31 4.5t-30 9.5l45 119q10 26 26.5 43.5t45.5 17.5q23 0 45 -6t39 -14z " />
<glyph unicode="&#x13d;" horiz-adv-x="531" d="M55 669q26 5 47 6t31 1q20 0 42 -3.5t40 -14t30 -30.5t12 -52v-416h146q34 0 55.5 -8.5t33 -22.5t15.5 -31t4 -33q0 -14 -1 -29.5t-2 -35.5h-453v669zM463 490q-5 -38 -31 -54t-63 -16q-6 0 -12 0.5t-12 1.5v153q0 45 26 71t74 26q7 0 19.5 -0.5t19.5 -1.5z" />
<glyph unicode="&#x13e;" horiz-adv-x="382" d="M40 702q24 5 43.5 6t32.5 1q24 0 46.5 -4.5t39.5 -16t27.5 -32t10.5 -52.5v-600q-39 -13 -73 -13q-46 0 -71.5 11t-38 29t-15 41.5t-2.5 49.5v580zM401 527q-5 -38 -31 -54t-63 -16q-6 0 -12 0.5t-12 1.5v153q0 45 26 71t74 26q7 0 19.5 -0.5t19.5 -1.5z" />
<glyph unicode="&#x13f;" horiz-adv-x="531" d="M55 669q26 5 47 6t31 1q20 0 42 -3.5t40 -14t30 -30.5t12 -52v-416h146q34 0 55.5 -8.5t33 -22.5t15.5 -31t4 -33q0 -14 -1 -29.5t-2 -35.5h-453v669zM516 392q0 -38 -25 -59.5t-61 -21.5t-61 21.5t-25 59.5t25 60.5t61 22.5t61 -22.5t25 -60.5z" />
<glyph unicode="&#x140;" horiz-adv-x="450" d="M40 702q24 5 43.5 6t32.5 1q24 0 46.5 -4.5t39.5 -16t27.5 -32t10.5 -52.5v-600q-39 -13 -73 -13q-46 0 -71.5 11t-38 29t-15 41.5t-2.5 49.5v580zM449 357q0 -38 -25 -59.5t-61 -21.5t-61 21.5t-25 59.5t25 60.5t61 22.5t61 -22.5t25 -60.5z" />
<glyph unicode="&#x141;" horiz-adv-x="551" d="M75 280l-76 -31l-31 81l107 43v296q28 5 48 6t30 1q20 0 42 -3.5t40 -14t30 -30.5t12 -52v-138l124 53l34 -75l-158 -68v-188h147q34 0 55.5 -8.5t32.5 -22.5t15 -31t4 -33q0 -14 -1 -29.5t-2 -35.5h-453v280z" />
<glyph unicode="&#x142;" horiz-adv-x="405" d="M94 282l-58 -30l-37 77l95 50v323q24 5 43.5 6t32.5 1q24 0 46.5 -4.5t39.5 -16t27.5 -32t10.5 -52.5v-143l60 35l39 -73l-99 -58v-361q-2 -1 -21.5 -7t-51.5 -6q-46 0 -71.5 11t-38 29t-15 41.5t-2.5 49.5v160z" />
<glyph unicode="&#x143;" horiz-adv-x="676" d="M425 312v357q23 5 42.5 6t29.5 1q20 0 42 -3.5t40 -14t30 -30t12 -51.5v-577h-162l-209 332v-332h-195v669q14 2 38 4.5t50 2.5q48 0 72.5 -15.5t40.5 -44.5zM333 729q-22 -14 -44 -14q-26 0 -45.5 15t-34.5 35l101 84q14 11 29.5 19.5t34.5 8.5q30 0 52.5 -21t40.5 -44z " />
<glyph unicode="&#x144;" horiz-adv-x="555" d="M40 478q17 4 35 6t43 2q45 0 73.5 -13.5t38.5 -36.5q12 21 44.5 40.5t87.5 19.5q63 0 98 -30t47 -79q3 -11 4.5 -25t2 -29t1 -29t0.5 -24v-276q-30 -13 -74 -13q-46 0 -71.5 11t-38 29t-15 41.5t-2.5 49.5v172q0 22 -5 35t-27 13t-31.5 -9.5t-9.5 -20.5v-312h-201v478z M314 563q-14 -14 -28 -19t-31 -5q-19 0 -38.5 12t-33.5 23l86 115q13 17 29 31t42 14q24 0 49 -17.5t44 -34.5z" />
<glyph unicode="&#x145;" horiz-adv-x="676" d="M425 312v357q23 5 42.5 6t29.5 1q20 0 42 -3.5t40 -14t30 -30t12 -51.5v-577h-162l-209 332v-332h-195v669q14 2 38 4.5t50 2.5q48 0 72.5 -15.5t40.5 -44.5zM370 -198q-11 -20 -28.5 -32t-40.5 -12q-14 0 -31 4.5t-30 9.5l45 119q10 26 26.5 43.5t45.5 17.5q23 0 45 -6 t39 -14z" />
<glyph unicode="&#x146;" horiz-adv-x="555" d="M40 478q17 4 35 6t43 2q45 0 73.5 -13.5t38.5 -36.5q12 21 44.5 40.5t87.5 19.5q63 0 98 -30t47 -79q3 -11 4.5 -25t2 -29t1 -29t0.5 -24v-276q-30 -13 -74 -13q-46 0 -71.5 11t-38 29t-15 41.5t-2.5 49.5v172q0 22 -5 35t-27 13t-31.5 -9.5t-9.5 -20.5v-312h-201v478z M309 -198q-11 -20 -28.5 -32t-40.5 -12q-14 0 -31 4.5t-30 9.5l45 119q10 26 26.5 43.5t45.5 17.5q23 0 45 -6t39 -14z" />
<glyph unicode="&#x147;" horiz-adv-x="676" d="M425 312v357q23 5 42.5 6t29.5 1q20 0 42 -3.5t40 -14t30 -30t12 -51.5v-577h-162l-209 332v-332h-195v669q14 2 38 4.5t50 2.5q48 0 72.5 -15.5t40.5 -44.5zM343 821l52 47q12 11 25.5 15t26.5 4q18 0 36.5 -6t24.5 -14l-78 -107q-17 -23 -39.5 -32t-49.5 -9 q-26 0 -48 8t-38 30l-81 110q8 8 25 14t33 6q14 0 29.5 -4t29.5 -16z" />
<glyph unicode="&#x148;" horiz-adv-x="555" d="M40 478q17 4 35 6t43 2q45 0 73.5 -13.5t38.5 -36.5q12 21 44.5 40.5t87.5 19.5q63 0 98 -30t47 -79q3 -11 4.5 -25t2 -29t1 -29t0.5 -24v-276q-30 -13 -74 -13q-46 0 -71.5 11t-38 29t-15 41.5t-2.5 49.5v172q0 22 -5 35t-27 13t-31.5 -9.5t-9.5 -20.5v-312h-201v478z M325 698q17 19 34.5 26.5t38.5 7.5q30 0 58 -19l-88 -132q-30 -43 -88 -43q-31 0 -54.5 13t-39.5 36l-85 126q10 8 25.5 13.5t33.5 5.5q43 0 69 -30l49 -58z" />
<glyph unicode="&#x149;" horiz-adv-x="555" d="M40 478q17 4 35 6t43 2q45 0 73.5 -13.5t38.5 -36.5q12 21 44.5 40.5t87.5 19.5q63 0 98 -30t47 -79q3 -11 4.5 -25t2 -29t1 -29t0.5 -24v-276q-30 -13 -74 -13q-46 0 -71.5 11t-38 29t-15 41.5t-2.5 49.5v172q0 22 -5 35t-27 13t-31.5 -9.5t-9.5 -20.5v-312h-201v478z M182 678q0 -32 -9.5 -62t-31.5 -54q-14 -17 -32.5 -28t-35.5 -11t-29.5 10t-17.5 25q8 4 17.5 9t17.5 12t13.5 16.5t5.5 21.5q0 13 -6.5 21t-14.5 16.5t-14.5 19t-6.5 28.5q0 10 4 21.5t12.5 21t22 15.5t31.5 6q38 0 56 -27.5t18 -60.5z" />
<glyph unicode="&#x14a;" horiz-adv-x="676" d="M425 312v357q25 5 43.5 6t28.5 1q20 0 42 -3.5t40 -14t30 -30t12 -51.5v-516q0 -15 -1 -41.5t-3 -44.5q-4 -38 -18 -74.5t-38.5 -65t-61.5 -45.5t-87 -17q-44 0 -64 17.5t-28 57.5q-3 14 -4 29.5t-1 32.5q27 1 51.5 5.5t43 14t29 25t10.5 39.5v22l-199 316v-332h-195v669 q14 2 38 4.5t50 2.5q48 0 72.5 -15.5t40.5 -44.5z" />
<glyph unicode="&#x14b;" horiz-adv-x="555" d="M213 -95q31 3 51 12t31 23t15 32.5t4 40.5v281q0 22 -5 35t-27 13t-31.5 -9.5t-9.5 -20.5v-312h-201v478q17 4 34 6t44 2q45 0 73.5 -13.5t38.5 -36.5q12 21 44.5 40.5t87.5 19.5q63 0 98 -30t47 -79q3 -11 4.5 -25t2 -29t1 -29t0.5 -24v-253q0 -22 -2 -54.5t-9 -58.5 q-11 -40 -34.5 -67t-51.5 -43.5t-56.5 -23.5t-50.5 -7q-43 0 -63 16.5t-27 48.5q-3 13 -4.5 27.5t-3.5 39.5z" />
<glyph unicode="&#x14c;" horiz-adv-x="708" d="M673 336q0 -74 -18.5 -138.5t-57.5 -112.5t-100.5 -75.5t-146.5 -27.5t-145 27.5t-98.5 75t-56 112t-17.5 138.5q0 71 19.5 134.5t59.5 111t101 75.5t145 28q82 0 142 -26.5t98 -73t56.5 -110t18.5 -138.5zM468 335q0 38 -6 73t-19.5 61.5t-34.5 42t-51 15.5 q-32 0 -54.5 -15.5t-36.5 -42t-20.5 -61.5t-6.5 -73q0 -39 6.5 -74.5t20 -62.5t35.5 -43t53 -16t53 16t35.5 43t19.5 62.5t6 74.5zM279 736q-52 0 -69.5 17t-17.5 49q0 16 0.5 24.5t2.5 24.5h230q45 0 66.5 -13.5t21.5 -54.5q0 -12 -0.5 -22.5t-1.5 -24.5h-232z" />
<glyph unicode="&#x14d;" horiz-adv-x="560" d="M535 246q0 -51 -14 -98.5t-44.5 -83.5t-79 -57.5t-118.5 -21.5q-69 0 -117 21t-78.5 56.5t-44.5 82t-14 98.5t16 98.5t48.5 80.5t80.5 54t113 20q69 0 117 -20t78 -54t43.5 -79.5t13.5 -96.5zM336 243q0 45 -12 75t-43 30q-17 0 -28 -9t-18 -24t-9.5 -34t-2.5 -39 q0 -22 2.5 -42t9.5 -35.5t17.5 -24.5t27.5 -9t28 9.5t17 25t8.5 35.5t2.5 42zM206 558q-52 0 -69.5 17t-17.5 49q0 16 0.5 27t2.5 27h230q45 0 66.5 -14.5t21.5 -58.5q0 -12 -0.5 -22.5t-1.5 -24.5h-232z" />
<glyph unicode="&#x14e;" horiz-adv-x="708" d="M673 336q0 -74 -18.5 -138.5t-57.5 -112.5t-100.5 -75.5t-146.5 -27.5t-145 27.5t-98.5 75t-56 112t-17.5 138.5q0 71 19.5 134.5t59.5 111t101 75.5t145 28q82 0 142 -26.5t98 -73t56.5 -110t18.5 -138.5zM468 335q0 38 -6 73t-19.5 61.5t-34.5 42t-51 15.5 q-32 0 -54.5 -15.5t-36.5 -42t-20.5 -61.5t-6.5 -73q0 -39 6.5 -74.5t20 -62.5t35.5 -43t53 -16t53 16t35.5 43t19.5 62.5t6 74.5zM500 769q-50 -56 -142 -56q-91 0 -141 56q-13 14 -26.5 40.5t-15.5 61.5q10 7 29 13.5t36 6.5q16 0 24.5 -9t16.5 -24q15 -28 31 -38.5 t47 -10.5q30 0 46 10.5t31 38.5q8 15 16.5 24t24.5 9q17 0 36 -6.5t29 -13.5q-2 -35 -15.5 -61.5t-26.5 -40.5z" />
<glyph unicode="&#x14f;" horiz-adv-x="560" d="M535 246q0 -51 -14 -98.5t-44.5 -83.5t-79 -57.5t-118.5 -21.5q-69 0 -117 21t-78.5 56.5t-44.5 82t-14 98.5t16 98.5t48.5 80.5t80.5 54t113 20q69 0 117 -20t78 -54t43.5 -79.5t13.5 -96.5zM336 243q0 45 -12 75t-43 30q-17 0 -28 -9t-18 -24t-9.5 -34t-2.5 -39 q0 -22 2.5 -42t9.5 -35.5t17.5 -24.5t27.5 -9t28 9.5t17 25t8.5 35.5t2.5 42zM430 600q-50 -56 -142 -56q-91 0 -141 56q-13 14 -26.5 40.5t-15.5 61.5q10 7 29 13.5t36 6.5q16 0 24.5 -9t16.5 -24q15 -28 31 -38.5t47 -10.5q30 0 46 10.5t31 38.5q8 15 16.5 24t24.5 9 q17 0 36 -6.5t29 -13.5q-2 -35 -15.5 -61.5t-26.5 -40.5z" />
<glyph unicode="&#x150;" horiz-adv-x="708" d="M673 336q0 -74 -18.5 -138.5t-57.5 -112.5t-100.5 -75.5t-146.5 -27.5t-145 27.5t-98.5 75t-56 112t-17.5 138.5q0 71 19.5 134.5t59.5 111t101 75.5t145 28q82 0 142 -26.5t98 -73t56.5 -110t18.5 -138.5zM468 335q0 38 -6 73t-19.5 61.5t-34.5 42t-51 15.5 q-32 0 -54.5 -15.5t-36.5 -42t-20.5 -61.5t-6.5 -73q0 -39 6.5 -74.5t20 -62.5t35.5 -43t53 -16t53 16t35.5 43t19.5 62.5t6 74.5zM538 729q-22 -14 -44 -14q-26 0 -45.5 15t-34.5 35l101 84q14 11 29.5 19.5t34.5 8.5q30 0 52.5 -21t40.5 -44zM296 729q-22 -14 -44 -14 q-26 0 -45.5 15t-34.5 35l101 84q14 11 29.5 19.5t34.5 8.5q30 0 52.5 -21t40.5 -44z" />
<glyph unicode="&#x151;" horiz-adv-x="560" d="M535 246q0 -51 -14 -98.5t-44.5 -83.5t-79 -57.5t-118.5 -21.5q-69 0 -117 21t-78.5 56.5t-44.5 82t-14 98.5t16 98.5t48.5 80.5t80.5 54t113 20q69 0 117 -20t78 -54t43.5 -79.5t13.5 -96.5zM336 243q0 45 -12 75t-43 30q-17 0 -28 -9t-18 -24t-9.5 -34t-2.5 -39 q0 -22 2.5 -42t9.5 -35.5t17.5 -24.5t27.5 -9t28 9.5t17 25t8.5 35.5t2.5 42zM462 563q-14 -14 -28 -19t-31 -5q-19 0 -37.5 10.5t-32.5 21.5l80 104q13 17 29.5 29.5t42.5 12.5q24 0 47 -13.5t42 -29.5zM251 563q-14 -14 -28 -19t-31 -5q-19 0 -37.5 10.5t-32.5 21.5 l80 104q13 17 29.5 29.5t42.5 12.5q24 0 47 -13.5t42 -29.5z" />
<glyph unicode="&#x152;" horiz-adv-x="928" d="M792 152q34 0 56 -8.5t34 -22.5t16.5 -31t4.5 -34t-0.5 -28t-1.5 -28h-537q-85 0 -147 25.5t-103 70.5t-61 106.5t-20 132.5q0 69 21.5 130t64 106.5t105.5 72.5t147 27h515q2 -20 3 -31.5t1 -28.5t-5 -33.5t-17 -30t-33 -22t-53 -8.5h-150v-101h193v-153h-193v-111h160z M239 335q0 -39 7 -75t24 -63t45 -43.5t70 -16.5h45v392h-38q-44 0 -73.5 -16t-47 -43t-25 -62t-7.5 -73z" />
<glyph unicode="&#x153;" horiz-adv-x="822" d="M634 125q40 0 67 12t54 32q13 -20 26 -46t13 -46q0 -17 -9 -32t-32 -29q-22 -13 -57 -22t-73 -9q-61 0 -112.5 19.5t-77.5 52.5q-23 -29 -64 -50.5t-108 -21.5q-64 0 -108.5 21t-73 56.5t-41.5 82t-13 98.5t16 98.5t47 80.5t77 54t106 20q58 0 95.5 -18t66.5 -50 q30 32 70.5 50t88.5 18q56 0 96 -18t65.5 -48t37 -70t11.5 -84v-13.5t-0.5 -17.5t-1 -17t-1.5 -12h-267q5 -38 28 -64.5t74 -26.5zM332 246q0 19 -2 37t-8 31.5t-16 22t-25 8.5t-25 -8.5t-16.5 -22t-9 -31.5t-2.5 -37t2 -38.5t8 -35.5t16 -26t25 -10q16 0 26.5 10t16.5 26 t8 35.5t2 38.5zM625 299q0 42 -11.5 57t-37.5 15q-47 0 -47 -72h96z" />
<glyph unicode="&#x154;" horiz-adv-x="614" d="M562 466q0 -40 -9.5 -72t-24 -57t-33 -42.5t-36.5 -27.5l147 -252q-23 -11 -50.5 -19.5t-64.5 -8.5q-50 0 -81.5 14t-55.5 53l-84 164h-13v-218h-202v665q53 6 108 8.5t93 2.5q156 0 231 -51t75 -159zM350 446q0 45 -18 69t-51 24q-5 0 -12 -0.5t-13 -1.5v-190h25 q38 0 53.5 28.5t15.5 70.5zM314 729q-22 -14 -44 -14q-26 0 -45.5 15t-34.5 35l101 84q14 11 29.5 19.5t34.5 8.5q30 0 52.5 -21t40.5 -44z" />
<glyph unicode="&#x155;" horiz-adv-x="428" d="M40 478q17 4 35 6t43 2q89 0 112 -50q5 9 15 19.5t24.5 19.5t32.5 15t38 6q15 0 29.5 -3t26.5 -9.5t19.5 -17.5t7.5 -27t-4 -35t-10.5 -39t-14.5 -39t-16 -34q-21 17 -40.5 25.5t-42.5 8.5q-26 0 -40 -13t-14 -34v-279h-201v478zM262 563q-14 -14 -28 -19t-31 -5 q-19 0 -38.5 12t-33.5 23l86 115q13 17 29 31t42 14q24 0 49 -17.5t44 -34.5z" />
<glyph unicode="&#x156;" horiz-adv-x="614" d="M562 466q0 -40 -9.5 -72t-24 -57t-33 -42.5t-36.5 -27.5l147 -252q-23 -11 -50.5 -19.5t-64.5 -8.5q-50 0 -81.5 14t-55.5 53l-84 164h-13v-218h-202v665q53 6 108 8.5t93 2.5q156 0 231 -51t75 -159zM350 446q0 45 -18 69t-51 24q-5 0 -12 -0.5t-13 -1.5v-190h25 q38 0 53.5 28.5t15.5 70.5zM326 -198q-11 -20 -28.5 -32t-40.5 -12q-14 0 -31 4.5t-30 9.5l45 119q10 26 26.5 43.5t45.5 17.5q23 0 45 -6t39 -14z" />
<glyph unicode="&#x157;" horiz-adv-x="428" d="M40 478q17 4 35 6t43 2q89 0 112 -50q5 9 15 19.5t24.5 19.5t32.5 15t38 6q15 0 29.5 -3t26.5 -9.5t19.5 -17.5t7.5 -27t-4 -35t-10.5 -39t-14.5 -39t-16 -34q-21 17 -40.5 25.5t-42.5 8.5q-26 0 -40 -13t-14 -34v-279h-201v478zM138 -198q-11 -20 -28.5 -32t-40.5 -12 q-14 0 -31 4.5t-30 9.5l45 119q10 26 26.5 43.5t45.5 17.5q23 0 45 -6t39 -14z" />
<glyph unicode="&#x158;" horiz-adv-x="614" d="M562 466q0 -40 -9.5 -72t-24 -57t-33 -42.5t-36.5 -27.5l147 -252q-23 -11 -50.5 -19.5t-64.5 -8.5q-50 0 -81.5 14t-55.5 53l-84 164h-13v-218h-202v665q53 6 108 8.5t93 2.5q156 0 231 -51t75 -159zM350 446q0 45 -18 69t-51 24q-5 0 -12 -0.5t-13 -1.5v-190h25 q38 0 53.5 28.5t15.5 70.5zM277 821l52 47q12 11 25.5 15t26.5 4q18 0 36.5 -6t24.5 -14l-78 -107q-17 -23 -39.5 -32t-49.5 -9q-26 0 -48 8t-38 30l-81 110q8 8 25 14t33 6q14 0 29.5 -4t29.5 -16z" />
<glyph unicode="&#x159;" horiz-adv-x="428" d="M40 478q17 4 35 6t43 2q89 0 112 -50q5 9 15 19.5t24.5 19.5t32.5 15t38 6q15 0 29.5 -3t26.5 -9.5t19.5 -17.5t7.5 -27t-4 -35t-10.5 -39t-14.5 -39t-16 -34q-21 17 -40.5 25.5t-42.5 8.5q-26 0 -40 -13t-14 -34v-279h-201v478zM272 698q17 19 34.5 26.5t38.5 7.5 q30 0 58 -19l-88 -132q-30 -43 -88 -43q-31 0 -54.5 13t-39.5 36l-85 126q10 8 25.5 13.5t33.5 5.5q43 0 69 -30l49 -58z" />
<glyph unicode="&#x15a;" horiz-adv-x="538" d="M70 195q38 -26 79.5 -44t89.5 -18q68 0 68 55q0 15 -8 26.5t-21.5 20.5t-32 16t-39.5 14q-32 10 -64.5 24t-59.5 37.5t-44 59t-17 88.5q0 54 21.5 93.5t57 65.5t82 38.5t96.5 12.5q69 0 117.5 -15.5t68.5 -28.5t30.5 -27t10.5 -34t-11.5 -42.5t-37.5 -57.5 q-18 13 -39 22.5t-41.5 16.5t-39.5 10.5t-33 3.5q-33 0 -51 -11t-18 -31q0 -21 20.5 -33.5t56.5 -24.5q33 -11 69 -25t65.5 -37t48.5 -58.5t19 -90.5q0 -60 -19.5 -105t-55 -75t-84 -44.5t-106.5 -14.5q-72 0 -121 13.5t-76 30.5q-18 11 -27 27t-9 34q0 24 17 53t38 55z M306 729q-22 -14 -44 -14q-26 0 -45.5 15t-34.5 35l101 84q14 11 29.5 19.5t34.5 8.5q30 0 52.5 -21t40.5 -44z" />
<glyph unicode="&#x15b;" horiz-adv-x="451" d="M225 496q83 0 143 -25q27 -11 44.5 -26.5t17.5 -36.5q0 -18 -11.5 -43t-28.5 -48q-30 23 -63 37.5t-67 14.5q-43 0 -43 -25q0 -16 16 -24.5t40 -14.5t52 -13.5t52 -22.5t40 -41t16 -68q0 -81 -56 -128t-165 -47q-62 0 -96.5 9.5t-54.5 19.5q-26 13 -36 28.5t-10 32.5 q0 26 12.5 51t28.5 49q12 -11 27.5 -20.5t33.5 -17.5t37 -12.5t37 -4.5q26 0 37 8.5t11 21.5q0 15 -16.5 24t-40.5 16t-53 16t-53 24.5t-40.5 41t-16.5 66.5q0 40 17 70t45.5 49.5t65.5 29t78 9.5zM268 563q-14 -14 -28 -19t-31 -5q-19 0 -38.5 12t-33.5 23l86 115 q13 17 29 31t42 14q24 0 49 -17.5t44 -34.5z" />
<glyph unicode="&#x15c;" horiz-adv-x="538" d="M70 195q38 -26 79.5 -44t89.5 -18q68 0 68 55q0 15 -8 26.5t-21.5 20.5t-32 16t-39.5 14q-32 10 -64.5 24t-59.5 37.5t-44 59t-17 88.5q0 54 21.5 93.5t57 65.5t82 38.5t96.5 12.5q69 0 117.5 -15.5t68.5 -28.5t30.5 -27t10.5 -34t-11.5 -42.5t-37.5 -57.5 q-18 13 -39 22.5t-41.5 16.5t-39.5 10.5t-33 3.5q-33 0 -51 -11t-18 -31q0 -21 20.5 -33.5t56.5 -24.5q33 -11 69 -25t65.5 -37t48.5 -58.5t19 -90.5q0 -60 -19.5 -105t-55 -75t-84 -44.5t-106.5 -14.5q-72 0 -121 13.5t-76 30.5q-18 11 -27 27t-9 34q0 24 17 53t38 55z M279 779l-52 -47q-12 -11 -25.5 -15t-26.5 -4q-18 0 -36.5 6t-24.5 14l78 107q17 23 39.5 32t49.5 9q26 0 48 -8t38 -30l81 -110q-8 -8 -25 -14t-33 -6q-14 0 -29.5 4t-29.5 16z" />
<glyph unicode="&#x15d;" horiz-adv-x="451" d="M225 496q83 0 143 -25q27 -11 44.5 -26.5t17.5 -36.5q0 -18 -11.5 -43t-28.5 -48q-30 23 -63 37.5t-67 14.5q-43 0 -43 -25q0 -16 16 -24.5t40 -14.5t52 -13.5t52 -22.5t40 -41t16 -68q0 -81 -56 -128t-165 -47q-62 0 -96.5 9.5t-54.5 19.5q-26 13 -36 28.5t-10 32.5 q0 26 12.5 51t28.5 49q12 -11 27.5 -20.5t33.5 -17.5t37 -12.5t37 -4.5q26 0 37 8.5t11 21.5q0 15 -16.5 24t-40.5 16t-53 16t-53 24.5t-40.5 41t-16.5 66.5q0 40 17 70t45.5 49.5t65.5 29t78 9.5zM228 630l-49 -58q-26 -30 -69 -30q-18 0 -33.5 5.5t-25.5 13.5l85 126 q16 23 39.5 36t54.5 13q58 0 88 -43l88 -132q-28 -19 -58 -19q-21 0 -38.5 7.5t-34.5 26.5z" />
<glyph unicode="&#x15e;" horiz-adv-x="538" d="M354 -138q0 -22 -10.5 -41t-27.5 -33.5t-39.5 -22.5t-46.5 -8q-35 0 -55 11.5t-20 33.5q0 9 2 23t8 33q8 -6 20.5 -10.5t25.5 -4.5q26 0 26 19q0 12 -6 19t-13 14.5t-13 17t-6 26.5q0 13 4.5 24t11.5 20q-59 3 -100 15t-64 28q-18 11 -27 27t-9 34q0 24 17 53t38 55 q38 -26 79.5 -44t89.5 -18q68 0 68 55q0 15 -8 26.5t-21.5 20.5t-32 16t-39.5 14q-32 10 -64.5 24t-59.5 37.5t-44 59t-17 88.5q0 54 21.5 93.5t57 65.5t82 38.5t96.5 12.5q69 0 117.5 -15.5t68.5 -28.5t30.5 -27t10.5 -34t-11.5 -42.5t-37.5 -57.5q-18 13 -39 22.5 t-41.5 16.5t-39.5 10.5t-33 3.5q-33 0 -51 -11t-18 -31q0 -21 20.5 -33.5t56.5 -24.5q33 -11 69 -25t65.5 -37t48.5 -58.5t19 -90.5q0 -53 -15 -93.5t-42 -70t-65 -47t-84 -24.5q-8 -9 -8 -23q0 -11 8.5 -19.5t19 -18.5t19 -24.5t8.5 -38.5z" />
<glyph unicode="&#x15f;" horiz-adv-x="451" d="M320 -138q0 -22 -10.5 -41t-27.5 -33.5t-39.5 -22.5t-46.5 -8q-35 0 -55 11.5t-20 33.5q0 9 2 23t8 33q8 -6 20.5 -10.5t25.5 -4.5q26 0 26 19q0 12 -6 19t-13 14.5t-13 17t-6 26.5q0 14 5 25.5t13 21.5q-48 2 -76.5 10.5t-45.5 17.5q-26 13 -36 28.5t-10 32.5 q0 26 12.5 51t28.5 49q12 -11 27.5 -20.5t33.5 -17.5t37 -12.5t37 -4.5q26 0 37 8.5t11 21.5q0 15 -16.5 24t-40.5 16t-53 16t-53 24.5t-40.5 41t-16.5 66.5q0 40 17 70t45.5 49.5t65.5 29t78 9.5q83 0 143 -25q27 -11 44.5 -26.5t17.5 -36.5q0 -18 -11.5 -43t-28.5 -48 q-30 23 -63 37.5t-67 14.5q-43 0 -43 -25q0 -16 16 -24.5t40 -14.5t52 -13.5t52 -22.5t40 -41t16 -68q0 -68 -39.5 -112t-116.5 -57q-12 -14 -12 -28q0 -11 8.5 -19.5t19 -18.5t19 -24.5t8.5 -38.5z" />
<glyph unicode="&#x160;" horiz-adv-x="538" d="M70 195q38 -26 79.5 -44t89.5 -18q68 0 68 55q0 15 -8 26.5t-21.5 20.5t-32 16t-39.5 14q-32 10 -64.5 24t-59.5 37.5t-44 59t-17 88.5q0 54 21.5 93.5t57 65.5t82 38.5t96.5 12.5q69 0 117.5 -15.5t68.5 -28.5t30.5 -27t10.5 -34t-11.5 -42.5t-37.5 -57.5 q-18 13 -39 22.5t-41.5 16.5t-39.5 10.5t-33 3.5q-33 0 -51 -11t-18 -31q0 -21 20.5 -33.5t56.5 -24.5q33 -11 69 -25t65.5 -37t48.5 -58.5t19 -90.5q0 -60 -19.5 -105t-55 -75t-84 -44.5t-106.5 -14.5q-72 0 -121 13.5t-76 30.5q-18 11 -27 27t-9 34q0 24 17 53t38 55z M280 821l52 47q12 11 25.5 15t26.5 4q18 0 36.5 -6t24.5 -14l-78 -107q-17 -23 -39.5 -32t-49.5 -9q-26 0 -48 8t-38 30l-81 110q8 8 25 14t33 6q14 0 29.5 -4t29.5 -16z" />
<glyph unicode="&#x161;" horiz-adv-x="451" d="M225 496q83 0 143 -25q27 -11 44.5 -26.5t17.5 -36.5q0 -18 -11.5 -43t-28.5 -48q-30 23 -63 37.5t-67 14.5q-43 0 -43 -25q0 -16 16 -24.5t40 -14.5t52 -13.5t52 -22.5t40 -41t16 -68q0 -81 -56 -128t-165 -47q-62 0 -96.5 9.5t-54.5 19.5q-26 13 -36 28.5t-10 32.5 q0 26 12.5 51t28.5 49q12 -11 27.5 -20.5t33.5 -17.5t37 -12.5t37 -4.5q26 0 37 8.5t11 21.5q0 15 -16.5 24t-40.5 16t-53 16t-53 24.5t-40.5 41t-16.5 66.5q0 40 17 70t45.5 49.5t65.5 29t78 9.5zM282 698q17 19 34.5 26.5t38.5 7.5q30 0 58 -19l-88 -132q-30 -43 -88 -43 q-31 0 -54.5 13t-39.5 36l-85 126q10 8 25.5 13.5t33.5 5.5q43 0 69 -30l49 -58z" />
<glyph unicode="&#x162;" horiz-adv-x="607" d="M204 508h-192q-2 20 -3 34.5t-1 31.5q0 16 6 33.5t19.5 31.5t35 23t53.5 9h472q2 -20 3 -36.5t1 -33.5t-5 -33.5t-17.5 -29.5t-33.5 -21.5t-53 -8.5h-83v-508q-11 -11 -16.5 -18.5t-5.5 -18.5t8.5 -19.5t19 -18.5t19 -24.5t8.5 -38.5q0 -22 -10.5 -41t-27.5 -33.5 t-39.5 -22.5t-46.5 -8q-35 0 -55 11.5t-20 33.5q0 9 2 23t8 33q8 -6 20.5 -10.5t25.5 -4.5q26 0 26 19q0 12 -6 19t-13 14.5t-13 17t-6 26.5q0 20 10 35.5t20 25.5h-110v508z" />
<glyph unicode="&#x163;" horiz-adv-x="396" d="M305 -138q0 -22 -10.5 -41t-27.5 -33.5t-39.5 -22.5t-46.5 -8q-35 0 -55 11.5t-20 33.5q0 9 2 23t8 33q8 -6 20.5 -10.5t25.5 -4.5q26 0 26 19q0 12 -6 19t-13 14.5t-13 17t-6 26.5q0 14 6 27t14 23q-50 8 -79 33.5t-42 62.5q-8 23 -10 45.5t-2 43.5v457q24 5 43.5 6 t32.5 1q24 0 46 -4.5t39.5 -16t28 -32t10.5 -51.5v-51h128v-148h-128v-149q0 -28 12 -39t33 -11q18 0 37 8.5t32 19.5q16 -29 26 -52.5t10 -43.5q0 -14 -5 -25t-19 -21q-17 -12 -43 -21t-60 -13q-10 -11 -10 -25q0 -11 8.5 -19.5t19 -18.5t19 -24.5t8.5 -38.5z" />
<glyph unicode="&#x164;" horiz-adv-x="607" d="M204 508h-192q-2 20 -3 34.5t-1 31.5q0 16 6 33.5t19.5 31.5t35 23t53.5 9h472q2 -20 3 -36.5t1 -33.5t-5 -33.5t-17.5 -29.5t-33.5 -21.5t-53 -8.5h-83v-508h-202v508zM305 821l52 47q12 11 25.5 15t26.5 4q18 0 36.5 -6t24.5 -14l-78 -107q-17 -23 -39.5 -32t-49.5 -9 q-26 0 -48 8t-38 30l-81 110q8 8 25 14t33 6q14 0 29.5 -4t29.5 -16z" />
<glyph unicode="&#x165;" horiz-adv-x="396" d="M49 85q-8 23 -10 45.5t-2 43.5v457q24 5 43.5 6t32.5 1q24 0 46 -4.5t39.5 -16t28 -32t10.5 -51.5v-51h128v-148h-128v-149q0 -28 12 -39t33 -11q18 0 37 8.5t32 19.5q16 -29 26 -52.5t10 -43.5q0 -14 -5 -25t-19 -21q-22 -16 -59.5 -26.5t-85.5 -10.5q-72 0 -112.5 27.5 t-56.5 72.5zM402 605q-5 -35 -29.5 -49.5t-59.5 -14.5q-6 0 -11.5 0.5t-11.5 1.5v140q0 41 24.5 64.5t70.5 23.5q7 0 19 -0.5t18 -1.5z" />
<glyph unicode="&#x166;" horiz-adv-x="607" d="M204 230h-130v82h130v196h-192q-2 20 -3 34.5t-1 31.5q0 16 6 33.5t19.5 31.5t35 23t53.5 9h472q2 -20 3 -36.5t1 -33.5t-5 -33.5t-17.5 -29.5t-33.5 -21.5t-53 -8.5h-83v-196h136v-82h-136v-230h-202v230z" />
<glyph unicode="&#x167;" horiz-adv-x="396" d="M49 85q-8 23 -10 45.5t-2 43.5v457q24 5 43.5 6t32.5 1q24 0 46 -4.5t39.5 -16t28 -32t10.5 -51.5v-51h128v-111h-128v-64h128v-80h-128v-42q0 -28 12 -39t33 -11q18 0 37 8.5t32 19.5q16 -29 26 -52.5t10 -43.5q0 -14 -5 -25t-19 -21q-22 -16 -59.5 -26.5t-85.5 -10.5 q-72 0 -112.5 27.5t-56.5 72.5z" />
<glyph unicode="&#x168;" horiz-adv-x="654" d="M251 270q0 -45 8 -74q7 -21 23 -37t48 -16q24 0 41.5 11.5t25.5 40.5q3 13 4.5 32.5t1.5 42.5v399q26 5 46.5 6t30.5 1q19 0 41 -3.5t40.5 -14t30.5 -30.5t12 -52v-300q0 -20 -1 -42t-3 -45q-4 -42 -21.5 -79t-50.5 -65t-82.5 -44t-117.5 -16q-67 0 -115.5 13t-81.5 39.5 t-51.5 65t-25.5 89.5q-2 19 -3 43t-1 41v393q26 5 46.5 6t30.5 1q20 0 42 -3.5t40 -14t30 -30.5t12 -52v-306zM412 734q-27 0 -47.5 5.5t-37.5 12.5t-31.5 12.5t-29.5 5.5q-25 0 -42 -11.5t-34 -31.5l-33 34q-17 17 -17 35q0 22 23 43q40 37 96 37q23 0 41 -5.5t33.5 -12.5 t30 -12.5t31.5 -5.5q23 0 35.5 10.5t30.5 33.5l30 -38q17 -23 17 -41q0 -19 -9 -32.5t-22.5 -22t-31 -12.5t-33.5 -4z" />
<glyph unicode="&#x169;" horiz-adv-x="555" d="M515 0h-147q-26 0 -34.5 11t-8.5 40q-12 -21 -44.5 -40.5t-87.5 -19.5q-63 0 -98 30t-47 79q-3 11 -4.5 25t-2 29t-1 29t-0.5 24v272q25 5 44.5 6t32.5 1q24 0 46 -4.5t39.5 -15.5t28 -31.5t10.5 -51.5v-190q0 -22 6.5 -35t28.5 -13t30 9.5t8 20.5v304q25 5 44.5 6 t32.5 1q24 0 46.5 -4.5t39.5 -16t27.5 -32t10.5 -52.5v-381zM363 558q-27 0 -47.5 5.5t-37.5 12.5t-31.5 12.5t-29.5 5.5q-25 0 -42 -11.5t-34 -31.5l-33 34q-17 17 -17 35q0 22 23 43q40 37 96 37q23 0 41 -5.5t33.5 -12.5t30 -12.5t31.5 -5.5q23 0 35.5 10.5t30.5 33.5 l30 -38q17 -23 17 -41q0 -19 -9 -32.5t-22.5 -22t-31 -12.5t-33.5 -4z" />
<glyph unicode="&#x16a;" horiz-adv-x="654" d="M251 270q0 -45 8 -74q7 -21 23 -37t48 -16q24 0 41.5 11.5t25.5 40.5q3 13 4.5 32.5t1.5 42.5v399q26 5 46.5 6t30.5 1q19 0 41 -3.5t40.5 -14t30.5 -30.5t12 -52v-300q0 -20 -1 -42t-3 -45q-4 -42 -21.5 -79t-50.5 -65t-82.5 -44t-117.5 -16q-67 0 -115.5 13t-81.5 39.5 t-51.5 65t-25.5 89.5q-2 19 -3 43t-1 41v393q26 5 46.5 6t30.5 1q20 0 42 -3.5t40 -14t30 -30.5t12 -52v-306zM253 736q-52 0 -69.5 17t-17.5 49q0 16 0.5 24.5t2.5 24.5h230q45 0 66.5 -13.5t21.5 -54.5q0 -12 -0.5 -22.5t-1.5 -24.5h-232z" />
<glyph unicode="&#x16b;" horiz-adv-x="555" d="M515 0h-147q-26 0 -34.5 11t-8.5 40q-12 -21 -44.5 -40.5t-87.5 -19.5q-63 0 -98 30t-47 79q-3 11 -4.5 25t-2 29t-1 29t-0.5 24v272q25 5 44.5 6t32.5 1q24 0 46 -4.5t39.5 -15.5t28 -31.5t10.5 -51.5v-190q0 -22 6.5 -35t28.5 -13t30 9.5t8 20.5v304q25 5 44.5 6 t32.5 1q24 0 46.5 -4.5t39.5 -16t27.5 -32t10.5 -52.5v-381zM204 558q-52 0 -69.5 17t-17.5 49q0 16 0.5 27t2.5 27h230q45 0 66.5 -14.5t21.5 -58.5q0 -12 -0.5 -22.5t-1.5 -24.5h-232z" />
<glyph unicode="&#x16c;" horiz-adv-x="654" d="M251 270q0 -45 8 -74q7 -21 23 -37t48 -16q24 0 41.5 11.5t25.5 40.5q3 13 4.5 32.5t1.5 42.5v399q26 5 46.5 6t30.5 1q19 0 41 -3.5t40.5 -14t30.5 -30.5t12 -52v-300q0 -20 -1 -42t-3 -45q-4 -42 -21.5 -79t-50.5 -65t-82.5 -44t-117.5 -16q-67 0 -115.5 13t-81.5 39.5 t-51.5 65t-25.5 89.5q-2 19 -3 43t-1 41v393q26 5 46.5 6t30.5 1q20 0 42 -3.5t40 -14t30 -30.5t12 -52v-306zM468 769q-50 -56 -142 -56q-91 0 -141 56q-13 14 -26.5 40.5t-15.5 61.5q10 7 29 13.5t36 6.5q16 0 24.5 -9t16.5 -24q15 -28 31 -38.5t47 -10.5q30 0 46 10.5 t31 38.5q8 15 16.5 24t24.5 9q17 0 36 -6.5t29 -13.5q-2 -35 -15.5 -61.5t-26.5 -40.5z" />
<glyph unicode="&#x16d;" horiz-adv-x="555" d="M515 0h-147q-26 0 -34.5 11t-8.5 40q-12 -21 -44.5 -40.5t-87.5 -19.5q-63 0 -98 30t-47 79q-3 11 -4.5 25t-2 29t-1 29t-0.5 24v272q25 5 44.5 6t32.5 1q24 0 46 -4.5t39.5 -15.5t28 -31.5t10.5 -51.5v-190q0 -22 6.5 -35t28.5 -13t30 9.5t8 20.5v304q25 5 44.5 6 t32.5 1q24 0 46.5 -4.5t39.5 -16t27.5 -32t10.5 -52.5v-381zM422 600q-50 -56 -142 -56q-91 0 -141 56q-13 14 -26.5 40.5t-15.5 61.5q10 7 29 13.5t36 6.5q16 0 24.5 -9t16.5 -24q15 -28 31 -38.5t47 -10.5q30 0 46 10.5t31 38.5q8 15 16.5 24t24.5 9q17 0 36 -6.5 t29 -13.5q-2 -35 -15.5 -61.5t-26.5 -40.5z" />
<glyph unicode="&#x16e;" horiz-adv-x="654" d="M251 270q0 -45 8 -74q7 -21 23 -37t48 -16q24 0 41.5 11.5t25.5 40.5q3 13 4.5 32.5t1.5 42.5v399q26 5 46.5 6t30.5 1q19 0 41 -3.5t40.5 -14t30.5 -30.5t12 -52v-300q0 -20 -1 -42t-3 -45q-4 -42 -21.5 -79t-50.5 -65t-82.5 -44t-117.5 -16q-67 0 -115.5 13t-81.5 39.5 t-51.5 65t-25.5 89.5q-2 19 -3 43t-1 41v393q26 5 46.5 6t30.5 1q20 0 42 -3.5t40 -14t30 -30.5t12 -52v-306zM436 797q0 -25 -8.5 -47t-23.5 -38.5t-37 -26.5t-49 -10q-28 0 -50 9.5t-37.5 26t-23.5 38.5t-8 47t8 47.5t23.5 39t37.5 26.5t50 10q27 0 49 -10t37 -26.5 t23.5 -38.5t8.5 -47zM366 796q0 23 -12.5 40t-35.5 17t-36 -16.5t-13 -39.5t13 -40t36 -17t35.5 17t12.5 39z" />
<glyph unicode="&#x16f;" horiz-adv-x="555" d="M515 0h-147q-26 0 -34.5 11t-8.5 40q-12 -21 -44.5 -40.5t-87.5 -19.5q-63 0 -98 30t-47 79q-3 11 -4.5 25t-2 29t-1 29t-0.5 24v272q25 5 44.5 6t32.5 1q24 0 46 -4.5t39.5 -15.5t28 -31.5t10.5 -51.5v-190q0 -22 6.5 -35t28.5 -13t30 9.5t8 20.5v304q25 5 44.5 6 t32.5 1q24 0 46.5 -4.5t39.5 -16t27.5 -32t10.5 -52.5v-381zM391 665q0 -25 -8.5 -47t-23.5 -38.5t-37 -26.5t-49 -10q-28 0 -50 9.5t-37.5 26t-23.5 38.5t-8 47t8 47.5t23.5 39t37.5 26.5t50 10q27 0 49 -10t37 -26.5t23.5 -38.5t8.5 -47zM321 664q0 23 -12.5 40t-35.5 17 t-36 -16.5t-13 -39.5t13 -40t36 -17t35.5 17t12.5 39z" />
<glyph unicode="&#x170;" horiz-adv-x="654" d="M251 270q0 -45 8 -74q7 -21 23 -37t48 -16q24 0 41.5 11.5t25.5 40.5q3 13 4.5 32.5t1.5 42.5v399q26 5 46.5 6t30.5 1q19 0 41 -3.5t40.5 -14t30.5 -30.5t12 -52v-300q0 -20 -1 -42t-3 -45q-4 -42 -21.5 -79t-50.5 -65t-82.5 -44t-117.5 -16q-67 0 -115.5 13t-81.5 39.5 t-51.5 65t-25.5 89.5q-2 19 -3 43t-1 41v393q26 5 46.5 6t30.5 1q20 0 42 -3.5t40 -14t30 -30.5t12 -52v-306zM471 729q-22 -14 -44 -14q-26 0 -45.5 15t-34.5 35l101 84q14 11 29.5 19.5t34.5 8.5q30 0 52.5 -21t40.5 -44zM229 729q-22 -14 -44 -14q-26 0 -45.5 15 t-34.5 35l101 84q14 11 29.5 19.5t34.5 8.5q30 0 52.5 -21t40.5 -44z" />
<glyph unicode="&#x171;" horiz-adv-x="555" d="M515 0h-147q-26 0 -34.5 11t-8.5 40q-12 -21 -44.5 -40.5t-87.5 -19.5q-63 0 -98 30t-47 79q-3 11 -4.5 25t-2 29t-1 29t-0.5 24v272q25 5 44.5 6t32.5 1q24 0 46 -4.5t39.5 -15.5t28 -31.5t10.5 -51.5v-190q0 -22 6.5 -35t28.5 -13t30 9.5t8 20.5v304q25 5 44.5 6 t32.5 1q24 0 46.5 -4.5t39.5 -16t27.5 -32t10.5 -52.5v-381zM435 563q-14 -14 -28 -19t-31 -5q-19 0 -37.5 10.5t-32.5 21.5l80 104q13 17 29.5 29.5t42.5 12.5q24 0 47 -13.5t42 -29.5zM224 563q-14 -14 -28 -19t-31 -5q-19 0 -37.5 10.5t-32.5 21.5l80 104 q13 17 29.5 29.5t42.5 12.5q24 0 47 -13.5t42 -29.5z" />
<glyph unicode="&#x172;" horiz-adv-x="654" d="M423 -139q16 0 27.5 9.5t18.5 17.5q9 -11 17.5 -27t8.5 -31q0 -16 -10 -28t-26 -19.5t-34.5 -11.5t-36.5 -4q-51 0 -84 23t-33 74q0 39 20 69.5t49 51.5h-12q-67 0 -115.5 13t-81.5 39.5t-51.5 65t-25.5 89.5q-2 19 -3 43t-1 41v393q28 5 47.5 6t29.5 1q20 0 42 -3.5 t40 -14t30 -30.5t12 -52v-306q0 -45 8 -74q7 -21 23 -37t48 -16q24 0 41.5 11.5t25.5 40.5q3 13 4.5 32.5t1.5 42.5v399q28 5 47.5 6t29.5 1q19 0 41 -3.5t40.5 -14t30.5 -30.5t12 -52v-300q0 -20 -1 -42t-3 -45q-6 -57 -36 -100.5t-84 -79.5q-42 -29 -62 -60.5t-20 -59.5 t25 -28z" />
<glyph unicode="&#x173;" horiz-adv-x="555" d="M461 -139q14 0 26 9.5t19 17.5q9 -11 18 -27t9 -31q0 -16 -9.5 -28t-24.5 -19.5t-34.5 -11.5t-38.5 -4q-51 0 -84 22.5t-33 73.5q0 46 26.5 81.5t60.5 55.5h-28q-26 0 -34.5 11t-8.5 40q-12 -21 -44.5 -40.5t-87.5 -19.5q-63 0 -98 30t-47 79q-3 11 -4.5 25t-2 29t-1 29 t-0.5 24v272q25 5 44.5 6t32.5 1q24 0 46 -4.5t39.5 -15.5t28 -31.5t10.5 -51.5v-190q0 -22 6.5 -35t28.5 -13t30 9.5t8 20.5v304q25 5 44.5 6t32.5 1q24 0 46.5 -4.5t39.5 -16t27.5 -32t10.5 -52.5v-381q-20 -11 -35 -25.5t-24.5 -29.5t-14.5 -29t-5 -24q0 -31 25 -31z" />
<glyph unicode="&#x174;" horiz-adv-x="927" d="M713 -5h-153l-86 262h-4l-90 -262h-148l-232 660q10 4 24.5 8t29.5 7t29.5 4.5t25.5 1.5q52 0 79 -20t38 -58l97 -328h4l63 195l-52 197q30 6 55.5 10t46.5 4q52 0 77.5 -21t34.5 -60l76 -325h5l72 324q9 40 36.5 61t78.5 21q36 0 61.5 -5.5t45.5 -12.5zM461 779l-52 -47 q-12 -11 -25.5 -15t-26.5 -4q-18 0 -36.5 6t-24.5 14l78 107q17 23 39.5 32t49.5 9q26 0 48 -8t38 -30l81 -110q-8 -8 -25 -14t-33 -6q-14 0 -29.5 4t-29.5 16z" />
<glyph unicode="&#x175;" horiz-adv-x="770" d="M599 -6h-145l-55 157h-9l-70 -157h-131l-184 472q27 9 57.5 14.5t50.5 5.5q51 0 75 -19t37 -58l63 -192h4l35 80l-44 173q29 9 50 12.5t45 3.5q42 0 61.5 -21t28.5 -63l40 -184h4l46 174q13 48 35.5 71t64.5 23q29 0 55 -6t52 -15zM382 630l-49 -58q-26 -30 -69 -30 q-18 0 -33.5 5.5t-25.5 13.5l85 126q16 23 39.5 36t54.5 13q58 0 88 -43l88 -132q-28 -19 -58 -19q-21 0 -38.5 7.5t-34.5 26.5z" />
<glyph unicode="&#x176;" horiz-adv-x="629" d="M414 231v-231h-202v226l-212 417q26 14 61.5 23.5t62.5 9.5q48 0 73.5 -18t39.5 -53l78 -187l77 189q13 31 38.5 50t74.5 19q26 0 59 -7t65 -18zM315 779l-52 -47q-12 -11 -25.5 -15t-26.5 -4q-18 0 -36.5 6t-24.5 14l78 107q17 23 39.5 32t49.5 9q26 0 48 -8t38 -30 l81 -110q-8 -8 -25 -14t-33 -6q-14 0 -29.5 4t-29.5 16z" />
<glyph unicode="&#x177;" horiz-adv-x="542" d="M410 -13q-3 -10 -7 -23t-9.5 -26.5t-11 -26.5t-11.5 -22q-35 -63 -86 -89.5t-123 -26.5q-51 0 -85 15.5t-34 59.5q0 17 8 40.5t27 56.5q17 -11 36 -15.5t33 -4.5q36 0 56 17.5t29 65.5h-79l-148 461q22 8 50.5 12.5t54.5 4.5q30 0 51 -8.5t35 -22.5t21.5 -32.5 t11.5 -37.5l44 -220h4l44 221q8 40 35 70t80 30t101 -19zM280 630l-49 -58q-26 -30 -69 -30q-18 0 -33.5 5.5t-25.5 13.5l85 126q16 23 39.5 36t54.5 13q58 0 88 -43l88 -132q-28 -19 -58 -19q-21 0 -38.5 7.5t-34.5 26.5z" />
<glyph unicode="&#x178;" horiz-adv-x="629" d="M414 231v-231h-202v226l-212 417q26 14 61.5 23.5t62.5 9.5q48 0 73.5 -18t39.5 -53l78 -187l77 189q13 31 38.5 50t74.5 19q26 0 59 -7t65 -18zM513 805q0 -37 -24.5 -58.5t-59.5 -21.5t-59.5 21.5t-24.5 58.5q0 36 24.5 58t59.5 22t59.5 -22t24.5 -58zM289 805 q0 -37 -24.5 -58.5t-59.5 -21.5t-59.5 21.5t-24.5 58.5q0 36 24.5 58t59.5 22t59.5 -22t24.5 -58z" />
<glyph unicode="&#x179;" horiz-adv-x="598" d="M28 0v132l285 385h-286q-1 17 -1.5 30.5t-0.5 30.5q0 16 5 33t18 30t34.5 21.5t53.5 8.5h348q37 0 51 -13t14 -42v-79l-286 -385h198q34 0 56 -8.5t34.5 -22t17 -30.5t4.5 -33q0 -17 -0.5 -29t-1.5 -29h-543zM336 729q-22 -14 -44 -14q-26 0 -45.5 15t-34.5 35l101 84 q14 11 29.5 19.5t34.5 8.5q30 0 52.5 -21t40.5 -44z" />
<glyph unicode="&#x17a;" horiz-adv-x="493" d="M23 0v130l194 202h-188q-2 17 -2.5 29.5t-0.5 29.5q0 27 10.5 45t27.5 28.5t38.5 14.5t44.5 4h239q38 0 58.5 -15t20.5 -55v-45l-207 -215h92q26 0 48.5 -3.5t39 -14t25.5 -29t9 -48.5q0 -17 -0.5 -29t-2.5 -29h-446zM309 563q-14 -14 -28 -19t-31 -5q-19 0 -38.5 12 t-33.5 23l86 115q13 17 29 31t42 14q24 0 49 -17.5t44 -34.5z" />
<glyph unicode="&#x17b;" horiz-adv-x="598" d="M28 0v132l285 385h-286q-1 17 -1.5 30.5t-0.5 30.5q0 16 5 33t18 30t34.5 21.5t53.5 8.5h348q37 0 51 -13t14 -42v-79l-286 -385h198q34 0 56 -8.5t34.5 -22t17 -30.5t4.5 -33q0 -17 -0.5 -29t-1.5 -29h-543zM403 807q0 -38 -25 -59.5t-61 -21.5t-61 21.5t-25 59.5 t25 60.5t61 22.5t61 -22.5t25 -60.5z" />
<glyph unicode="&#x17c;" horiz-adv-x="493" d="M23 0v130l194 202h-188q-2 17 -2.5 29.5t-0.5 29.5q0 27 10.5 45t27.5 28.5t38.5 14.5t44.5 4h239q38 0 58.5 -15t20.5 -55v-45l-207 -215h92q26 0 48.5 -3.5t39 -14t25.5 -29t9 -48.5q0 -17 -0.5 -29t-2.5 -29h-446zM353 620q0 -38 -25 -59.5t-61 -21.5t-61 21.5 t-25 59.5t25 60.5t61 22.5t61 -22.5t25 -60.5z" />
<glyph unicode="&#x17d;" horiz-adv-x="598" d="M28 0v132l285 385h-286q-1 17 -1.5 30.5t-0.5 30.5q0 16 5 33t18 30t34.5 21.5t53.5 8.5h348q37 0 51 -13t14 -42v-79l-286 -385h198q34 0 56 -8.5t34.5 -22t17 -30.5t4.5 -33q0 -17 -0.5 -29t-1.5 -29h-543zM308 821l52 47q12 11 25.5 15t26.5 4q18 0 36.5 -6t24.5 -14 l-78 -107q-17 -23 -39.5 -32t-49.5 -9q-26 0 -48 8t-38 30l-81 110q8 8 25 14t33 6q14 0 29.5 -4t29.5 -16z" />
<glyph unicode="&#x17e;" horiz-adv-x="493" d="M23 0v130l194 202h-188q-2 17 -2.5 29.5t-0.5 29.5q0 27 10.5 45t27.5 28.5t38.5 14.5t44.5 4h239q38 0 58.5 -15t20.5 -55v-45l-207 -215h92q26 0 48.5 -3.5t39 -14t25.5 -29t9 -48.5q0 -17 -0.5 -29t-2.5 -29h-446zM308 698q17 19 34.5 26.5t38.5 7.5q30 0 58 -19 l-88 -132q-30 -43 -88 -43q-31 0 -54.5 13t-39.5 36l-85 126q10 8 25.5 13.5t33.5 5.5q43 0 69 -30l49 -58z" />
<glyph unicode="&#x17f;" horiz-adv-x="400" d="M397 535q-16 9 -41 18.5t-55 9.5q-26 0 -44 -13.5t-18 -42.5v-507h-199v493q0 24 1 37.5t2 20.5q13 81 68 123.5t155 42.5q20 0 42.5 -2.5t43.5 -7.5q36 -9 62 -27t26 -52q0 -15 -12 -40.5t-31 -52.5z" />
<glyph unicode="&#x192;" horiz-adv-x="590" d="M363 306l-54 -240q-12 -53 -37 -90.5t-58.5 -62t-72.5 -36t-78 -11.5q-55 0 -73 18.5t-18 48.5q0 17 4 37.5t14 49.5h15q48 0 75 20.5t38 68.5l43 197h-77v148h111q8 34 19.5 64.5t31.5 60.5q21 33 47.5 54.5t56 34t60 18t60.5 5.5q51 0 69 -17.5t18 -49.5q0 -14 -3 -35 t-13 -49q-10 2 -21.5 2h-19.5q-45 0 -68 -20t-35 -68h128v-148h-162z" />
<glyph unicode="&#x218;" horiz-adv-x="538" d="M70 195q38 -26 79.5 -44t89.5 -18q68 0 68 55q0 15 -8 26.5t-21.5 20.5t-32 16t-39.5 14q-32 10 -64.5 24t-59.5 37.5t-44 59t-17 88.5q0 54 21.5 93.5t57 65.5t82 38.5t96.5 12.5q69 0 117.5 -15.5t68.5 -28.5t30.5 -27t10.5 -34t-11.5 -42.5t-37.5 -57.5 q-18 13 -39 22.5t-41.5 16.5t-39.5 10.5t-33 3.5q-33 0 -51 -11t-18 -31q0 -21 20.5 -33.5t56.5 -24.5q33 -11 69 -25t65.5 -37t48.5 -58.5t19 -90.5q0 -60 -19.5 -105t-55 -75t-84 -44.5t-106.5 -14.5q-72 0 -121 13.5t-76 30.5q-18 11 -27 27t-9 34q0 24 17 53t38 55z M267 -198q-11 -20 -28.5 -32t-40.5 -12q-14 0 -31 4.5t-30 9.5l45 119q10 26 26.5 43.5t45.5 17.5q23 0 45 -6t39 -14z" />
<glyph unicode="&#x219;" horiz-adv-x="451" d="M225 496q83 0 143 -25q27 -11 44.5 -26.5t17.5 -36.5q0 -18 -11.5 -43t-28.5 -48q-30 23 -63 37.5t-67 14.5q-43 0 -43 -25q0 -16 16 -24.5t40 -14.5t52 -13.5t52 -22.5t40 -41t16 -68q0 -81 -56 -128t-165 -47q-62 0 -96.5 9.5t-54.5 19.5q-26 13 -36 28.5t-10 32.5 q0 26 12.5 51t28.5 49q12 -11 27.5 -20.5t33.5 -17.5t37 -12.5t37 -4.5q26 0 37 8.5t11 21.5q0 15 -16.5 24t-40.5 16t-53 16t-53 24.5t-40.5 41t-16.5 66.5q0 40 17 70t45.5 49.5t65.5 29t78 9.5zM224 -198q-11 -20 -28.5 -32t-40.5 -12q-14 0 -31 4.5t-30 9.5l45 119 q10 26 26.5 43.5t45.5 17.5q23 0 45 -6t39 -14z" />
<glyph unicode="&#x21a;" horiz-adv-x="607" d="M204 508h-192q-2 20 -3 34.5t-1 31.5q0 16 6 33.5t19.5 31.5t35 23t53.5 9h472q2 -20 3 -36.5t1 -33.5t-5 -33.5t-17.5 -29.5t-33.5 -21.5t-53 -8.5h-83v-508h-202v508zM301 -198q-11 -20 -28.5 -32t-40.5 -12q-14 0 -31 4.5t-30 9.5l45 119q10 26 26.5 43.5t45.5 17.5 q23 0 45 -6t39 -14z" />
<glyph unicode="&#x21b;" horiz-adv-x="396" d="M49 85q-8 23 -10 45.5t-2 43.5v457q24 5 43.5 6t32.5 1q24 0 46 -4.5t39.5 -16t28 -32t10.5 -51.5v-51h128v-148h-128v-149q0 -28 12 -39t33 -11q18 0 37 8.5t32 19.5q16 -29 26 -52.5t10 -43.5q0 -14 -5 -25t-19 -21q-22 -16 -59.5 -26.5t-85.5 -10.5q-72 0 -112.5 27.5 t-56.5 72.5zM216 -198q-11 -20 -28.5 -32t-40.5 -12q-14 0 -31 4.5t-30 9.5l45 119q10 26 26.5 43.5t45.5 17.5q23 0 45 -6t39 -14z" />
<glyph unicode="&#x237;" horiz-adv-x="280" d="M40 479q24 5 43.5 6t32.5 1q24 0 46.5 -4.5t39.5 -16t27.5 -32t10.5 -52.5v-354q0 -22 -2 -54.5t-9 -58.5q-11 -40 -34.5 -67t-51.5 -43.5t-56.5 -23.5t-50.5 -7q-43 0 -63 16.5t-27 48.5q-3 13 -4.5 27.5t-3.5 39.5q32 3 52 12t31 23t15 32.5t4 40.5v466z" />
<glyph unicode="&#x2bc;" horiz-adv-x="500" d="M315 668q0 -32 -9.5 -62t-31.5 -54q-14 -17 -32.5 -28t-35.5 -11t-29.5 10t-17.5 25q8 4 17.5 9t17.5 12t13.5 16.5t5.5 21.5q0 13 -6.5 21t-14.5 16.5t-14.5 19t-6.5 28.5q0 10 4 21.5t12.5 21t22 15.5t31.5 6q38 0 56 -27.5t18 -60.5z" />
<glyph unicode="&#x2c6;" horiz-adv-x="500" d="M250 630l-49 -58q-26 -30 -69 -30q-18 0 -33.5 5.5t-25.5 13.5l85 126q16 23 39.5 36t54.5 13q58 0 88 -43l88 -132q-28 -19 -58 -19q-21 0 -38.5 7.5t-34.5 26.5z" />
<glyph unicode="&#x2c7;" horiz-adv-x="500" d="M297 698q17 19 34.5 26.5t38.5 7.5q30 0 58 -19l-88 -132q-30 -43 -88 -43q-31 0 -54.5 13t-39.5 36l-85 126q10 8 25.5 13.5t33.5 5.5q43 0 69 -30l49 -58z" />
<glyph unicode="&#x2c9;" horiz-adv-x="500" d="M176 558q-52 0 -69.5 17t-17.5 49q0 16 0.5 27t2.5 27h230q45 0 66.5 -14.5t21.5 -58.5q0 -12 -0.5 -22.5t-1.5 -24.5h-232z" />
<glyph unicode="&#x2d8;" horiz-adv-x="500" d="M391 600q-50 -56 -142 -56q-91 0 -141 56q-13 14 -26.5 40.5t-15.5 61.5q10 7 29 13.5t36 6.5q16 0 24.5 -9t16.5 -24q15 -28 31 -38.5t47 -10.5q30 0 46 10.5t31 38.5q8 15 16.5 24t24.5 9q17 0 36 -6.5t29 -13.5q-2 -35 -15.5 -61.5t-26.5 -40.5z" />
<glyph unicode="&#x2d9;" horiz-adv-x="500" d="M336 620q0 -38 -25 -59.5t-61 -21.5t-61 21.5t-25 59.5t25 60.5t61 22.5t61 -22.5t25 -60.5z" />
<glyph unicode="&#x2da;" horiz-adv-x="500" d="M363 665q0 -25 -8.5 -47t-23.5 -38.5t-37 -26.5t-49 -10q-28 0 -50 9.5t-37.5 26t-23.5 38.5t-8 47t8 47.5t23.5 39t37.5 26.5t50 10q27 0 49 -10t37 -26.5t23.5 -38.5t8.5 -47zM293 664q0 23 -12.5 40t-35.5 17t-36 -16.5t-13 -39.5t13 -40t36 -17t35.5 17t12.5 39z" />
<glyph unicode="&#x2db;" horiz-adv-x="500" d="M289 -139q14 0 23.5 8t16.5 16q11 -8 21.5 -24t10.5 -31q0 -16 -10 -28t-26 -19.5t-34.5 -11.5t-36.5 -4q-51 0 -84 23t-33 77q0 25 11 49.5t27.5 45.5t35 37t33.5 25l118 -15q-18 -13 -35.5 -29t-31.5 -32.5t-22.5 -33t-8.5 -29.5q0 -24 25 -24z" />
<glyph unicode="&#x2dc;" horiz-adv-x="500" d="M333 558q-27 0 -47.5 5.5t-37.5 12.5t-31.5 12.5t-29.5 5.5q-25 0 -42 -11.5t-34 -31.5l-33 34q-17 17 -17 35q0 22 23 43q40 37 96 37q23 0 41 -5.5t33.5 -12.5t30 -12.5t31.5 -5.5q23 0 35.5 10.5t30.5 33.5l30 -38q17 -23 17 -41q0 -19 -9 -32.5t-22.5 -22t-31 -12.5 t-33.5 -4z" />
<glyph unicode="&#x2dd;" horiz-adv-x="500" d="M412 563q-14 -14 -28 -19t-31 -5q-19 0 -37.5 10.5t-32.5 21.5l80 104q13 17 29.5 29.5t42.5 12.5q24 0 47 -13.5t42 -29.5zM201 563q-14 -14 -28 -19t-31 -5q-19 0 -37.5 10.5t-32.5 21.5l80 104q13 17 29.5 29.5t42.5 12.5q24 0 47 -13.5t42 -29.5z" />
<glyph unicode="&#x394;" horiz-adv-x="678" d="M228 656q17 8 48 14t67 6q15 0 34 -2t37 -10.5t34 -25.5t26 -46l204 -592h-678zM361 401q-6 21 -13 50.5t-9 49.5h-4q-2 -11 -4.5 -24t-5.5 -27t-6 -26.5t-6 -21.5l-81 -259h208z" />
<glyph unicode="&#x3a9;" horiz-adv-x="708" d="M118 0q-35 0 -55.5 8.5t-32 22.5t-15 31t-3.5 34t0.5 28t1.5 28h111q-14 15 -29 34t-28 44.5t-21 58.5t-8 75q0 73 23 132t65 101t101 64.5t131 22.5q76 0 134 -22t97.5 -62.5t59.5 -98t20 -128.5q0 -44 -9 -78.5t-22 -61.5t-28 -47t-28 -34h14q34 0 55 -8.5t32.5 -22.5 t15 -31t3.5 -34t-0.5 -28t-1.5 -28h-307v132q9 9 21.5 26.5t24.5 44.5t20 64.5t8 85.5q0 94 -31 134t-79 40q-51 0 -84 -43t-33 -134q0 -48 8 -85t19.5 -63.5t24 -43.5t21.5 -26v-132h-196z" />
<glyph unicode="&#x3bc;" horiz-adv-x="600" d="M384 46q-9 -18 -27.5 -36.5t-53.5 -18.5q-20 0 -38 5t-29 18v-232h-185v697q25 5 44.5 6t32.5 1q24 0 46 -4.5t39.5 -15.5t28 -31.5t10.5 -51.5v-171q0 -22 2.5 -35.5t7.5 -21t12.5 -10t16.5 -2.5q26 0 32.5 13t6.5 50v273q25 5 44.5 6t32.5 1q24 0 46 -4.5t39.5 -15.5 t28 -31.5t10.5 -51.5v-185q0 -29 2.5 -47.5t10.5 -29t22.5 -15.5t38.5 -6v-90q-22 -10 -56 -15t-66 -5q-44 0 -66 16.5t-33 39.5z" />
<glyph unicode="&#x3c0;" horiz-adv-x="656" d="M289 334v-334h-194v334h-75v149h606v-149h-79v-136q0 -29 2.5 -47.5t10.5 -29t22.5 -15.5t38.5 -6v-90q-22 -10 -55 -15t-65 -5q-42 0 -70 9t-44.5 28.5t-23.5 50t-7 72.5v184h-67z" />
<glyph unicode="&#x1e80;" horiz-adv-x="927" d="M713 -5h-153l-86 262h-4l-90 -262h-148l-232 660q10 4 24.5 8t29.5 7t29.5 4.5t25.5 1.5q52 0 79 -20t38 -58l97 -328h4l63 195l-52 197q30 6 55.5 10t46.5 4q52 0 77.5 -21t34.5 -60l76 -325h5l72 324q9 40 36.5 61t78.5 21q36 0 61.5 -5.5t45.5 -12.5zM310 812 q18 23 40.5 44t52.5 21q19 0 34.5 -8.5t29.5 -19.5l101 -84q-15 -20 -34.5 -35t-45.5 -15q-22 0 -44 14z" />
<glyph unicode="&#x1e81;" horiz-adv-x="770" d="M599 -6h-145l-55 157h-9l-70 -157h-131l-184 472q27 9 57.5 14.5t50.5 5.5q51 0 75 -19t37 -58l63 -192h4l35 80l-44 173q29 9 50 12.5t45 3.5q42 0 61.5 -21t28.5 -63l40 -184h4l46 174q13 48 35.5 71t64.5 23q29 0 55 -6t52 -15zM226 682q19 17 44 34.5t49 17.5 q26 0 42 -14t29 -31l86 -115q-14 -11 -33.5 -23t-38.5 -12q-17 0 -31 5t-28 19z" />
<glyph unicode="&#x1e82;" horiz-adv-x="927" d="M713 -5h-153l-86 262h-4l-90 -262h-148l-232 660q10 4 24.5 8t29.5 7t29.5 4.5t25.5 1.5q52 0 79 -20t38 -58l97 -328h4l63 195l-52 197q30 6 55.5 10t46.5 4q52 0 77.5 -21t34.5 -60l76 -325h5l72 324q9 40 36.5 61t78.5 21q36 0 61.5 -5.5t45.5 -12.5zM458 729 q-22 -14 -44 -14q-26 0 -45.5 15t-34.5 35l101 84q14 11 29.5 19.5t34.5 8.5q30 0 52.5 -21t40.5 -44z" />
<glyph unicode="&#x1e83;" horiz-adv-x="770" d="M599 -6h-145l-55 157h-9l-70 -157h-131l-184 472q27 9 57.5 14.5t50.5 5.5q51 0 75 -19t37 -58l63 -192h4l35 80l-44 173q29 9 50 12.5t45 3.5q42 0 61.5 -21t28.5 -63l40 -184h4l46 174q13 48 35.5 71t64.5 23q29 0 55 -6t52 -15zM405 563q-14 -14 -28 -19t-31 -5 q-19 0 -38.5 12t-33.5 23l86 115q13 17 29 31t42 14q24 0 49 -17.5t44 -34.5z" />
<glyph unicode="&#x1e84;" horiz-adv-x="927" d="M713 -5h-153l-86 262h-4l-90 -262h-148l-232 660q10 4 24.5 8t29.5 7t29.5 4.5t25.5 1.5q52 0 79 -20t38 -58l97 -328h4l63 195l-52 197q30 6 55.5 10t46.5 4q52 0 77.5 -21t34.5 -60l76 -325h5l72 324q9 40 36.5 61t78.5 21q36 0 61.5 -5.5t45.5 -12.5zM659 805 q0 -37 -24.5 -58.5t-59.5 -21.5t-59.5 21.5t-24.5 58.5q0 36 24.5 58t59.5 22t59.5 -22t24.5 -58zM435 805q0 -37 -24.5 -58.5t-59.5 -21.5t-59.5 21.5t-24.5 58.5q0 36 24.5 58t59.5 22t59.5 -22t24.5 -58z" />
<glyph unicode="&#x1e85;" horiz-adv-x="770" d="M599 -6h-145l-55 157h-9l-70 -157h-131l-184 472q27 9 57.5 14.5t50.5 5.5q51 0 75 -19t37 -58l63 -192h4l35 80l-44 173q29 9 50 12.5t45 3.5q42 0 61.5 -21t28.5 -63l40 -184h4l46 174q13 48 35.5 71t64.5 23q29 0 55 -6t52 -15zM582 629q0 -37 -24.5 -58.5 t-59.5 -21.5t-59.5 21.5t-24.5 58.5q0 36 24.5 58t59.5 22t59.5 -22t24.5 -58zM348 629q0 -37 -24.5 -58.5t-59.5 -21.5t-59.5 21.5t-24.5 58.5q0 36 24.5 58t59.5 22t59.5 -22t24.5 -58z" />
<glyph unicode="&#x1ef2;" horiz-adv-x="629" d="M414 231v-231h-202v226l-212 417q26 14 61.5 23.5t62.5 9.5q48 0 73.5 -18t39.5 -53l78 -187l77 189q13 31 38.5 50t74.5 19q26 0 59 -7t65 -18zM185 812q18 23 40.5 44t52.5 21q19 0 34.5 -8.5t29.5 -19.5l101 -84q-15 -20 -34.5 -35t-45.5 -15q-22 0 -44 14z" />
<glyph unicode="&#x1ef3;" horiz-adv-x="542" d="M410 -13q-3 -10 -7 -23t-9.5 -26.5t-11 -26.5t-11.5 -22q-35 -63 -86 -89.5t-123 -26.5q-51 0 -85 15.5t-34 59.5q0 17 8 40.5t27 56.5q17 -11 36 -15.5t33 -4.5q36 0 56 17.5t29 65.5h-79l-148 461q22 8 50.5 12.5t54.5 4.5q30 0 51 -8.5t35 -22.5t21.5 -32.5 t11.5 -37.5l44 -220h4l44 221q8 40 35 70t80 30t101 -19zM129 682q19 17 44 34.5t49 17.5q26 0 42 -14t29 -31l86 -115q-14 -11 -33.5 -23t-38.5 -12q-17 0 -31 5t-28 19z" />
<glyph unicode="&#x2013;" horiz-adv-x="500" d="M106 217q-48 0 -72 24t-24 62q0 32 3 64h372q44 0 74.5 -19t30.5 -67q0 -16 -0.5 -32t-1.5 -32h-382z" />
<glyph unicode="&#x2014;" horiz-adv-x="1000" d="M108 217q-48 0 -73 24t-25 62q0 32 3 64h871q22 0 41 -4.5t33.5 -14.5t23 -26.5t8.5 -40.5q0 -33 -3 -64h-879z" />
<glyph unicode="&#x2018;" horiz-adv-x="275" d="M40 510q0 42 12 80t40 69q19 22 42 36t45 14t38 -12.5t23 -32.5q-11 -5 -23 -11.5t-22.5 -15.5t-17 -21t-6.5 -27q0 -17 8.5 -27.5t18 -21t18 -24.5t8.5 -37q0 -14 -5 -28.5t-16 -26.5t-28 -19.5t-40 -7.5q-25 0 -43 10t-29.5 25.5t-17 36t-5.5 41.5z" />
<glyph unicode="&#x2019;" horiz-adv-x="275" d="M235 596q0 -42 -12 -80t-40 -69q-19 -22 -42 -36t-45 -14t-38 12.5t-23 32.5q11 4 23 11t22.5 16t17 21t6.5 27q0 16 -8.5 27t-18 21.5t-18 24.5t-8.5 37q0 13 5 27.5t16 26.5t28 20t40 8q25 0 43 -10t29.5 -25.5t17 -36t5.5 -41.5z" />
<glyph unicode="&#x201a;" horiz-adv-x="285" d="M230 57q0 -42 -12 -80t-40 -69q-19 -22 -42 -36t-45 -14t-38 12.5t-23 32.5q11 4 23 11t22.5 16t17 21t6.5 27q0 16 -8.5 27t-18 21.5t-18 24.5t-8.5 37q0 13 5 27.5t16 26.5t28 20t40 8q25 0 43 -10t29.5 -25.5t17 -36t5.5 -41.5z" />
<glyph unicode="&#x201c;" horiz-adv-x="519" d="M284 510q0 42 12 80t40 69q19 22 42 36t45 14t38 -12.5t23 -32.5q-11 -5 -23 -11.5t-22.5 -15.5t-17 -21t-6.5 -27q0 -17 8.5 -27.5t18 -21t18 -24.5t8.5 -37q0 -14 -5 -28.5t-16 -26.5t-28 -19.5t-40 -7.5q-25 0 -43 10t-29.5 25.5t-17 36t-5.5 41.5zM40 510q0 42 12 80 t40 69q19 22 42 36t45 14t38 -12.5t23 -32.5q-11 -5 -23 -11.5t-22.5 -15.5t-17 -21t-6.5 -27q0 -17 8.5 -27.5t18 -21t18 -24.5t8.5 -37q0 -14 -5 -28.5t-16 -26.5t-28 -19.5t-40 -7.5q-25 0 -43 10t-29.5 25.5t-17 36t-5.5 41.5z" />
<glyph unicode="&#x201d;" horiz-adv-x="519" d="M479 596q0 -42 -12 -80t-40 -69q-19 -22 -42 -36t-45 -14t-38 12.5t-23 32.5q11 4 23 11t22.5 16t17 21t6.5 27q0 16 -8.5 27t-18 21.5t-18 24.5t-8.5 37q0 13 5 27.5t16 26.5t28 20t40 8q25 0 43 -10t29.5 -25.5t17 -36t5.5 -41.5zM235 596q0 -42 -12 -80t-40 -69 q-19 -22 -42 -36t-45 -14t-38 12.5t-23 32.5q11 4 23 11t22.5 16t17 21t6.5 27q0 16 -8.5 27t-18 21.5t-18 24.5t-8.5 37q0 13 5 27.5t16 26.5t28 20t40 8q25 0 43 -10t29.5 -25.5t17 -36t5.5 -41.5z" />
<glyph unicode="&#x201e;" horiz-adv-x="529" d="M474 57q0 -42 -12 -80t-40 -69q-19 -22 -42 -36t-45 -14t-38 12.5t-23 32.5q11 4 23 11t22.5 16t17 21t6.5 27q0 16 -8.5 27t-18 21.5t-18 24.5t-8.5 37q0 13 5 27.5t16 26.5t28 20t40 8q25 0 43 -10t29.5 -25.5t17 -36t5.5 -41.5zM230 57q0 -42 -12 -80t-40 -69 q-19 -22 -42 -36t-45 -14t-38 12.5t-23 32.5q11 4 23 11t22.5 16t17 21t6.5 27q0 16 -8.5 27t-18 21.5t-18 24.5t-8.5 37q0 13 5 27.5t16 26.5t28 20t40 8q25 0 43 -10t29.5 -25.5t17 -36t5.5 -41.5z" />
<glyph unicode="&#x2020;" horiz-adv-x="464" d="M303 -118h-146v481h-66q-26 0 -40 7.5t-21 19t-8.5 24t-1.5 22.5q0 12 2.5 31t4.5 33h131v171q19 2 34.5 3t19.5 1q16 0 32.5 -3t29.5 -12.5t21 -26.5t8 -45v-88h73q23 0 37.5 -6.5t22.5 -16.5t10.5 -22.5t2.5 -24.5q0 -17 -2.5 -35t-5.5 -32h-138v-481z" />
<glyph unicode="&#x2021;" horiz-adv-x="484" d="M313 -118h-146v154h-66q-26 0 -40 7.5t-21 19t-8.5 24t-1.5 22.5q0 12 2.5 31t4.5 33h130v207h-66q-26 0 -40 7.5t-21 19t-8.5 24t-1.5 22.5q0 12 2.5 31t4.5 33h131v154q19 2 34.5 3t19.5 1q16 0 32.5 -3t29.5 -12.5t21 -26.5t8 -45v-71h73q23 0 37.5 -6.5t22.5 -16.5 t10.5 -22.5t2.5 -24.5q0 -17 -2.5 -35t-5.5 -32h-138v-207h73q23 0 37.5 -6.5t22.5 -16.5t10.5 -22.5t2.5 -24.5q0 -17 -2.5 -35t-5.5 -32h-138v-154z" />
<glyph unicode="&#x2022;" horiz-adv-x="387" d="M337 350q0 -29 -10.5 -55t-30 -45.5t-46 -31t-57.5 -11.5q-32 0 -58.5 11.5t-45.5 31t-29 45.5t-10 55q0 30 10 56t29 45.5t45.5 31t58.5 11.5t58.5 -11.5t45.5 -31t29.5 -45.5t10.5 -56z" />
<glyph unicode="&#x2026;" horiz-adv-x="778" d="M484 79q0 -42 -25 -68t-70 -26t-70 26t-25 68t26.5 67t68.5 25t68.5 -25t26.5 -67zM743 79q0 -42 -25 -68t-70 -26t-70 26t-25 68t26.5 67t68.5 25t68.5 -25t26.5 -67zM226 79q0 -42 -25 -68t-70 -26t-70 26t-25 68t26.5 67t68.5 25t68.5 -25t26.5 -67z" />
<glyph unicode="&#x2030;" horiz-adv-x="1192" d="M361 508q0 -85 -47 -132t-125 -47q-81 0 -126.5 47t-45.5 132q0 42 13 75t36 55.5t54.5 34t68.5 11.5q79 0 125.5 -45.5t46.5 -130.5zM226 509q0 35 -7 54.5t-30 19.5q-22 0 -29 -19.5t-7 -55.5q0 -37 7 -58.5t29 -21.5q23 0 30 21.5t7 59.5zM792 160q0 -85 -47 -132 t-125 -47q-81 0 -126.5 47t-45.5 132q0 42 13 75t36 55.5t54.5 34t68.5 11.5q79 0 125.5 -45.5t46.5 -130.5zM657 161q0 35 -7 54.5t-30 19.5q-22 0 -29 -19.5t-7 -55.5q0 -37 7 -58.5t29 -21.5q23 0 30 21.5t7 59.5zM1167 161q0 -85 -47 -132t-125 -47q-81 0 -126.5 47 t-45.5 132q0 42 13 75t36 55.5t54.5 34t68.5 11.5q79 0 125.5 -45.5t46.5 -130.5zM1032 162q0 35 -7 54.5t-30 19.5q-22 0 -29 -19.5t-7 -55.5q0 -37 7 -58.5t29 -21.5q23 0 30 21.5t7 59.5zM299 0h-149l324 600q10 19 19.5 34.5t22.5 27t31.5 17.5t46.5 6q19 0 36 -2.5 t31 -9.5z" />
<glyph unicode="&#x2039;" horiz-adv-x="319" d="M207 282l48 -65q12 -17 18 -33.5t6 -35.5q0 -23 -9.5 -45t-32.5 -50l-162 139q-45 39 -45 90q0 26 13 48.5t33 40.5l149 135q28 -31 39 -52.5t11 -44.5q0 -15 -5.5 -32t-19.5 -36z" />
<glyph unicode="&#x203a;" horiz-adv-x="319" d="M69 341q-14 19 -19.5 36t-5.5 32q0 23 11 44.5t39 52.5l149 -135q20 -18 33 -40.5t13 -48.5q0 -51 -45 -90l-162 -139q-23 28 -32.5 50t-9.5 45q0 19 6 35.5t18 33.5l48 65z" />
<glyph unicode="&#x2044;" horiz-adv-x="89" d="M-77 0h-144l324 600q10 19 19.5 34.5t22.5 27t31.5 17.5t46.5 6q16 0 32 -2.5t30 -9.5z" />
<glyph unicode="&#x2070;" d="M371 480q0 -100 -47.5 -152.5t-128.5 -52.5q-85 0 -130.5 52.5t-45.5 152.5q0 102 49 153t127 51q84 0 130 -49t46 -155zM236 481q0 51 -7.5 79t-33.5 28q-24 0 -32.5 -28.5t-8.5 -79.5t8.5 -81t32.5 -30q26 0 33.5 26t7.5 86z" />
<glyph unicode="&#x2074;" d="M28 362v81l138 208q12 18 30 29t52 11q24 0 44 -6t29 -12v-225h19q20 0 28 -9.5t8 -25.5q0 -9 -1.5 -22.5t-3.5 -28.5h-50v-73h-134v73h-159zM187 448v109h-4l-70 -109h74z" />
<glyph unicode="&#x2075;" d="M86 681h260q2 -11 2.5 -19.5t0.5 -19.5q0 -10 -3.5 -20.5t-11 -19.5t-21 -14.5t-32.5 -5.5h-102l-5 -42q13 3 22.5 4t20.5 1q63 0 100.5 -30t37.5 -93q0 -29 -9.5 -56t-30 -47t-53.5 -32t-80 -12q-53 0 -80.5 8.5t-39.5 15.5q-24 13 -24 33q0 13 7 30t24 42 q18 -14 44 -24.5t57 -10.5q23 0 37 10t14 35q0 28 -16 37t-34 9q-20 0 -36 -4t-33 -12l-40 17z" />
<glyph unicode="&#x2076;" d="M357 429q0 -39 -12.5 -68t-33.5 -48t-50 -28.5t-62 -9.5q-82 0 -124 47.5t-42 131.5q0 61 19 106t49.5 74t68 43t74.5 14q44 0 58 -12.5t14 -35.5q0 -9 -1 -24t-3 -24q-13 2 -21 2.5t-19 0.5q-15 0 -30.5 -2.5t-29 -9.5t-24.5 -18t-17 -27q14 8 32 11.5t32 3.5 q31 0 54 -10.5t38 -28t22.5 -40.5t7.5 -48zM229 423q0 56 -39 56q-5 0 -13 -0.5t-14 -2.5q-2 -9 -2 -18v-19q0 -27 7.5 -49t30.5 -22q13 0 21.5 13t8.5 42z" />
<glyph unicode="&#x2077;" d="M212 289h-134l128 281h-162q-5 23 -5.5 35t-0.5 20q0 26 17.5 41t50.5 15h209q26 0 33.5 -8.5t7.5 -29.5v-46z" />
<glyph unicode="&#x2078;" d="M359 402q0 -34 -12 -58t-34 -39.5t-51.5 -22.5t-65.5 -7q-78 0 -121 29.5t-43 92.5q0 38 21.5 62t45.5 34q-25 11 -39 34t-14 48q0 28 11.5 50t31.5 36.5t47.5 22t59.5 7.5q67 0 108.5 -28t41.5 -85q0 -27 -15 -49t-38 -35q29 -11 47.5 -34.5t18.5 -57.5zM231 407 q0 22 -8.5 35.5t-26.5 13.5t-27 -13.5t-9 -35.5q0 -47 36 -47q35 0 35 47zM227 572q0 39 -31 39t-31 -39q0 -18 7 -30.5t24 -12.5q31 0 31 43z" />
<glyph unicode="&#x2079;" d="M30 537q0 39 12.5 68t33.5 48t50 28.5t62 9.5q82 0 124 -48t42 -133q0 -62 -18.5 -106.5t-48.5 -73t-68 -42t-76 -13.5q-43 0 -57.5 12t-14.5 36q0 9 1 22t3 22q13 -2 20 -2.5t18 -0.5q14 0 29.5 3t30 9.5t26 18t17.5 28.5q-14 -8 -32 -11.5t-32 -3.5q-31 0 -54 10.5 t-38 28.5t-22.5 41t-7.5 49zM158 541q0 -57 39 -57q7 0 13.5 1t11.5 2q4 15 4 38q0 29 -7 51t-26 22q-35 0 -35 -57z" />
<glyph unicode="&#x2080;" d="M371 192q0 -100 -47.5 -152.5t-128.5 -52.5q-85 0 -130.5 52.5t-45.5 152.5q0 102 49 153t127 51q84 0 130 -49t46 -155zM236 193q0 51 -7.5 79t-33.5 28q-24 0 -32.5 -28.5t-8.5 -79.5t8.5 -81t32.5 -30q26 0 33.5 26t7.5 86z" />
<glyph unicode="&#x2081;" d="M178 1v240l-89 -44q-13 20 -24.5 43t-11.5 41t8.5 28.5t29.5 21.5l104 55q14 8 28.5 12.5t35.5 4.5q25 0 37 -7t20 -16v-379h-138z" />
<glyph unicode="&#x2082;" d="M47 1v97q18 12 46 35.5t54 47.5q25 23 41.5 44t16.5 41q0 23 -15 29.5t-32 6.5q-21 0 -43 -10t-41 -26q-17 20 -27 38.5t-10 31.5q0 19 19 32q18 13 50 24t83 11q30 0 57.5 -7t48 -22t32.5 -39t12 -58q0 -37 -19 -65.5t-45 -53.5q-14 -14 -29 -27t-29 -24h67 q32 0 50 -13.5t18 -50.5q0 -9 -0.5 -16.5t-1.5 -13.5l-2 -12h-301z" />
<glyph unicode="&#x2083;" d="M350 116q0 -60 -40 -94.5t-125 -34.5q-45 0 -72 7.5t-44 16.5q-29 15 -29 40q0 13 6.5 29.5t26.5 45.5q18 -17 43 -29.5t53 -12.5q22 0 35.5 8t13.5 28q0 13 -5 21.5t-13 13t-17.5 6t-17.5 1.5h-36v80h40q16 0 28 8.5t12 25.5t-11 24t-28 7q-25 0 -46.5 -8t-48.5 -25 q-36 39 -36 65q0 12 7 21t16 14q20 12 53.5 20.5t78.5 8.5q78 0 112.5 -30t34.5 -75q0 -38 -18.5 -58t-42.5 -33q29 -11 49.5 -32t20.5 -59z" />
<glyph unicode="&#x2084;" d="M15 74v81l138 208q12 18 30 29t52 11q24 0 44 -6t29 -12v-225h19q20 0 28 -9.5t8 -25.5q0 -9 -1.5 -22.5t-3.5 -28.5h-50v-73h-134v73h-159zM174 160v109h-4l-70 -109h74z" />
<glyph unicode="&#x2085;" d="M71 393h260q2 -11 2.5 -19.5t0.5 -19.5q0 -10 -3.5 -20.5t-11 -19.5t-21 -14.5t-32.5 -5.5h-102l-5 -42q13 3 22.5 4t20.5 1q63 0 100.5 -30t37.5 -93q0 -29 -9.5 -56t-30 -47t-53.5 -32t-80 -12q-53 0 -80.5 8.5t-39.5 15.5q-24 13 -24 33q0 13 7 30t24 42 q18 -14 44 -24.5t57 -10.5q23 0 37 10t14 35q0 28 -16 37t-34 9q-20 0 -36 -4t-33 -12l-40 17z" />
<glyph unicode="&#x2086;" d="M357 141q0 -39 -12.5 -68t-33.5 -48t-50 -28.5t-62 -9.5q-82 0 -124 47.5t-42 131.5q0 61 19 106t49.5 74t68 43t74.5 14q44 0 58 -12.5t14 -35.5q0 -9 -1 -24t-3 -24q-13 2 -21 2.5t-19 0.5q-15 0 -30.5 -2.5t-29 -9.5t-24.5 -18t-17 -27q14 8 32 11.5t32 3.5 q31 0 54 -10.5t38 -28t22.5 -40.5t7.5 -48zM229 135q0 56 -39 56q-5 0 -13 -0.5t-14 -2.5q-2 -9 -2 -18v-19q0 -27 7.5 -49t30.5 -22q13 0 21.5 13t8.5 42z" />
<glyph unicode="&#x2087;" d="M211 1h-134l128 281h-162q-5 23 -5.5 35t-0.5 20q0 26 17.5 41t50.5 15h209q26 0 33.5 -8.5t7.5 -29.5v-46z" />
<glyph unicode="&#x2088;" d="M359 114q0 -34 -12 -58t-34 -39.5t-51.5 -22.5t-65.5 -7q-78 0 -121 29.5t-43 92.5q0 38 21.5 62t45.5 34q-25 11 -39 34t-14 48q0 28 11.5 50t31.5 36.5t47.5 22t59.5 7.5q67 0 108.5 -28t41.5 -85q0 -27 -15 -49t-38 -35q29 -11 47.5 -34.5t18.5 -57.5zM231 119 q0 22 -8.5 35.5t-26.5 13.5t-27 -13.5t-9 -35.5q0 -47 36 -47q35 0 35 47zM227 284q0 39 -31 39t-31 -39q0 -18 7 -30.5t24 -12.5q31 0 31 43z" />
<glyph unicode="&#x2089;" d="M33 249q0 39 12.5 68t33.5 48t50 28.5t62 9.5q82 0 124 -48t42 -133q0 -62 -18.5 -106.5t-48.5 -73t-68 -42t-76 -13.5q-43 0 -57.5 12t-14.5 36q0 9 1 22t3 22q13 -2 20 -2.5t18 -0.5q14 0 29.5 3t30 9.5t26 18t17.5 28.5q-14 -8 -32 -11.5t-32 -3.5q-31 0 -54 10.5 t-38 28.5t-22.5 41t-7.5 49zM161 253q0 -57 39 -57q7 0 13.5 1t11.5 2q4 15 4 38q0 29 -7 51t-26 22q-35 0 -35 -57z" />
<glyph unicode="&#x20ac;" horiz-adv-x="590" d="M557 31q-6 -6 -18 -14t-32 -16t-48 -13.5t-65 -5.5q-65 0 -115 18t-85.5 51t-57.5 79t-31 102h-60v57h54q-1 9 -1 18v46h-53v57h60q10 59 34.5 107t61 82.5t84.5 53t106 18.5q34 0 61.5 -5.5t49 -14t37 -18t25.5 -17.5q13 -11 22.5 -26t9.5 -34q0 -20 -17 -46.5 t-43 -54.5q-31 28 -58 44t-68 16q-51 0 -77 -28.5t-36 -76.5h167v-57h-174v-42q0 -11 1 -22h173v-57h-163q11 -45 37 -70.5t74 -25.5q37 0 62.5 12.5t54.5 40.5q7 -9 16 -21.5t17.5 -26t14 -28t5.5 -27.5q0 -30 -25 -55z" />
<glyph unicode="&#x2113;" horiz-adv-x="456" d="M180 289q54 60 85.5 123.5t31.5 132.5q0 48 -16 67.5t-38 19.5q-26 0 -44.5 -33t-18.5 -109v-201zM366 115l19.5 -19.5t20.5 -18.5q-27 -40 -65.5 -63t-90.5 -23q-70 0 -108 39.5t-38 127.5q-13 -10 -24.5 -18t-24.5 -17q-5 11 -11.5 22t-13.5 22q19 13 37 27.5t36 30.5 v212q0 71 9.5 119.5t28 78t45 42.5t61.5 13q51 0 84 -37.5t33 -106.5q0 -91 -48 -172.5t-136 -163.5v-20q0 -41 6 -66.5t16.5 -39.5t25 -19.5t31.5 -5.5q32 0 61.5 16.5t45.5 39.5z" />
<glyph unicode="&#x2122;" horiz-adv-x="822" d="M447 671q29 0 46 -12t24 -32l62 -183l61 181q9 26 30.5 36t40.5 10t36.5 -3t25.5 -7l19 -364h-112l-8 175l-47 -129h-98l-45 125l-9 -171h-113l25 364q8 4 27.5 7t34.5 3zM334 666q3 -12 4 -24.5t1 -17.5q0 -10 -3 -20.5t-10.5 -19t-22 -14t-36.5 -5.5h-33v-268h-121v268 h-98q-3 14 -4 27.5t-1 18.5q0 10 2.5 20t10 18t21.5 12.5t38 4.5h252z" />
<glyph unicode="&#x2126;" horiz-adv-x="708" d="M118 0q-35 0 -55.5 8.5t-32 22.5t-15 31t-3.5 34t0.5 28t1.5 28h111q-14 15 -29 34t-28 44.5t-21 58.5t-8 75q0 73 23 132t65 101t101 64.5t131 22.5q76 0 134 -22t97.5 -62.5t59.5 -98t20 -128.5q0 -44 -9 -78.5t-22 -61.5t-28 -47t-28 -34h14q34 0 55 -8.5t32.5 -22.5 t15 -31t3.5 -34t-0.5 -28t-1.5 -28h-307v132q9 9 21.5 26.5t24.5 44.5t20 64.5t8 85.5q0 94 -31 134t-79 40q-51 0 -84 -43t-33 -134q0 -48 8 -85t19.5 -63.5t24 -43.5t21.5 -26v-132h-196z" />
<glyph unicode="&#x212e;" horiz-adv-x="742" d="M187 340v-230q75 -75 183 -75q79 0 137.5 35.5t106.5 116.5l44 -26q-29 -45 -59 -77.5t-64 -53.5t-74.5 -30.5t-90.5 -9.5q-75 0 -135 27.5t-102.5 74.5t-65.5 111t-23 137t23 137t65.5 111.5t102.5 74.5t135 27q73 0 133 -26t103 -72.5t67 -111t25 -140.5h-511zM555 386 v183q-79 76 -186 76q-109 0 -182 -76v-183h368z" />
<glyph unicode="&#x2153;" horiz-adv-x="900" d="M150 289v240l-89 -44q-13 20 -24.5 43t-11.5 41t8.5 28.5t29.5 21.5l104 55q14 8 28.5 12.5t35.5 4.5q25 0 37 -7t20 -16v-379h-138zM324 0h-144l324 600q10 19 19.5 34.5t22.5 27t31.5 17.5t46.5 6q16 0 32 -2.5t30 -9.5zM862 128q0 -60 -40 -94.5t-125 -34.5 q-45 0 -72 7.5t-44 16.5q-29 15 -29 40q0 13 6.5 29.5t26.5 45.5q18 -17 43 -29.5t53 -12.5q22 0 35.5 8t13.5 28q0 13 -5 21.5t-13 13t-17.5 6t-17.5 1.5h-36v80h40q16 0 28 8.5t12 25.5t-11 24t-28 7q-25 0 -46.5 -8t-48.5 -25q-36 39 -36 65q0 12 7 21t16 14 q20 12 53.5 20.5t78.5 8.5q78 0 112.5 -30t34.5 -75q0 -38 -18.5 -58t-42.5 -33q29 -11 49.5 -32t20.5 -59z" />
<glyph unicode="&#x2154;" horiz-adv-x="900" d="M32 289v97q18 12 46 35.5t54 47.5q25 23 41.5 44t16.5 41q0 23 -15 29.5t-32 6.5q-21 0 -43 -10t-41 -26q-17 20 -27 38.5t-10 31.5q0 19 19 32q18 13 50 24t83 11q30 0 57.5 -7t48 -22t32.5 -39t12 -58q0 -37 -19 -65.5t-45 -53.5q-14 -14 -29 -27t-29 -24h67 q32 0 50 -13.5t18 -50.5q0 -9 -0.5 -16.5t-1.5 -13.5l-2 -12h-301zM887 129q0 -60 -40 -94.5t-125 -34.5q-45 0 -72 7.5t-44 16.5q-29 15 -29 40q0 13 6.5 29.5t26.5 45.5q18 -17 43 -29.5t53 -12.5q22 0 35.5 8t13.5 28q0 13 -5 21.5t-13 13t-17.5 6t-17.5 1.5h-36v80h40 q16 0 28 8.5t12 25.5t-11 24t-28 7q-25 0 -46.5 -8t-48.5 -25q-36 39 -36 65q0 12 7 21t16 14q20 12 53.5 20.5t78.5 8.5q78 0 112.5 -30t34.5 -75q0 -38 -18.5 -58t-42.5 -33q29 -11 49.5 -32t20.5 -59zM352 0h-144l324 600q10 19 19.5 34.5t22.5 27t31.5 17.5t46.5 6 q16 0 32 -2.5t30 -9.5z" />
<glyph unicode="&#x2155;" horiz-adv-x="900" d="M151 289v240l-89 -44q-13 20 -24.5 43t-11.5 41t8.5 28.5t29.5 21.5l104 55q14 8 28.5 12.5t35.5 4.5q25 0 37 -7t20 -16v-379h-138zM322 0h-144l324 600q10 19 19.5 34.5t22.5 27t31.5 17.5t46.5 6q16 0 32 -2.5t30 -9.5zM601 407h260q2 -11 2.5 -19.5t0.5 -19.5 q0 -10 -3.5 -20.5t-11 -19.5t-21 -14.5t-32.5 -5.5h-102l-5 -42q13 3 22.5 4t20.5 1q63 0 100.5 -30t37.5 -93q0 -29 -9.5 -56t-30 -47t-53.5 -32t-80 -12q-53 0 -80.5 8.5t-39.5 15.5q-24 13 -24 33q0 13 7 30t24 42q18 -14 44 -24.5t57 -10.5q23 0 37 10t14 35 q0 28 -16 37t-34 9q-20 0 -36 -4t-33 -12l-40 17z" />
<glyph unicode="&#x2156;" horiz-adv-x="900" d="M344 0h-144l324 600q10 19 19.5 34.5t22.5 27t31.5 17.5t46.5 6q16 0 32 -2.5t30 -9.5zM35 289v97q18 12 46 35.5t54 47.5q25 23 41.5 44t16.5 41q0 23 -15 29.5t-32 6.5q-21 0 -43 -10t-41 -26q-17 20 -27 38.5t-10 31.5q0 19 19 32q18 13 50 24t83 11q30 0 57.5 -7 t48 -22t32.5 -39t12 -58q0 -37 -19 -65.5t-45 -53.5q-14 -14 -29 -27t-29 -24h67q32 0 50 -13.5t18 -50.5q0 -9 -0.5 -16.5t-1.5 -13.5l-2 -12h-301zM598 405h260q2 -11 2.5 -19.5t0.5 -19.5q0 -10 -3.5 -20.5t-11 -19.5t-21 -14.5t-32.5 -5.5h-102l-5 -42q13 3 22.5 4 t20.5 1q63 0 100.5 -30t37.5 -93q0 -29 -9.5 -56t-30 -47t-53.5 -32t-80 -12q-53 0 -80.5 8.5t-39.5 15.5q-24 13 -24 33q0 13 7 30t24 42q18 -14 44 -24.5t57 -10.5q23 0 37 10t14 35q0 28 -16 37t-34 9q-20 0 -36 -4t-33 -12l-40 17z" />
<glyph unicode="&#x2157;" horiz-adv-x="900" d="M343 0h-144l324 600q10 19 19.5 34.5t22.5 27t31.5 17.5t46.5 6q16 0 32 -2.5t30 -9.5zM355 404q0 -60 -40 -94.5t-125 -34.5q-45 0 -72 7.5t-44 16.5q-29 15 -29 40q0 13 6.5 29.5t26.5 45.5q18 -17 43 -29.5t53 -12.5q22 0 35.5 8t13.5 28q0 13 -5 21.5t-13 13t-17.5 6 t-17.5 1.5h-36v80h40q16 0 28 8.5t12 25.5t-11 24t-28 7q-25 0 -46.5 -8t-48.5 -25q-36 39 -36 65q0 12 7 21t16 14q20 12 53.5 20.5t78.5 8.5q78 0 112.5 -30t34.5 -75q0 -38 -18.5 -58t-42.5 -33q29 -11 49.5 -32t20.5 -59zM597 406h260q2 -11 2.5 -19.5t0.5 -19.5 q0 -10 -3.5 -20.5t-11 -19.5t-21 -14.5t-32.5 -5.5h-102l-5 -42q13 3 22.5 4t20.5 1q63 0 100.5 -30t37.5 -93q0 -29 -9.5 -56t-30 -47t-53.5 -32t-80 -12q-53 0 -80.5 8.5t-39.5 15.5q-24 13 -24 33q0 13 7 30t24 42q18 -14 44 -24.5t57 -10.5q23 0 37 10t14 35 q0 28 -16 37t-34 9q-20 0 -36 -4t-33 -12l-40 17z" />
<glyph unicode="&#x2158;" horiz-adv-x="900" d="M359 0h-144l324 600q10 19 19.5 34.5t22.5 27t31.5 17.5t46.5 6q16 0 32 -2.5t30 -9.5zM29 362v81l138 208q12 18 30 29t52 11q24 0 44 -6t29 -12v-225h19q20 0 28 -9.5t8 -25.5q0 -9 -1.5 -22.5t-3.5 -28.5h-50v-73h-134v73h-159zM188 448v109h-4l-70 -109h74zM610 407 h260q2 -11 2.5 -19.5t0.5 -19.5q0 -10 -3.5 -20.5t-11 -19.5t-21 -14.5t-32.5 -5.5h-102l-5 -42q13 3 22.5 4t20.5 1q63 0 100.5 -30t37.5 -93q0 -29 -9.5 -56t-30 -47t-53.5 -32t-80 -12q-53 0 -80.5 8.5t-39.5 15.5q-24 13 -24 33q0 13 7 30t24 42q18 -14 44 -24.5 t57 -10.5q23 0 37 10t14 35q0 28 -16 37t-34 9q-20 0 -36 -4t-33 -12l-40 17z" />
<glyph unicode="&#x2159;" horiz-adv-x="900" d="M331 0h-144l324 600q10 19 19.5 34.5t22.5 27t31.5 17.5t46.5 6q16 0 32 -2.5t30 -9.5zM154 289v240l-89 -44q-13 20 -24.5 43t-11.5 41t8.5 28.5t29.5 21.5l104 55q14 8 28.5 12.5t35.5 4.5q25 0 37 -7t20 -16v-379h-138zM874 154q0 -39 -12.5 -68t-33.5 -48t-50 -28.5 t-62 -9.5q-82 0 -124 47.5t-42 131.5q0 61 19 106t49.5 74t68 43t74.5 14q44 0 58 -12.5t14 -35.5q0 -9 -1 -24t-3 -24q-13 2 -21 2.5t-19 0.5q-15 0 -30.5 -2.5t-29 -9.5t-24.5 -18t-17 -27q14 8 32 11.5t32 3.5q31 0 54 -10.5t38 -28t22.5 -40.5t7.5 -48zM746 148 q0 56 -39 56q-5 0 -13 -0.5t-14 -2.5q-2 -9 -2 -18v-19q0 -27 7.5 -49t30.5 -22q13 0 21.5 13t8.5 42z" />
<glyph unicode="&#x215a;" horiz-adv-x="900" d="M86 681h260q2 -11 2.5 -19.5t0.5 -19.5q0 -10 -3.5 -20.5t-11 -19.5t-21 -14.5t-32.5 -5.5h-102l-5 -42q13 3 22.5 4t20.5 1q63 0 100.5 -30t37.5 -93q0 -29 -9.5 -56t-30 -47t-53.5 -32t-80 -12q-53 0 -80.5 8.5t-39.5 15.5q-24 13 -24 33q0 13 7 30t24 42 q18 -14 44 -24.5t57 -10.5q23 0 37 10t14 35q0 28 -16 37t-34 9q-20 0 -36 -4t-33 -12l-40 17zM343 0h-144l324 600q10 19 19.5 34.5t22.5 27t31.5 17.5t46.5 6q16 0 32 -2.5t30 -9.5zM871 154q0 -39 -12.5 -68t-33.5 -48t-50 -28.5t-62 -9.5q-82 0 -124 47.5t-42 131.5 q0 61 19 106t49.5 74t68 43t74.5 14q44 0 58 -12.5t14 -35.5q0 -9 -1 -24t-3 -24q-13 2 -21 2.5t-19 0.5q-15 0 -30.5 -2.5t-29 -9.5t-24.5 -18t-17 -27q14 8 32 11.5t32 3.5q31 0 54 -10.5t38 -28t22.5 -40.5t7.5 -48zM743 148q0 56 -39 56q-5 0 -13 -0.5t-14 -2.5 q-2 -9 -2 -18v-19q0 -27 7.5 -49t30.5 -22q13 0 21.5 13t8.5 42z" />
<glyph unicode="&#x215b;" horiz-adv-x="900" d="M149 289v240l-89 -44q-13 20 -24.5 43t-11.5 41t8.5 28.5t29.5 21.5l104 55q14 8 28.5 12.5t35.5 4.5q25 0 37 -7t20 -16v-379h-138zM328 0h-144l324 600q10 19 19.5 34.5t22.5 27t31.5 17.5t46.5 6q16 0 32 -2.5t30 -9.5zM876 127q0 -34 -12 -58t-34 -39.5t-51.5 -22.5 t-65.5 -7q-78 0 -121 29.5t-43 92.5q0 38 21.5 62t45.5 34q-25 11 -39 34t-14 48q0 28 11.5 50t31.5 36.5t47.5 22t59.5 7.5q67 0 108.5 -28t41.5 -85q0 -27 -15 -49t-38 -35q29 -11 47.5 -34.5t18.5 -57.5zM748 132q0 22 -8.5 35.5t-26.5 13.5t-27 -13.5t-9 -35.5 q0 -47 36 -47q35 0 35 47zM744 297q0 39 -31 39t-31 -39q0 -18 7 -30.5t24 -12.5q31 0 31 43z" />
<glyph unicode="&#x215c;" horiz-adv-x="900" d="M351 404q0 -60 -40 -94.5t-125 -34.5q-45 0 -72 7.5t-44 16.5q-29 15 -29 40q0 13 6.5 29.5t26.5 45.5q18 -17 43 -29.5t53 -12.5q22 0 35.5 8t13.5 28q0 13 -5 21.5t-13 13t-17.5 6t-17.5 1.5h-36v80h40q16 0 28 8.5t12 25.5t-11 24t-28 7q-25 0 -46.5 -8t-48.5 -25 q-36 39 -36 65q0 12 7 21t16 14q20 12 53.5 20.5t78.5 8.5q78 0 112.5 -30t34.5 -75q0 -38 -18.5 -58t-42.5 -33q29 -11 49.5 -32t20.5 -59zM338 0h-144l324 600q10 19 19.5 34.5t22.5 27t31.5 17.5t46.5 6q16 0 32 -2.5t30 -9.5zM874 127q0 -34 -12 -58t-34 -39.5 t-51.5 -22.5t-65.5 -7q-78 0 -121 29.5t-43 92.5q0 38 21.5 62t45.5 34q-25 11 -39 34t-14 48q0 28 11.5 50t31.5 36.5t47.5 22t59.5 7.5q67 0 108.5 -28t41.5 -85q0 -27 -15 -49t-38 -35q29 -11 47.5 -34.5t18.5 -57.5zM746 132q0 22 -8.5 35.5t-26.5 13.5t-27 -13.5 t-9 -35.5q0 -47 36 -47q35 0 35 47zM742 297q0 39 -31 39t-31 -39q0 -18 7 -30.5t24 -12.5q31 0 31 43z" />
<glyph unicode="&#x215d;" horiz-adv-x="900" d="M338 0h-144l324 600q10 19 19.5 34.5t22.5 27t31.5 17.5t46.5 6q16 0 32 -2.5t30 -9.5zM94 681h260q2 -11 2.5 -19.5t0.5 -19.5q0 -10 -3.5 -20.5t-11 -19.5t-21 -14.5t-32.5 -5.5h-102l-5 -42q13 3 22.5 4t20.5 1q63 0 100.5 -30t37.5 -93q0 -29 -9.5 -56t-30 -47 t-53.5 -32t-80 -12q-53 0 -80.5 8.5t-39.5 15.5q-24 13 -24 33q0 13 7 30t24 42q18 -14 44 -24.5t57 -10.5q23 0 37 10t14 35q0 28 -16 37t-34 9q-20 0 -36 -4t-33 -12l-40 17zM871 128q0 -34 -12 -58t-34 -39.5t-51.5 -22.5t-65.5 -7q-78 0 -121 29.5t-43 92.5 q0 38 21.5 62t45.5 34q-25 11 -39 34t-14 48q0 28 11.5 50t31.5 36.5t47.5 22t59.5 7.5q67 0 108.5 -28t41.5 -85q0 -27 -15 -49t-38 -35q29 -11 47.5 -34.5t18.5 -57.5zM743 133q0 22 -8.5 35.5t-26.5 13.5t-27 -13.5t-9 -35.5q0 -47 36 -47q35 0 35 47zM739 298 q0 39 -31 39t-31 -39q0 -18 7 -30.5t24 -12.5q31 0 31 43z" />
<glyph unicode="&#x215e;" horiz-adv-x="900" d="M311 0h-144l324 600q10 19 19.5 34.5t22.5 27t31.5 17.5t46.5 6q16 0 32 -2.5t30 -9.5zM231 289h-134l128 281h-162q-5 23 -5.5 35t-0.5 20q0 26 17.5 41t50.5 15h209q26 0 33.5 -8.5t7.5 -29.5v-46zM875 127q0 -34 -12 -58t-34 -39.5t-51.5 -22.5t-65.5 -7 q-78 0 -121 29.5t-43 92.5q0 38 21.5 62t45.5 34q-25 11 -39 34t-14 48q0 28 11.5 50t31.5 36.5t47.5 22t59.5 7.5q67 0 108.5 -28t41.5 -85q0 -27 -15 -49t-38 -35q29 -11 47.5 -34.5t18.5 -57.5zM747 132q0 22 -8.5 35.5t-26.5 13.5t-27 -13.5t-9 -35.5q0 -47 36 -47 q35 0 35 47zM743 297q0 39 -31 39t-31 -39q0 -18 7 -30.5t24 -12.5q31 0 31 43z" />
<glyph unicode="&#x2202;" horiz-adv-x="589" d="M549 288q0 -75 -19 -132t-53 -95.5t-81 -58.5t-104 -20q-55 0 -101 15t-79.5 46.5t-52.5 81t-19 117.5q0 53 17 96t46.5 74t69 47.5t83.5 16.5q26 0 48 -6t40 -16q-14 21 -38.5 37t-56 27.5t-68 19t-74.5 12.5l29 141q41 -3 82.5 -10.5t81.5 -21.5t77.5 -36t70.5 -54 q24 -24 43 -56t32 -68.5t19.5 -76.5t6.5 -80zM356 262q0 23 -3 48.5t-6 38.5q-14 5 -32 5q-15 0 -28 -6t-22.5 -20t-15.5 -37t-6 -57q0 -60 13.5 -82.5t39.5 -22.5q13 0 24 6.5t19 21.5t12.5 40.5t4.5 64.5z" />
<glyph unicode="&#x2206;" horiz-adv-x="678" d="M228 656q17 8 48 14t67 6q15 0 34 -2t37 -10.5t34 -25.5t26 -46l204 -592h-678zM361 401q-6 21 -13 50.5t-9 49.5h-4q-2 -11 -4.5 -24t-5.5 -27t-6 -26.5t-6 -21.5l-81 -259h208z" />
<glyph unicode="&#x220f;" horiz-adv-x="692" d="M672 517h-69v-639h-202v639h-110v-639h-202v639h-69v155h652v-155z" />
<glyph unicode="&#x2211;" horiz-adv-x="538" d="M10 -122v112l190 296l-188 272v113h499v-154h-247l154 -228l-163 -257h263v-154h-508z" />
<glyph unicode="&#x2212;" horiz-adv-x="600" d="M58 252v160h484v-160h-484z" />
<glyph unicode="&#x2215;" horiz-adv-x="428" d="M181 0h-181l213 580q7 20 16 37.5t23.5 30.5t35.5 20.5t53 7.5q19 0 40 -2.5t44 -9.5z" />
<glyph unicode="&#x2219;" horiz-adv-x="310" d="M250 332q0 -42 -25 -68t-70 -26t-70 26t-25 68t26.5 67t68.5 25t68.5 -25t26.5 -67z" />
<glyph unicode="&#x221a;" horiz-adv-x="624" d="M381 0h-112l-142 252h-87v160h179l81 -141l156 487l158 -45z" />
<glyph unicode="&#x221e;" horiz-adv-x="660" d="M630 359q0 -32 -8.5 -64t-26.5 -58.5t-46.5 -43t-68.5 -16.5q-20 0 -39.5 4.5t-38 17t-37 34.5t-36.5 58q-17 -36 -35.5 -58t-37.5 -34.5t-38 -17t-37 -4.5q-39 0 -67.5 15t-47 40.5t-27.5 58t-9 68.5q0 91 42 136.5t109 45.5q22 0 42 -5t38 -17.5t35 -35t33 -57.5 q30 66 65 90t86 24q32 0 59.5 -12t47.5 -35.5t31.5 -57t11.5 -76.5zM505 360q0 23 -10 35.5t-24 12.5q-16 0 -25.5 -14t-18.5 -35q8 -19 18.5 -33.5t26.5 -14.5q9 0 15.5 5t10.5 12.5t5.5 16t1.5 15.5zM231 359q-11 23 -20.5 35.5t-23.5 12.5q-17 0 -25.5 -15.5t-8.5 -32.5 q0 -48 34 -48q9 0 16 5t12.5 12.5t9 16t6.5 14.5z" />
<glyph unicode="&#x222b;" horiz-adv-x="381" d="M381 517q-57 -6 -83.5 -28t-26.5 -67v-371q0 -121 -75.5 -183t-235.5 -65v158q57 6 82.5 28t25.5 67v371q0 121 75.5 183t237.5 65v-158z" />
<glyph unicode="&#x2248;" horiz-adv-x="616" d="M586 401q-10 -9 -26 -18.5t-35.5 -18t-41 -13.5t-41.5 -5q-29 0 -65.5 5.5t-69.5 13.5q-35 8 -63.5 14.5t-54.5 6.5q-25 0 -48.5 -9.5t-36.5 -19.5l-74 134q11 9 27 18.5t35 17.5t40 13.5t42 5.5q30 0 64 -7.5t71 -15.5q29 -7 60 -12t63 -5q25 0 46 9.5t34 19.5zM586 162 q-10 -9 -26 -18.5t-35.5 -18t-41 -13.5t-41.5 -5q-29 0 -65.5 5.5t-69.5 13.5q-35 8 -63.5 14.5t-54.5 6.5q-25 0 -48.5 -9.5t-36.5 -19.5l-74 134q11 9 27 18.5t35 18t40 13.5t42 5q30 0 64 -7.5t71 -15.5q29 -7 60 -12t63 -5q25 0 46 9.5t34 19.5z" />
<glyph unicode="&#x2260;" horiz-adv-x="600" d="M244 127l-65 -120l-81 43l42 77h-87v160h172l42 79h-214v160h299l64 121l81 -44l-41 -77h91v-160h-176l-42 -79h218v-160h-303z" />
<glyph unicode="&#x2264;" horiz-adv-x="600" d="M541 170l-483 157v164l480 157v-163l-248 -76l251 -76v-163zM58 0v160h484v-160h-484z" />
<glyph unicode="&#x2265;" horiz-adv-x="600" d="M59 333l251 76l-248 76v163l480 -157v-164l-483 -157v163zM58 0v160h484v-160h-484z" />
<glyph unicode="&#x25ca;" horiz-adv-x="532" d="M265 -16l-210 373l210 363l212 -363zM265 471l-66 -116l68 -124l66 123z" />
<glyph unicode="&#x25fc;" horiz-adv-x="485" d="M0 485h485v-485h-485v485z" />
<glyph unicode="&#xf001;" horiz-adv-x="572" d="M440 535q-16 9 -48.5 18.5t-69.5 9.5q-40 0 -61.5 -16.5t-21.5 -45.5v-18h292v-479q-39 -13 -73 -13q-46 0 -71.5 11t-38 29t-15 41.5t-2.5 49.5v212h-92v-334h-199v478q0 20 1 35.5t2 22.5q12 81 73 131t180 50q20 0 47.5 -2.5t48.5 -7.5q36 -9 62 -26.5t26 -48.5 q0 -18 -10.5 -44t-29.5 -53z" />
<glyph unicode="&#xf002;" horiz-adv-x="585" d="M344 560q-8 2 -21.5 2.5t-21.5 0.5q-26 0 -44 -13.5t-18 -42.5v-24h70v-149h-70v-334h-199v482q0 16 1 33.5t2 24.5q13 81 78.5 129t177.5 48q63 0 122 -9.5t123 -30.5v-673q-39 -13 -73 -13q-46 0 -71.5 11t-38 29t-15 41.5t-2.5 49.5v438z" />
<glyph unicode="&#xf506;" horiz-adv-x="900" d="M306 0h-144l324 600q10 19 19.5 34.5t22.5 27t31.5 17.5t46.5 6q16 0 32 -2.5t30 -9.5zM148 289v240l-89 -44q-13 20 -24.5 43t-11.5 41t8.5 28.5t29.5 21.5l104 55q14 8 28.5 12.5t35.5 4.5q25 0 37 -7t20 -16v-379h-138zM712 0h-134l128 281h-162q-5 23 -5.5 35 t-0.5 20q0 26 17.5 41t50.5 15h209q26 0 33.5 -8.5t7.5 -29.5v-46z" />
<glyph unicode="&#xf507;" horiz-adv-x="900" d="M356 0h-144l324 600q10 19 19.5 34.5t22.5 27t31.5 17.5t46.5 6q16 0 32 -2.5t30 -9.5zM45 289v97q18 12 46 35.5t54 47.5q25 23 41.5 44t16.5 41q0 23 -15 29.5t-32 6.5q-21 0 -43 -10t-41 -26q-17 20 -27 38.5t-10 31.5q0 19 19 32q18 13 50 24t83 11q30 0 57.5 -7 t48 -22t32.5 -39t12 -58q0 -37 -19 -65.5t-45 -53.5q-14 -14 -29 -27t-29 -24h67q32 0 50 -13.5t18 -50.5q0 -9 -0.5 -16.5t-1.5 -13.5l-2 -12h-301zM745 0h-134l128 281h-162q-5 23 -5.5 35t-0.5 20q0 26 17.5 41t50.5 15h209q26 0 33.5 -8.5t7.5 -29.5v-46z" />
<glyph unicode="&#xf508;" horiz-adv-x="900" d="M338 0h-144l324 600q10 19 19.5 34.5t22.5 27t31.5 17.5t46.5 6q16 0 32 -2.5t30 -9.5zM346 404q0 -60 -40 -94.5t-125 -34.5q-45 0 -72 7.5t-44 16.5q-29 15 -29 40q0 13 6.5 29.5t26.5 45.5q18 -17 43 -29.5t53 -12.5q22 0 35.5 8t13.5 28q0 13 -5 21.5t-13 13t-17.5 6 t-17.5 1.5h-36v80h40q16 0 28 8.5t12 25.5t-11 24t-28 7q-25 0 -46.5 -8t-48.5 -25q-36 39 -36 65q0 12 7 21t16 14q20 12 53.5 20.5t78.5 8.5q78 0 112.5 -30t34.5 -75q0 -38 -18.5 -58t-42.5 -33q29 -11 49.5 -32t20.5 -59zM743 1h-134l128 281h-162q-5 23 -5.5 35 t-0.5 20q0 26 17.5 41t50.5 15h209q26 0 33.5 -8.5t7.5 -29.5v-46z" />
<glyph unicode="&#xf509;" horiz-adv-x="900" d="M340 0h-144l324 600q10 19 19.5 34.5t22.5 27t31.5 17.5t46.5 6q16 0 32 -2.5t30 -9.5zM16 362v81l138 208q12 18 30 29t52 11q24 0 44 -6t29 -12v-225h19q20 0 28 -9.5t8 -25.5q0 -9 -1.5 -22.5t-3.5 -28.5h-50v-73h-134v73h-159zM175 448v109h-4l-70 -109h74zM739 1 h-134l128 281h-162q-5 23 -5.5 35t-0.5 20q0 26 17.5 41t50.5 15h209q26 0 33.5 -8.5t7.5 -29.5v-46z" />
<glyph unicode="&#xf50a;" horiz-adv-x="900" d="M335 0h-144l324 600q10 19 19.5 34.5t22.5 27t31.5 17.5t46.5 6q16 0 32 -2.5t30 -9.5zM82 681h260q2 -11 2.5 -19.5t0.5 -19.5q0 -10 -3.5 -20.5t-11 -19.5t-21 -14.5t-32.5 -5.5h-102l-5 -42q13 3 22.5 4t20.5 1q63 0 100.5 -30t37.5 -93q0 -29 -9.5 -56t-30 -47 t-53.5 -32t-80 -12q-53 0 -80.5 8.5t-39.5 15.5q-24 13 -24 33q0 13 7 30t24 42q18 -14 44 -24.5t57 -10.5q23 0 37 10t14 35q0 28 -16 37t-34 9q-20 0 -36 -4t-33 -12l-40 17zM736 1h-134l128 281h-162q-5 23 -5.5 35t-0.5 20q0 26 17.5 41t50.5 15h209q26 0 33.5 -8.5 t7.5 -29.5v-46z" />
<glyph unicode="&#xf50b;" horiz-adv-x="900" d="M344 0h-144l324 600q10 19 19.5 34.5t22.5 27t31.5 17.5t46.5 6q16 0 32 -2.5t30 -9.5zM365 429q0 -39 -12.5 -68t-33.5 -48t-50 -28.5t-62 -9.5q-82 0 -124 47.5t-42 131.5q0 61 19 106t49.5 74t68 43t74.5 14q44 0 58 -12.5t14 -35.5q0 -9 -1 -24t-3 -24q-13 2 -21 2.5 t-19 0.5q-15 0 -30.5 -2.5t-29 -9.5t-24.5 -18t-17 -27q14 8 32 11.5t32 3.5q31 0 54 -10.5t38 -28t22.5 -40.5t7.5 -48zM237 423q0 56 -39 56q-5 0 -13 -0.5t-14 -2.5q-2 -9 -2 -18v-19q0 -27 7.5 -49t30.5 -22q13 0 21.5 13t8.5 42zM743 -1h-134l128 281h-162 q-5 23 -5.5 35t-0.5 20q0 26 17.5 41t50.5 15h209q26 0 33.5 -8.5t7.5 -29.5v-46z" />
<glyph unicode="&#xf50c;" horiz-adv-x="900" d="M318 0h-144l324 600q10 19 19.5 34.5t22.5 27t31.5 17.5t46.5 6q16 0 32 -2.5t30 -9.5zM136 289v240l-89 -44q-13 20 -24.5 43t-11.5 41t8.5 28.5t29.5 21.5l104 55q14 8 28.5 12.5t35.5 4.5q25 0 37 -7t20 -16v-379h-138zM546 256q0 39 12.5 68t33.5 48t50 28.5t62 9.5 q82 0 124 -48t42 -133q0 -62 -18.5 -106.5t-48.5 -73t-68 -42t-76 -13.5q-43 0 -57.5 12t-14.5 36q0 9 1 22t3 22q13 -2 20 -2.5t18 -0.5q14 0 29.5 3t30 9.5t26 18t17.5 28.5q-14 -8 -32 -11.5t-32 -3.5q-31 0 -54 10.5t-38 28.5t-22.5 41t-7.5 49zM674 260q0 -57 39 -57 q7 0 13.5 1t11.5 2q4 15 4 38q0 29 -7 51t-26 22q-35 0 -35 -57z" />
<glyph unicode="&#xf50d;" horiz-adv-x="900" d="M342 0h-144l324 600q10 19 19.5 34.5t22.5 27t31.5 17.5t46.5 6q16 0 32 -2.5t30 -9.5zM29 289v97q18 12 46 35.5t54 47.5q25 23 41.5 44t16.5 41q0 23 -15 29.5t-32 6.5q-21 0 -43 -10t-41 -26q-17 20 -27 38.5t-10 31.5q0 19 19 32q18 13 50 24t83 11q30 0 57.5 -7 t48 -22t32.5 -39t12 -58q0 -37 -19 -65.5t-45 -53.5q-14 -14 -29 -27t-29 -24h67q32 0 50 -13.5t18 -50.5q0 -9 -0.5 -16.5t-1.5 -13.5l-2 -12h-301zM551 256q0 39 12.5 68t33.5 48t50 28.5t62 9.5q82 0 124 -48t42 -133q0 -62 -18.5 -106.5t-48.5 -73t-68 -42t-76 -13.5 q-43 0 -57.5 12t-14.5 36q0 9 1 22t3 22q13 -2 20 -2.5t18 -0.5q14 0 29.5 3t30 9.5t26 18t17.5 28.5q-14 -8 -32 -11.5t-32 -3.5q-31 0 -54 10.5t-38 28.5t-22.5 41t-7.5 49zM679 260q0 -57 39 -57q7 0 13.5 1t11.5 2q4 15 4 38q0 29 -7 51t-26 22q-35 0 -35 -57z" />
<glyph unicode="&#xf50e;" horiz-adv-x="900" d="M339 0h-144l324 600q10 19 19.5 34.5t22.5 27t31.5 17.5t46.5 6q16 0 32 -2.5t30 -9.5zM15 362v81l138 208q12 18 30 29t52 11q24 0 44 -6t29 -12v-225h19q20 0 28 -9.5t8 -25.5q0 -9 -1.5 -22.5t-3.5 -28.5h-50v-73h-134v73h-159zM174 448v109h-4l-70 -109h74zM541 249 q0 39 12.5 68t33.5 48t50 28.5t62 9.5q82 0 124 -48t42 -133q0 -62 -18.5 -106.5t-48.5 -73t-68 -42t-76 -13.5q-43 0 -57.5 12t-14.5 36q0 9 1 22t3 22q13 -2 20 -2.5t18 -0.5q14 0 29.5 3t30 9.5t26 18t17.5 28.5q-14 -8 -32 -11.5t-32 -3.5q-31 0 -54 10.5t-38 28.5 t-22.5 41t-7.5 49zM669 253q0 -57 39 -57q7 0 13.5 1t11.5 2q4 15 4 38q0 29 -7 51t-26 22q-35 0 -35 -57z" />
<glyph unicode="&#xf50f;" horiz-adv-x="900" d="M330 0h-144l324 600q10 19 19.5 34.5t22.5 27t31.5 17.5t46.5 6q16 0 32 -2.5t30 -9.5zM76 681h260q2 -11 2.5 -19.5t0.5 -19.5q0 -10 -3.5 -20.5t-11 -19.5t-21 -14.5t-32.5 -5.5h-102l-5 -42q13 3 22.5 4t20.5 1q63 0 100.5 -30t37.5 -93q0 -29 -9.5 -56t-30 -47 t-53.5 -32t-80 -12q-53 0 -80.5 8.5t-39.5 15.5q-24 13 -24 33q0 13 7 30t24 42q18 -14 44 -24.5t57 -10.5q23 0 37 10t14 35q0 28 -16 37t-34 9q-20 0 -36 -4t-33 -12l-40 17zM552 249q0 39 12.5 68t33.5 48t50 28.5t62 9.5q82 0 124 -48t42 -133q0 -62 -18.5 -106.5 t-48.5 -73t-68 -42t-76 -13.5q-43 0 -57.5 12t-14.5 36q0 9 1 22t3 22q13 -2 20 -2.5t18 -0.5q14 0 29.5 3t30 9.5t26 18t17.5 28.5q-14 -8 -32 -11.5t-32 -3.5q-31 0 -54 10.5t-38 28.5t-22.5 41t-7.5 49zM680 253q0 -57 39 -57q7 0 13.5 1t11.5 2q4 15 4 38q0 29 -7 51 t-26 22q-35 0 -35 -57z" />
<glyph unicode="&#xf510;" horiz-adv-x="900" d="M297 0h-144l324 600q10 19 19.5 34.5t22.5 27t31.5 17.5t46.5 6q16 0 32 -2.5t30 -9.5zM221 289h-134l128 281h-162q-5 23 -5.5 35t-0.5 20q0 26 17.5 41t50.5 15h209q26 0 33.5 -8.5t7.5 -29.5v-46zM531 249q0 39 12.5 68t33.5 48t50 28.5t62 9.5q82 0 124 -48t42 -133 q0 -62 -18.5 -106.5t-48.5 -73t-68 -42t-76 -13.5q-43 0 -57.5 12t-14.5 36q0 9 1 22t3 22q13 -2 20 -2.5t18 -0.5q14 0 29.5 3t30 9.5t26 18t17.5 28.5q-14 -8 -32 -11.5t-32 -3.5q-31 0 -54 10.5t-38 28.5t-22.5 41t-7.5 49zM659 253q0 -57 39 -57q7 0 13.5 1t11.5 2 q4 15 4 38q0 29 -7 51t-26 22q-35 0 -35 -57z" />
<glyph unicode="&#xf511;" horiz-adv-x="900" d="M340 0h-144l324 600q10 19 19.5 34.5t22.5 27t31.5 17.5t46.5 6q16 0 32 -2.5t30 -9.5zM356 402q0 -34 -12 -58t-34 -39.5t-51.5 -22.5t-65.5 -7q-78 0 -121 29.5t-43 92.5q0 38 21.5 62t45.5 34q-25 11 -39 34t-14 48q0 28 11.5 50t31.5 36.5t47.5 22t59.5 7.5 q67 0 108.5 -28t41.5 -85q0 -27 -15 -49t-38 -35q29 -11 47.5 -34.5t18.5 -57.5zM228 407q0 22 -8.5 35.5t-26.5 13.5t-27 -13.5t-9 -35.5q0 -47 36 -47q35 0 35 47zM224 572q0 39 -31 39t-31 -39q0 -18 7 -30.5t24 -12.5q31 0 31 43zM543 249q0 39 12.5 68t33.5 48t50 28.5 t62 9.5q82 0 124 -48t42 -133q0 -62 -18.5 -106.5t-48.5 -73t-68 -42t-76 -13.5q-43 0 -57.5 12t-14.5 36q0 9 1 22t3 22q13 -2 20 -2.5t18 -0.5q14 0 29.5 3t30 9.5t26 18t17.5 28.5q-14 -8 -32 -11.5t-32 -3.5q-31 0 -54 10.5t-38 28.5t-22.5 41t-7.5 49zM671 253 q0 -57 39 -57q7 0 13.5 1t11.5 2q4 15 4 38q0 29 -7 51t-26 22q-35 0 -35 -57z" />
<glyph unicode="&#xf800;" horiz-adv-x="590" d="M562 328q0 -165 -64.5 -254t-201.5 -89q-139 0 -204 85.5t-65 257.5q0 79 16 142.5t49 108t84.5 68.5t122.5 24q70 0 120 -23t82 -67.5t46.5 -108t14.5 -144.5zM359 328q0 53 -3.5 89.5t-11 59t-19.5 32t-28 9.5q-18 0 -30 -9.5t-19.5 -32t-10.5 -59t-3 -89.5 q0 -105 14 -147.5t49 -42.5q16 0 28 9.5t19.5 32t11 59t3.5 89.5z" />
<glyph unicode="&#xf801;" horiz-adv-x="455" d="M189 0v433l-116 -56q-19 29 -35.5 59.5t-16.5 56.5t10.5 39.5t40.5 29.5l149 78q21 11 41 18t47 7q28 0 47 -6.5t30 -13.5v-645h-197z" />
<glyph unicode="&#xf802;" horiz-adv-x="555" d="M38 0v133q20 15 43.5 35.5t49 43.5t51 48.5t49.5 50.5q34 36 53 67.5t19 67.5q0 39 -23.5 54t-50.5 15q-40 0 -77.5 -19t-67.5 -44q-27 31 -45 58.5t-18 47.5q0 16 8.5 28t23.5 23q14 10 34 21t46.5 20t59.5 15t74 6q48 0 91 -10.5t75.5 -34.5t51.5 -62.5t19 -93.5 q0 -36 -10 -69.5t-27.5 -64.5t-40.5 -60t-49 -55q-18 -18 -36 -35.5t-37 -33.5h115q52 0 79.5 -22t27.5 -70q0 -14 -0.5 -28t-1.5 -32h-486z" />
<glyph unicode="&#xf803;" horiz-adv-x="570" d="M520 199q0 -48 -16 -87t-48 -67.5t-81 -44t-116 -15.5q-73 0 -115.5 13t-69.5 28q-21 11 -33 28.5t-12 34.5q0 20 10 45t40 71q29 -26 71 -47t93 -21q34 0 54.5 17.5t20.5 51.5q0 22 -7.5 35t-18.5 20t-24.5 9.5t-26.5 2.5h-71v138h70q24 0 43.5 15t19.5 43t-18 40 t-47 12q-38 0 -73 -15t-80 -47q-27 31 -42.5 55t-15.5 46q0 19 10.5 32t24.5 23q29 20 81.5 38t128.5 18q61 0 105.5 -13t73 -36t42 -54t13.5 -67q0 -60 -26.5 -95.5t-63.5 -55.5q45 -18 74.5 -54t29.5 -97z" />
<glyph unicode="&#xf804;" horiz-adv-x="590" d="M32 143v122l213 322q12 18 24.5 32t30 24.5t40 16t54.5 5.5q29 0 55.5 -7.5t37.5 -16.5v-372h29q32 0 44.5 -10t12.5 -36q0 -14 -1 -31t-6 -49h-79v-143h-194v143h-261zM293 275v176h-6l-118 -176h124z" />
<glyph unicode="&#xf805;" horiz-adv-x="561" d="M98 663h400q2 -20 3 -34t1 -31t-5 -33.5t-17 -30t-32.5 -22t-51.5 -8.5h-152l-10 -76q20 4 39 6t37 2q97 0 154 -51t57 -154q0 -49 -15 -93.5t-46.5 -78.5t-81 -54t-118.5 -20q-44 0 -77.5 5.5t-58 13t-40.5 15.5t-25 14q-15 9 -26.5 23.5t-11.5 31.5q0 18 13 49.5 t41 73.5q14 -11 33 -23.5t40.5 -23t45.5 -17t48 -6.5q34 0 55.5 19.5t21.5 62.5q0 23 -8 37.5t-19.5 22.5t-25.5 10.5t-26 2.5q-32 0 -56 -6.5t-51 -20.5l-74 30z" />
<glyph unicode="&#xf806;" horiz-adv-x="590" d="M552 241q0 -65 -19 -113t-53 -80t-79.5 -47.5t-97.5 -15.5q-65 0 -114.5 21t-82.5 59.5t-50 93.5t-17 124q0 103 30 176t78 119t108 67.5t120 21.5q34 0 56 -5t35 -15t17.5 -25t4.5 -34q0 -15 -2.5 -35.5t-4.5 -35.5q-20 4 -33 5t-30 1q-23 0 -46.5 -4.5t-44.5 -15.5 t-39 -29.5t-30 -46.5q22 14 50.5 19.5t51.5 5.5q48 0 84 -17t60 -46.5t36 -67.5t12 -80zM349 231q0 49 -16 71t-45 22q-7 0 -20.5 -1t-21.5 -3q-2 -15 -3 -30.5t-1 -32.5q0 -21 2.5 -42.5t9 -38t18 -27t30.5 -10.5q20 0 33.5 22t13.5 70z" />
<glyph unicode="&#xf807;" horiz-adv-x="555" d="M255 0h-211l260 493h-279q-4 19 -6.5 39t-2.5 45q0 39 28 62.5t85 23.5h335q43 0 55.5 -13.5t12.5 -48.5v-62z" />
<glyph unicode="&#xf808;" horiz-adv-x="590" d="M554 194q0 -56 -18.5 -95.5t-52.5 -64.5t-82 -37t-106 -12q-128 0 -194 48t-66 148q0 33 9 60t24 47.5t34 35t39 22.5q-40 20 -62.5 54.5t-22.5 85.5q0 45 17.5 79.5t49 58t75.5 35.5t97 12t97 -11.5t75.5 -34t48.5 -57.5t17 -81q0 -54 -23.5 -87t-61.5 -52 q45 -17 75.5 -57t30.5 -97zM355 198q0 70 -60 70q-29 0 -45.5 -18t-16.5 -52q0 -37 17.5 -54t44.5 -17q26 0 43 17.5t17 53.5zM342 473q0 42 -14.5 57t-32.5 15t-32.5 -15.5t-14.5 -52.5q0 -35 13 -52.5t34 -17.5q20 0 33.5 15.5t13.5 50.5z" />
<glyph unicode="&#xf809;" horiz-adv-x="585" d="M37 415q0 65 19 113t53 80t79 47.5t98 15.5q65 0 114.5 -21t82.5 -60t49.5 -95t16.5 -126q0 -103 -29.5 -176t-77 -119t-107.5 -67.5t-121 -21.5q-35 0 -56.5 5t-34.5 15t-17.5 24.5t-4.5 34.5q0 15 2.5 35.5t4.5 35.5q20 -4 33 -5t30 -1q23 0 46.5 4.5t44.5 15.5 t39 29.5t30 46.5q-22 -14 -50.5 -19.5t-51.5 -5.5q-48 0 -84 18t-60 47.5t-36 68.5t-12 81zM240 421q0 -49 16 -71.5t45 -22.5q21 0 41 5q2 15 3 30.5t1 32.5q0 24 -2.5 46t-9.5 39t-18 27t-29 10q-20 0 -33.5 -24t-13.5 -72z" />
<glyph unicode="&#xf80a;" d="M371 600q0 -100 -47.5 -152.5t-128.5 -52.5q-85 0 -130.5 52.5t-45.5 152.5q0 102 49 153t127 51q84 0 130 -49t46 -155zM236 601q0 51 -7.5 79t-33.5 28q-24 0 -32.5 -28.5t-8.5 -79.5t8.5 -81t32.5 -30q26 0 33.5 26t7.5 86z" />
<glyph unicode="&#xf80b;" d="M165 409v240l-89 -44q-13 20 -24.5 43t-11.5 41t8.5 28.5t29.5 21.5l104 55q14 8 28.5 12.5t35.5 4.5q25 0 37 -7t20 -16v-379h-138z" />
<glyph unicode="&#xf80c;" d="M46 409v97q18 12 46 35.5t54 47.5q25 23 41.5 44t16.5 41q0 23 -15 29.5t-32 6.5q-21 0 -43 -10t-41 -26q-17 20 -27 38.5t-10 31.5q0 19 19 32q18 13 50 24t83 11q30 0 57.5 -7t48 -22t32.5 -39t12 -58q0 -37 -19 -65.5t-45 -53.5q-14 -14 -29 -27t-29 -24h67 q32 0 50 -13.5t18 -50.5q0 -9 -0.5 -16.5t-1.5 -13.5l-2 -12h-301z" />
<glyph unicode="&#xf80d;" d="M350 524q0 -60 -40 -94.5t-125 -34.5q-45 0 -72 7.5t-44 16.5q-29 15 -29 40q0 13 6.5 29.5t26.5 45.5q18 -17 43 -29.5t53 -12.5q22 0 35.5 8t13.5 28q0 13 -5 21.5t-13 13t-17.5 6t-17.5 1.5h-36v80h40q16 0 28 8.5t12 25.5t-11 24t-28 7q-25 0 -46.5 -8t-48.5 -25 q-36 39 -36 65q0 12 7 21t16 14q20 12 53.5 20.5t78.5 8.5q78 0 112.5 -30t34.5 -75q0 -38 -18.5 -58t-42.5 -33q29 -11 49.5 -32t20.5 -59z" />
<glyph unicode="&#xf80e;" d="M28 482v81l138 208q12 18 30 29t52 11q24 0 44 -6t29 -12v-225h19q20 0 28 -9.5t8 -25.5q0 -9 -1.5 -22.5t-3.5 -28.5h-50v-73h-134v73h-159zM187 568v109h-4l-70 -109h74z" />
<glyph unicode="&#xf80f;" d="M86 801h260q2 -11 2.5 -19.5t0.5 -19.5q0 -10 -3.5 -20.5t-11 -19.5t-21 -14.5t-32.5 -5.5h-102l-5 -42q13 3 22.5 4t20.5 1q63 0 100.5 -30t37.5 -93q0 -29 -9.5 -56t-30 -47t-53.5 -32t-80 -12q-53 0 -80.5 8.5t-39.5 15.5q-24 13 -24 33q0 13 7 30t24 42 q18 -14 44 -24.5t57 -10.5q23 0 37 10t14 35q0 28 -16 37t-34 9q-20 0 -36 -4t-33 -12l-40 17z" />
<glyph unicode="&#xf810;" d="M357 549q0 -39 -12.5 -68t-33.5 -48t-50 -28.5t-62 -9.5q-82 0 -124 47.5t-42 131.5q0 61 19 106t49.5 74t68 43t74.5 14q44 0 58 -12.5t14 -35.5q0 -9 -1 -24t-3 -24q-13 2 -21 2.5t-19 0.5q-15 0 -30.5 -2.5t-29 -9.5t-24.5 -18t-17 -27q14 8 32 11.5t32 3.5 q31 0 54 -10.5t38 -28t22.5 -40.5t7.5 -48zM229 543q0 56 -39 56q-5 0 -13 -0.5t-14 -2.5q-2 -9 -2 -18v-19q0 -27 7.5 -49t30.5 -22q13 0 21.5 13t8.5 42z" />
<glyph unicode="&#xf811;" d="M212 409h-134l128 281h-162q-5 23 -5.5 35t-0.5 20q0 26 17.5 41t50.5 15h209q26 0 33.5 -8.5t7.5 -29.5v-46z" />
<glyph unicode="&#xf812;" d="M359 522q0 -34 -12 -58t-34 -39.5t-51.5 -22.5t-65.5 -7q-78 0 -121 29.5t-43 92.5q0 38 21.5 62t45.5 34q-25 11 -39 34t-14 48q0 28 11.5 50t31.5 36.5t47.5 22t59.5 7.5q67 0 108.5 -28t41.5 -85q0 -27 -15 -49t-38 -35q29 -11 47.5 -34.5t18.5 -57.5zM231 527 q0 22 -8.5 35.5t-26.5 13.5t-27 -13.5t-9 -35.5q0 -47 36 -47q35 0 35 47zM227 692q0 39 -31 39t-31 -39q0 -18 7 -30.5t24 -12.5q31 0 31 43z" />
<glyph unicode="&#xf813;" d="M30 657q0 39 12.5 68t33.5 48t50 28.5t62 9.5q82 0 124 -48t42 -133q0 -62 -18.5 -106.5t-48.5 -73t-68 -42t-76 -13.5q-43 0 -57.5 12t-14.5 36q0 9 1 22t3 22q13 -2 20 -2.5t18 -0.5q14 0 29.5 3t30 9.5t26 18t17.5 28.5q-14 -8 -32 -11.5t-32 -3.5q-31 0 -54 10.5 t-38 28.5t-22.5 41t-7.5 49zM158 661q0 -57 39 -57q7 0 13.5 1t11.5 2q4 15 4 38q0 29 -7 51t-26 22q-35 0 -35 -57z" />
<glyph unicode="&#xf814;" d="M371 72q0 -100 -47.5 -152.5t-128.5 -52.5q-85 0 -130.5 52.5t-45.5 152.5q0 102 49 153t127 51q84 0 130 -49t46 -155zM236 73q0 51 -7.5 79t-33.5 28q-24 0 -32.5 -28.5t-8.5 -79.5t8.5 -81t32.5 -30q26 0 33.5 26t7.5 86z" />
<glyph unicode="&#xf815;" d="M165 -119v240l-89 -44q-13 20 -24.5 43t-11.5 41t8.5 28.5t29.5 21.5l104 55q14 8 28.5 12.5t35.5 4.5q25 0 37 -7t20 -16v-379h-138z" />
<glyph unicode="&#xf816;" d="M46 -119v97q18 12 46 35.5t54 47.5q25 23 41.5 44t16.5 41q0 23 -15 29.5t-32 6.5q-21 0 -43 -10t-41 -26q-17 20 -27 38.5t-10 31.5q0 19 19 32q18 13 50 24t83 11q30 0 57.5 -7t48 -22t32.5 -39t12 -58q0 -37 -19 -65.5t-45 -53.5q-14 -14 -29 -27t-29 -24h67 q32 0 50 -13.5t18 -50.5q0 -9 -0.5 -16.5t-1.5 -13.5l-2 -12h-301z" />
<glyph unicode="&#xf817;" d="M350 -4q0 -60 -40 -94.5t-125 -34.5q-45 0 -72 7.5t-44 16.5q-29 15 -29 40q0 13 6.5 29.5t26.5 45.5q18 -17 43 -29.5t53 -12.5q22 0 35.5 8t13.5 28q0 13 -5 21.5t-13 13t-17.5 6t-17.5 1.5h-36v80h40q16 0 28 8.5t12 25.5t-11 24t-28 7q-25 0 -46.5 -8t-48.5 -25 q-36 39 -36 65q0 12 7 21t16 14q20 12 53.5 20.5t78.5 8.5q78 0 112.5 -30t34.5 -75q0 -38 -18.5 -58t-42.5 -33q29 -11 49.5 -32t20.5 -59z" />
<glyph unicode="&#xf818;" d="M28 -46v81l138 208q12 18 30 29t52 11q24 0 44 -6t29 -12v-225h19q20 0 28 -9.5t8 -25.5q0 -9 -1.5 -22.5t-3.5 -28.5h-50v-73h-134v73h-159zM187 40v109h-4l-70 -109h74z" />
<glyph unicode="&#xf819;" d="M86 273h260q2 -11 2.5 -19.5t0.5 -19.5q0 -10 -3.5 -20.5t-11 -19.5t-21 -14.5t-32.5 -5.5h-102l-5 -42q13 3 22.5 4t20.5 1q63 0 100.5 -30t37.5 -93q0 -29 -9.5 -56t-30 -47t-53.5 -32t-80 -12q-53 0 -80.5 8.5t-39.5 15.5q-24 13 -24 33q0 13 7 30t24 42 q18 -14 44 -24.5t57 -10.5q23 0 37 10t14 35q0 28 -16 37t-34 9q-20 0 -36 -4t-33 -12l-40 17z" />
<glyph unicode="&#xf81a;" d="M357 21q0 -39 -12.5 -68t-33.5 -48t-50 -28.5t-62 -9.5q-82 0 -124 47.5t-42 131.5q0 61 19 106t49.5 74t68 43t74.5 14q44 0 58 -12.5t14 -35.5q0 -9 -1 -24t-3 -24q-13 2 -21 2.5t-19 0.5q-15 0 -30.5 -2.5t-29 -9.5t-24.5 -18t-17 -27q14 8 32 11.5t32 3.5 q31 0 54 -10.5t38 -28t22.5 -40.5t7.5 -48zM229 15q0 56 -39 56q-5 0 -13 -0.5t-14 -2.5q-2 -9 -2 -18v-19q0 -27 7.5 -49t30.5 -22q13 0 21.5 13t8.5 42z" />
<glyph unicode="&#xf81b;" d="M212 -119h-134l128 281h-162q-5 23 -5.5 35t-0.5 20q0 26 17.5 41t50.5 15h209q26 0 33.5 -8.5t7.5 -29.5v-46z" />
<glyph unicode="&#xf81c;" d="M359 -6q0 -34 -12 -58t-34 -39.5t-51.5 -22.5t-65.5 -7q-78 0 -121 29.5t-43 92.5q0 38 21.5 62t45.5 34q-25 11 -39 34t-14 48q0 28 11.5 50t31.5 36.5t47.5 22t59.5 7.5q67 0 108.5 -28t41.5 -85q0 -27 -15 -49t-38 -35q29 -11 47.5 -34.5t18.5 -57.5zM231 -1 q0 22 -8.5 35.5t-26.5 13.5t-27 -13.5t-9 -35.5q0 -47 36 -47q35 0 35 47zM227 164q0 39 -31 39t-31 -39q0 -18 7 -30.5t24 -12.5q31 0 31 43z" />
<glyph unicode="&#xf81d;" d="M30 129q0 39 12.5 68t33.5 48t50 28.5t62 9.5q82 0 124 -48t42 -133q0 -62 -18.5 -106.5t-48.5 -73t-68 -42t-76 -13.5q-43 0 -57.5 12t-14.5 36q0 9 1 22t3 22q13 -2 20 -2.5t18 -0.5q14 0 29.5 3t30 9.5t26 18t17.5 28.5q-14 -8 -32 -11.5t-32 -3.5q-31 0 -54 10.5 t-38 28.5t-22.5 41t-7.5 49zM158 133q0 -57 39 -57q7 0 13.5 1t11.5 2q4 15 4 38q0 29 -7 51t-26 22q-35 0 -35 -57z" />
<glyph horiz-adv-x="280" d="M240 4q-39 -13 -73 -13q-46 0 -71.5 11t-38 29t-15 41.5t-2.5 49.5v357q30 5 46.5 6t29.5 1q24 0 46.5 -4.5t39.5 -16t27.5 -32t10.5 -52.5v-377zM232 632q0 -43 -28 -68t-70 -25t-70 25t-28 68t28 68.5t70 25.5t70 -25.5t28 -68.5z" />
<glyph horiz-adv-x="858" d="M256 0h-201v669q26 5 46.5 6t30.5 1q20 0 42 -3.5t40 -14t30 -30.5t12 -52v-576zM311 193q-14 22 -24 40t-17 35.5t-10 35.5t-3 40q0 38 16 73t42 73l75 109q12 17 24 31t26.5 24.5t32.5 16t41 5.5q22 0 44.5 -8t40.5 -17q23 -11 41 -24l-184 -277l203 -332 q-38 -19 -72.5 -25t-70.5 -6q-45 0 -73 20t-45 48zM658 510q0 42 12 80t40 69q19 22 42 36t45 14t38 -12.5t23 -32.5q-11 -5 -23 -11.5t-22.5 -15.5t-17 -21t-6.5 -27q0 -17 8.5 -27.5t18 -21t18 -24.5t8.5 -37q0 -14 -5 -28.5t-16 -26.5t-28 -19.5t-40 -7.5q-25 0 -43 10 t-29.5 25.5t-17 36t-5.5 41.5z" />
<glyph horiz-adv-x="826" d="M575 312v357q23 5 42.5 6t29.5 1q20 0 42 -3.5t40 -14t30 -30t12 -51.5v-577h-162l-209 332v-332h-195v669q14 2 38 4.5t50 2.5q48 0 72.5 -15.5t40.5 -44.5zM157 668q0 -32 -9.5 -62t-31.5 -54q-14 -17 -32.5 -28t-35.5 -11t-29.5 10t-17.5 25q8 4 17.5 9t17.5 12 t13.5 16.5t5.5 21.5q0 13 -6.5 21t-14.5 16.5t-14.5 19t-6.5 28.5q0 10 4 21.5t12.5 21t22 15.5t31.5 6q38 0 56 -27.5t18 -60.5z" />
<glyph horiz-adv-x="500" d="M435 544q-22 -14 -44 -14q-26 0 -45.5 15t-34.5 35l101 84q14 11 29.5 19.5t34.5 8.5q30 0 52.5 -21t40.5 -44zM193 544q-22 -14 -44 -14q-26 0 -45.5 15t-34.5 35l101 84q14 11 29.5 19.5t34.5 8.5q30 0 52.5 -21t40.5 -44z" />
<glyph horiz-adv-x="500" d="M349 -138q0 -22 -10.5 -41t-27.5 -33.5t-39.5 -22.5t-46.5 -8q-35 0 -55 11.5t-20 33.5q0 9 2 23t8 33q8 -6 20.5 -10.5t25.5 -4.5q26 0 26 19q0 12 -6 19t-13 14.5t-13 17t-6 26.5q0 21 12 38t22 27h92q-13 -12 -19.5 -21t-6.5 -20t8.5 -19.5t19 -18.5t19 -24.5 t8.5 -38.5z" />
<glyph horiz-adv-x="500" d="M333 549q-27 0 -47.5 5.5t-37.5 12.5t-31.5 12.5t-29.5 5.5q-25 0 -42 -11.5t-34 -31.5l-33 34q-17 17 -17 35q0 22 23 43q40 37 96 37q23 0 41 -5.5t33.5 -12.5t30 -12.5t31.5 -5.5q23 0 35.5 10.5t30.5 33.5l30 -38q17 -23 17 -41q0 -19 -9 -32.5t-22.5 -22t-31 -12.5 t-33.5 -4z" />
<glyph horiz-adv-x="500" d="M289 -139q14 0 23.5 8t16.5 16q11 -8 21.5 -24t10.5 -31q0 -16 -10 -28t-26 -19.5t-34.5 -11.5t-36.5 -4q-51 0 -84 23t-33 77q0 25 11 49.5t27.5 45.5t35 37t33.5 25l118 -15q-18 -13 -35.5 -29t-31.5 -32.5t-22.5 -33t-8.5 -29.5q0 -24 25 -24z" />
<glyph horiz-adv-x="500" d="M368 612q0 -25 -8.5 -47t-23.5 -38.5t-37 -26.5t-49 -10q-28 0 -50 9.5t-37.5 26t-23.5 38.5t-8 47t8 47.5t23.5 39t37.5 26.5t50 10q27 0 49 -10t37 -26.5t23.5 -38.5t8.5 -47zM298 611q0 23 -12.5 40t-35.5 17t-36 -16.5t-13 -39.5t13 -40t36 -17t35.5 17t12.5 39z" />
<glyph horiz-adv-x="500" d="M254 636l52 47q12 11 25.5 15t26.5 4q18 0 36.5 -6t24.5 -14l-78 -107q-17 -23 -39.5 -32t-49.5 -9q-26 0 -48 8t-38 30l-81 110q8 8 25 14t33 6q14 0 29.5 -4t29.5 -16z" />
<glyph horiz-adv-x="500" d="M176 551q-52 0 -69.5 17t-17.5 49q0 16 0.5 24.5t2.5 24.5h230q45 0 66.5 -13.5t21.5 -54.5q0 -12 -0.5 -22.5t-1.5 -24.5h-232z" />
<glyph horiz-adv-x="500" d="M446 620q0 -37 -24.5 -58.5t-59.5 -21.5t-59.5 21.5t-24.5 58.5q0 36 24.5 58t59.5 22t59.5 -22t24.5 -58zM222 620q0 -37 -24.5 -58.5t-59.5 -21.5t-59.5 21.5t-24.5 58.5q0 36 24.5 58t59.5 22t59.5 -22t24.5 -58z" />
<glyph horiz-adv-x="500" d="M336 622q0 -38 -25 -59.5t-61 -21.5t-61 21.5t-25 59.5t25 60.5t61 22.5t61 -22.5t25 -60.5z" />
<glyph horiz-adv-x="500" d="M250 594l-52 -47q-12 -11 -25.5 -15t-26.5 -4q-18 0 -36.5 6t-24.5 14l78 107q17 23 39.5 32t49.5 9q26 0 48 -8t38 -30l81 -110q-8 -8 -25 -14t-33 -6q-14 0 -29.5 4t-29.5 16z" />
<glyph horiz-adv-x="500" d="M245 544q-22 -14 -44 -14q-26 0 -45.5 15t-34.5 35l101 84q14 11 29.5 19.5t34.5 8.5q30 0 52.5 -21t40.5 -44z" />
<glyph horiz-adv-x="500" d="M121 627q18 23 40.5 44t52.5 21q19 0 34.5 -8.5t29.5 -19.5l101 -84q-15 -20 -34.5 -35t-45.5 -15q-22 0 -44 14z" />
<glyph horiz-adv-x="500" d="M391 584q-50 -56 -142 -56q-91 0 -141 56q-13 14 -26.5 40.5t-15.5 61.5q10 7 29 13.5t36 6.5q16 0 24.5 -9t16.5 -24q15 -28 31 -38.5t47 -10.5q30 0 46 10.5t31 38.5q8 15 16.5 24t24.5 9q17 0 36 -6.5t29 -13.5q-2 -35 -15.5 -61.5t-26.5 -40.5z" />
<glyph horiz-adv-x="500" d="M282 -198q-11 -20 -28.5 -32t-40.5 -12q-14 0 -31 4.5t-30 9.5l45 119q10 26 26.5 43.5t45.5 17.5q23 0 45 -6t39 -14z" />
<glyph horiz-adv-x="500" d="M294 527q-5 -38 -31 -54t-63 -16q-6 0 -12 0.5t-12 1.5v153q0 45 26 71t74 26q7 0 19.5 -0.5t19.5 -1.5z" />
<glyph horiz-adv-x="500" d="M282 -198q-11 -20 -28.5 -32t-40.5 -12q-14 0 -31 4.5t-30 9.5l45 119q10 26 26.5 43.5t45.5 17.5q23 0 45 -6t39 -14z" />
<glyph horiz-adv-x="500" d="M226 689q11 20 28.5 32t40.5 12q14 0 28.5 -4.5t27.5 -9.5l-45 -119q-10 -26 -26.5 -43.5t-45.5 -17.5q-23 0 -42.5 6t-36.5 14z" />
<glyph horiz-adv-x="977" d="M665 137q-2 -12 1 -19.5t8 -11t11 -4.5t10 -1q23 0 41.5 10.5t31 35.5t19.5 66.5t7 104.5q0 62 -21 107t-57 74t-84.5 43t-102.5 14q-77 0 -140 -24t-108 -69t-70 -111t-25 -150q0 -65 15.5 -120.5t50 -97t88.5 -65t131 -23.5q71 0 124 18t92 40l25 -41q11 -17 11 -32 q0 -20 -12.5 -33t-31.5 -22q-43 -22 -99.5 -33t-122.5 -11q-107 0 -183.5 35.5t-126.5 94t-73.5 132t-23.5 150.5q0 108 36.5 196t100 150t150 96t187.5 34q79 0 151.5 -23t128 -67.5t88.5 -108t33 -144.5q0 -91 -19 -153t-52.5 -99.5t-79.5 -54t-99 -16.5q-54 0 -87 17 t-45 42q-24 -28 -53 -44t-67 -16q-39 0 -68 12.5t-48 34t-28.5 51.5t-9.5 65q0 55 18 106.5t52 91t83.5 63t112.5 23.5q41 0 87.5 -10.5t88.5 -36.5zM519 326q-36 0 -63 -37.5t-27 -106.5q0 -51 32 -51q23 0 37 15.5t22 53.5l21 122q-9 4 -22 4z" />
</font>
</defs>
</svg>
